<svg xmlns:dc="http://purl.org/dc/elements/1.1/" xmlns:cc="http://creativecommons.org/ns#" xmlns:rdf="http://www.w3.org/1999/02/22-rdf-syntax-ns#" xmlns:svg="http://www.w3.org/2000/svg" xmlns="http://www.w3.org/2000/svg" viewBox="0 0 96 100" version="1.1" x="0px" y="0px"><g transform="translate(-329.48231,-394.36864)"><path style="color:#000000;font-style:normal;font-variant:normal;font-weight:normal;font-stretch:normal;font-size:medium;line-height:normal;font-family:sans-serif;text-indent:0;text-align:start;text-decoration:none;text-decoration-line:none;text-decoration-style:solid;text-decoration-color:#000000;letter-spacing:normal;word-spacing:normal;text-transform:none;direction:ltr;block-progression:tb;writing-mode:lr-tb;baseline-shift:baseline;text-anchor:start;white-space:normal;clip-rule:nonzero;display:inline;overflow:visible;visibility:visible;opacity:1;isolation:auto;mix-blend-mode:normal;color-interpolation:sRGB;color-interpolation-filters:linearRGB;solid-color:#000000;solid-opacity:1;fill:#000000;fill-opacity:1;fill-rule:nonzero;stroke:none;stroke-width:1.39974141;stroke-linecap:butt;stroke-linejoin:miter;stroke-miterlimit:4;stroke-dasharray:none;stroke-dashoffset:0;stroke-opacity:1;color-rendering:auto;image-rendering:auto;shape-rendering:auto;text-rendering:auto;enable-background:accumulate" d="m 377.5739,394.38129 c -14.33069,0 -27.1942,6.45316 -36.0043,16.68528 -1.10137,1.15623 -2.04705,2.3027 -2.69078,3.37527 -0.0435,0.0644 -0.0737,0.13183 -0.11174,0.1967 -5.83789,8.19303 -9.28698,18.30064 -9.28477,29.23617 -0.002,8.65171 2.15732,16.78472 5.94909,23.86195 0.0921,0.17661 0.18665,0.34652 0.28165,0.51932 0.0573,0.10253 0.11341,0.20883 0.17116,0.31178 0.0251,0.0435 0.0435,0.0711 0.0598,0.1063 8.32201,14.76249 23.84675,24.69421 41.6275,24.69421 20.76371,0 38.45256,-13.54249 45.18532,-32.50699 l 0.008,-0.008 0.0126,-0.0167 c 0.28207,-0.6822 0.5944,-1.6581 0.90685,-2.83738 1.1227,-3.8848 1.79322,-7.96893 1.951,-12.1886 1.2e-4,-0.0126 2.1e-4,-0.0126 0.002,-0.0126 0.0335,-0.40887 0.051,-0.81808 0.064,-1.22499 0.0607,-1.46972 -0.0126,-3.02185 -0.17159,-4.58234 -1.4981,-19.95677 -14.50536,-36.59832 -32.20354,-42.90602 -2.89743,-1.11994 -6.06387,-2.03147 -8.80902,-2.20218 -2.26462,-0.33647 -4.57875,-0.51383 -6.93376,-0.51383 z m 6.29158,0.85695 c 0.15066,0.008 0.30509,0.0167 0.45859,0.0251 3.22566,0.47019 6.34716,1.2714 9.33151,2.37088 0.27998,0.11132 0.56397,0.22097 0.83759,0.33606 1.82988,0.76677 3.4963,1.59071 4.79306,2.32036 1.28232,0.7217 2.20348,1.3638 2.5366,1.72204 0.0209,0.0435 0.77435,1.98636 1.58134,4.31982 0.21678,0.6262 0.4329,1.27546 0.63842,1.91811 0.29211,0.98175 0.38795,1.3027 0.63478,2.13011 0.24859,0.90794 0.43201,1.71656 0.49349,2.29442 -0.13936,0.14104 -0.38209,0.32517 -0.75016,0.53815 -0.40092,0.23059 -0.91479,0.48973 -1.50626,0.76179 -1.18276,0.54447 -2.67483,1.14426 -4.20227,1.70978 -1.52739,0.5656 -3.09098,1.09705 -4.41917,1.50567 -1.32819,0.40845 -2.42884,0.69446 -2.99419,0.76748 -0.2398,0.0435 -0.75744,-0.0435 -1.42767,-0.21008 -0.0435,-0.0126 -0.0686,-0.0251 -0.10253,-0.0335 -3.11585,-1.77063 -12.13449,-5.64663 -15.80334,-6.17147 -0.47223,-0.20883 -1.31609,-0.57674 -1.33396,-0.58477 -0.0251,-0.0577 -0.40009,-1.30178 -0.96422,-2.94133 -0.22557,-0.72744 -0.48492,-1.49994 -0.76632,-2.26714 -0.42645,-1.16279 -0.8978,-2.30186 -1.35953,-3.21151 -0.0532,-0.10337 -0.10253,-0.19042 -0.15484,-0.28918 -0.32057,-0.64344 -0.6306,-1.16176 -0.93267,-1.52719 0.48324,-0.24817 1.33731,-0.59314 2.5135,-1.01548 1.26575,-0.45437 2.80976,-0.97804 4.38708,-1.51635 3.13016,-1.06809 6.36406,-2.18197 7.881,-2.95008 0.20757,-0.0125 0.41682,-0.0125 0.63046,-0.008 z m -16.94245,5.60726 c 0.55606,0.008 0.96091,0.0804 1.08692,0.15233 0.25989,0.15024 0.65993,0.7027 1.06538,1.45466 0.0937,0.18958 0.18665,0.38376 0.28081,0.59121 0.47629,1.05027 0.96401,2.30271 1.40151,3.5043 0.20088,0.55003 0.38669,1.08182 0.55995,1.58678 0.1155,0.36953 0.2239,0.73015 0.3168,1.0647 0.2783,0.98979 0.45227,1.8039 0.46943,2.17251 0.008,0.0448 -0.0377,0.17702 -0.1063,0.34819 -0.0435,0.0799 -0.0862,0.16991 -0.13978,0.26575 -2.67382,1.78439 -8.90334,9.33113 -11.36378,12.97106 -0.2829,0.28082 -0.53994,0.53028 -0.76351,0.74263 -0.44377,0.42139 -0.77849,0.70605 -0.87851,0.76669 -0.1063,0.0636 -0.48328,0.19669 -1.00569,0.33229 -0.52275,0.13559 -1.20662,0.2875 -1.99603,0.44666 -1.57887,0.31722 -3.58017,0.66328 -5.57473,0.96003 -1.99461,0.29714 -3.98315,0.54506 -5.53352,0.67023 -0.77527,0.0603 -1.44131,0.095 -1.93957,0.0875 -0.24943,-0.008 -0.45633,-0.0251 -0.61009,-0.0435 -0.154,-0.0293 -0.25444,-0.0619 -0.26993,-0.0774 -0.0816,-0.0586 -0.24817,-0.29713 -0.41306,-0.64553 -0.16656,-0.34903 -0.34735,-0.81193 -0.53475,-1.34573 -0.37456,-1.06734 -0.77084,-2.41942 -1.13254,-3.74631 -0.72363,-2.65358 -1.30861,-5.20529 -1.30861,-5.20529 l -0.008,-0.0251 -0.0125,-0.0251 c -0.34819,-0.75497 -0.1402,-1.753 0.48395,-2.89814 0.94995,-1.34095 1.96439,-2.63026 3.03859,-3.86349 0.20004,-0.20674 0.40176,-0.41264 0.61097,-0.61905 2.87358,-2.84135 6.51978,-5.65688 8.78482,-7.36787 0.0435,-0.0126 3.76364,-0.75455 7.72381,-1.39339 1.99092,-0.32183 4.03136,-0.61285 5.66823,-0.76569 0.81841,-0.0774 1.5361,-0.11885 2.09203,-0.11257 z m 35.13278,0.87252 c 0.0293,0.0167 0.046,0.0335 0.0636,0.0435 -0.008,0.003 -0.0125,2.9e-4 -0.0167,0.008 0,0 0.008,0.0209 0.008,0.0209 -0.0209,-0.0251 -0.0435,-0.0435 -0.0577,-0.0577 z m 3.46299,11.13943 c 4.36368,1.88906 13.17341,13.43585 13.63845,14.04816 l -0.0435,0.47035 c -0.0167,0.18204 -0.0335,0.36158 -0.0435,0.54718 l -0.49902,7.39391 c -0.0435,0.4277 -0.0732,0.85667 -0.10337,1.2647 -0.0444,0.58109 -0.0741,1.16857 -0.0992,1.75414 l -0.49764,7.38072 c -0.0607,0.51295 -0.13475,1.0041 -0.22557,1.38858 -8.18189,4.02118 -12.32842,4.76498 -13.90164,5.54489 0.0167,-0.0837 0.0335,-0.15944 0.0435,-0.22431 l 0.008,-0.0377 -0.008,-0.0377 c -0.0762,-0.34568 -0.30718,-0.78925 -0.65738,-1.34183 -0.34945,-0.55271 -0.81925,-1.20599 -1.37464,-1.92401 -1.11041,-1.43578 -2.56205,-3.12965 -4.06789,-4.77197 -1.50584,-1.64256 -3.06542,-3.23336 -4.39143,-4.46123 -0.66299,-0.61394 -1.26701,-1.13665 -1.77996,-1.53188 -0.513,-0.39506 -0.92484,-0.66394 -1.25223,-0.76957 -0.14522,-0.0494 -0.32936,-0.072 -0.53706,-0.0866 0.0377,-0.0293 0.0624,-0.0511 0.0875,-0.0716 1.20531,-1.33852 1.35756,-16.56467 0.91563,-19.0747 -0.0209,-0.0209 -0.0448,-0.0435 -0.0599,-0.051 0.26826,0.0435 0.49458,0.0548 0.67759,0.0377 0.62382,-0.082 1.71907,-0.36953 3.05542,-0.78083 1.33631,-0.41139 2.9053,-0.94422 4.43901,-1.51208 1.53384,-0.56803 3.03194,-1.16995 4.22805,-1.72045 0.5982,-0.27579 1.12036,-0.53743 1.53631,-0.77765 0.41599,-0.24022 0.72379,-0.45181 0.9076,-0.66093 l 0.008,-0.0126 z m 16.25607,12.56119 c 0.0335,0.0741 0.0531,0.14229 0.0904,0.25235 0.11006,0.31848 0.26449,0.78465 0.44959,1.36937 0.36954,1.16945 0.857,2.81616 1.33212,4.72267 0.56908,2.28275 1.11848,4.93887 1.43206,7.59152 0.13225,1.4894 0.20339,2.99658 0.20256,4.52121 1.2e-4,0.78858 -0.0251,1.57222 -0.0553,2.3515 -0.30215,4.13686 -1.05235,8.31661 -1.80858,11.28921 -0.30592,1.09119 -0.64549,2.16711 -1.02139,3.22557 -0.1448,0.21553 -0.33982,0.38879 -0.70868,0.60256 -0.33229,0.19 -0.91697,0.45415 -1.5787,0.75284 0.73145,-2.17574 0.50676,-5.4512 -0.09,-8.48217 -0.31555,-1.60281 -0.72915,-3.12376 -1.15455,-4.34778 -0.35029,-1.00796 -0.40218,-1.67287 -0.65613,-2.13548 l 1.37565,-19.95363 -0.0125,-0.0167 c 1.58845,-1.27805 2.13275,-1.69353 2.20318,-1.74639 z m -63.30476,1.665 c 0.44257,-0.0209 0.88534,0.051 1.04173,0.0565 0.73346,2.6296 9.89854,13.6053 10.72704,15.36739 -0.0126,0.0126 -0.0335,0.0209 -0.0435,0.0335 -0.25486,0.22599 -0.49399,0.6501 -0.77221,1.24909 -0.27872,0.59904 -0.58092,1.36921 -0.89822,2.25621 -0.63474,1.77456 -1.32505,4.01709 -1.96753,6.27413 -0.64256,2.25701 -1.23671,4.52786 -1.67793,6.35666 -0.44143,1.82867 -0.73003,3.18908 -0.76213,3.72263 -0.008,0.0954 0.0126,0.1946 0.0435,0.29797 -1.95992,0.81055 -11.59371,3.17289 -16.71688,2.97058 -0.0126,-0.0377 -0.0954,-0.29043 -0.0954,-0.29043 l -0.0126,-0.0335 -0.0209,-0.0293 c 0,0 -2.29827,-3.28249 -4.7875,-6.96185 -2.48927,-3.67923 -5.17783,-7.77595 -5.92242,-9.32439 l -0.0435,-0.0737 -0.0795,-0.0293 c -0.1109,-0.0435 -0.22683,-0.059 -0.34442,-0.0887 0.0691,-0.0125 0.13977,-0.0251 0.19251,-0.0435 1.86533,-9.70046 4.76008,-17.37137 5.59319,-19.30307 -0.059,-0.0891 -0.12514,-0.20967 -0.19168,-0.34903 0.10547,0.0623 0.22934,0.0921 0.38628,0.11718 0.17995,0.0335 0.39966,0.0435 0.65943,0.0477 0.51889,0.0125 1.19276,-0.0293 1.97502,-0.0879 1.56418,-0.12639 3.5579,-0.37581 5.55816,-0.6734 2.00009,-0.29798 4.0057,-0.64353 5.59298,-0.96326 0.7936,-0.15987 1.48429,-0.30676 2.01586,-0.45114 0.16154,-0.046 0.34568,-0.0624 0.53158,-0.0691 z m 30.76902,10.75942 c 0.42142,-0.0125 0.74103,0.0251 0.91437,0.0745 0.23018,0.0753 0.64114,0.32517 1.14041,0.71052 0.49935,0.3846 1.09781,0.90203 1.75527,1.51128 1.31538,1.21771 2.86922,2.80294 4.36946,4.43935 1.50019,1.63658 2.9474,3.32455 4.0488,4.7485 0.55054,0.71182 1.01449,1.35848 1.35464,1.896 0.33354,0.52714 0.53806,0.94903 0.5972,1.19959 -0.0565,0.51011 -0.3913,1.7969 -0.88387,3.45487 -0.16573,0.55706 -0.36786,1.20226 -0.56167,1.82942 -0.70483,2.11037 -1.43465,4.37273 -2.10174,6.54574 -1.01762,3.08797 -1.93032,5.78846 -2.2306,6.70874 -0.19041,0.13894 -0.60251,0.34526 -1.19192,0.58481 -0.60959,0.24733 -1.39318,0.52902 -2.29019,0.82909 -1.79419,0.6 -4.04404,1.27127 -6.28853,1.88307 -2.24445,0.61185 -4.4835,1.16376 -6.2545,1.52497 -0.88558,0.18163 -1.65445,0.31387 -2.24466,0.38292 -0.59021,0.0666 -1.02394,0.0544 -1.13191,0.0167 -0.1222,-0.0494 -0.49169,-0.28541 -0.96799,-0.65239 -0.4765,-0.36661 -1.08232,-0.86592 -1.76891,-1.45571 -1.37313,-1.1797 -3.0701,-2.723 -4.71781,-4.30882 -1.64759,-1.58552 -3.2468,-3.21419 -4.4224,-4.56192 -0.58783,-0.67395 -1.0701,-1.27806 -1.39729,-1.76607 -0.32726,-0.48809 -0.48081,-0.88035 -0.47248,-1.01716 0.0335,-0.4303 0.31178,-1.83524 0.75221,-3.6583 0.44001,-1.82298 1.0339,-4.09066 1.67491,-6.34268 0.64106,-2.25194 1.32982,-4.48932 1.95979,-6.25086 0.31471,-0.88069 0.61569,-1.64273 0.886,-2.22512 0.26993,-0.58234 0.52518,-0.98949 0.68262,-1.12923 0.15986,-0.14187 0.52668,-0.34526 1.02548,-0.56861 4.43764,-1.24767 14.55576,-3.15703 17.55522,-4.38825 0.0686,-0.0126 0.14396,-0.0126 0.21134,-0.0126 z m -59.22779,9.87703 c 0.0502,0.29546 0.10086,0.58694 0.16154,0.87186 0,0 0.29923,0.0377 0.53802,0.0527 -0.37037,0.0377 -0.52852,0.0494 -0.61477,0.0569 -0.0435,-0.32517 -0.059,-0.65189 -0.0858,-0.97933 z m 3.31911,1.20276 c 1.04026,0.0251 2.14033,0.11718 3.00582,0.36117 0.81595,1.66432 3.43366,5.64307 5.89757,9.28459 2.48287,3.66978 4.75975,6.92155 4.77532,6.94356 0.0125,0.0293 1.13241,3.40637 2.30149,7.05857 0.0636,0.20464 0.12889,0.40594 0.19334,0.61213 0.54819,1.93079 1.13233,3.87898 1.67479,5.42015 0.33103,1.13718 0.56226,2.01189 0.6288,2.41423 -1.09103,1.06872 -2.61897,1.97916 -2.7854,2.07642 -0.28626,-0.23017 -7.54185,-6.12799 -12.27071,-13.7845 -0.53062,-0.90044 -1.03148,-1.82076 -1.50622,-2.75795 -3.64466,-7.52113 -4.98637,-16.9853 -5.05555,-17.48641 0.14815,-0.0209 0.92869,-0.10965 2.13075,-0.13936 0.32098,-0.0126 0.66265,-0.0126 1.00954,-0.008 z m 88.54926,12.81597 c -0.1063,0.25989 -0.31681,1.09689 -0.828,2.3867 -0.69873,1.58737 -1.47935,3.12765 -2.33209,4.61956 -0.9194,1.53953 -1.89918,3.00766 -2.62842,4.07023 -2.52584,3.67939 -7.02219,8.10087 -8.00403,8.5169 0.13559,-0.61155 0.37162,-1.91015 0.28751,-4.31581 2.18092,-2.04022 5.04633,-5.55431 7.39775,-8.60106 2.01583,-2.38151 3.73121,-4.56645 4.10141,-5.50932 0.0377,-0.0435 0.20842,-0.28751 0.21051,-0.29044 l 1.79615,-0.87738 z m -23.8694,9.27761 c 2.78502,3.81106 9.98491,6.12192 9.98491,6.12192 0,0 0.0209,-0.0209 0.0209,-0.0209 0.0954,3.02114 -0.38753,4.70187 -0.38753,4.70187 l -0.0758,0.25989 c -8.19173,6.81663 -18.61845,10.90142 -29.97361,10.90142 -1.27215,0 -2.53209,-0.054 -3.77925,-0.15233 -0.0477,-0.0506 -0.9171,-0.98113 -1.82445,-2.17899 -0.4657,-0.61465 -0.93254,-1.2907 -1.28504,-1.93037 -0.35237,-0.63968 -0.58586,-1.24717 -0.60343,-1.69316 l -0.0126,-0.14689 -0.13308,-0.0293 c 0.0523,-0.0875 5.33456,-8.99914 8.06794,-10.30824 -0.12806,-0.0975 -0.27956,-0.22139 -0.42432,-0.33731 0.20842,0.14438 0.3867,0.25612 0.52141,0.30759 0.2804,0.10714 0.69822,0.082 1.30601,0.0126 0.60766,-0.0703 1.38335,-0.20632 2.27492,-0.38711 1.78359,-0.3641 4.02825,-0.91756 6.27839,-1.531 2.2501,-0.61335 4.50493,-1.28642 6.30832,-1.88969 0.90178,-0.30215 1.69032,-0.5851 2.31108,-0.83649 0.62055,-0.2511 1.06654,-0.46144 1.31768,-0.65286 l 0.0481,-0.0435 0.0209,-0.0548 c 0.0126,-0.0251 0.0435,-0.10462 0.0439,-0.12806 z m -45.82257,9.99622 c 0.0251,0.0435 0.0435,0.0732 0.0582,0.10295 0.008,0.008 0.0126,0.0126 0.0126,0.0167 -0.0293,-0.0167 -0.0435,-0.0251 -0.0532,-0.0377 l -0.0126,-0.0452 c -0.003,-0.0167 -0.008,-0.0435 -0.0126,-0.0485 z m -0.20841,0.3825 c 0.10253,0.0569 0.94003,0.51831 2.39653,1.17121 0.31555,0.1469 0.65863,0.29505 1.02143,0.44311 3.03378,1.28148 7.9603,3.03776 14.34977,4.18398 0.0565,0.52036 0.28123,1.09827 0.61599,1.70643 0.36576,0.66411 0.8416,1.35141 1.31396,1.97506 0.66963,0.88395 1.29341,1.55104 1.63122,1.91258 -2.84127,-0.25863 -5.61064,-0.77418 -8.2869,-1.52333 -1.08789,-0.31388 -2.21201,-0.66952 -3.34171,-1.07337 -0.16824,-0.059 -0.33605,-0.11927 -0.50266,-0.18205 -0.0126,-0.008 -0.0251,-0.0126 -0.0435,-0.0167 -1.40704,-0.53115 -2.78264,-1.12915 -4.1243,-1.78929 -0.48538,-0.24524 -0.93711,-0.47738 -1.36439,-0.70006 -1.96469,-1.04767 -3.8504,-2.23018 -5.64345,-3.5387 -0.23478,-0.29044 -0.36201,-0.44896 -0.76146,-0.58046 0.344,-0.20339 1.60565,-0.97736 2.63846,-1.93618 l 0.09,-0.0565 z"/></g></svg>