<svg width="72" height="54" viewBox="0 0 72 54" fill="none" xmlns="http://www.w3.org/2000/svg">
<g clip-path="url(#clip0_301_29471)">
<mask id="mask0_301_29471" style="mask-type:alpha" maskUnits="userSpaceOnUse" x="0" y="0" width="72" height="54">
<rect x="0.5" y="0.5" width="71" height="53" fill="#D9D9D9" stroke="black"/>
</mask>
<g mask="url(#mask0_301_29471)">
<g clip-path="url(#clip1_301_29471)">
<path d="M-4.5 0H76.3421V54H-4.5V0Z" fill="white"/>
<path d="M45.7105 26.4357H38.7181C38.8485 26.3367 38.9517 26.2393 39.045 26.1473C39.2157 25.9803 39.3515 25.8477 39.7116 25.6996C40.0737 25.5478 40.2634 25.546 40.5034 25.5423C40.7925 25.5403 41.1198 25.5348 41.6546 25.3146C42.1886 25.0926 42.4218 24.8649 42.6277 24.664C42.7984 24.497 42.9341 24.3644 43.2952 24.2143C43.6544 24.0645 43.8434 24.0625 44.0821 24.0608C44.3705 24.0568 44.6974 24.0533 45.2322 23.8313L44.8587 22.9359C44.4994 23.0857 44.3105 23.0877 44.0718 23.0895C43.7833 23.0934 43.4564 23.0969 42.9225 23.3172C42.3888 23.5392 42.1553 23.7669 41.9494 23.9677C41.7787 24.1347 41.643 24.2674 41.2828 24.4154C40.9207 24.5672 40.7311 24.569 40.4911 24.5727C40.202 24.5747 39.8746 24.5802 39.3398 24.8022C38.8061 25.0222 38.5727 25.2519 38.3667 25.4527C38.1987 25.6162 38.0598 25.7471 37.7142 25.8932L43.2098 20.3982L42.5232 19.7115L37.5765 24.6579C37.5983 24.4962 37.6042 24.3523 37.6055 24.2218C37.6084 23.9809 37.6104 23.793 37.7602 23.4309C37.91 23.0688 38.0427 22.9339 38.2099 22.7634C38.4127 22.5566 38.6413 22.3217 38.8631 21.7868C39.0839 21.252 39.0879 20.9257 39.0908 20.6375C39.0936 20.3986 39.0956 20.2087 39.2443 19.8486C39.3941 19.4882 39.5259 19.3536 39.6929 19.1829C39.8949 18.9761 40.1232 18.7426 40.3445 18.2098L39.4476 17.8382C39.2978 18.1986 39.166 18.3332 38.999 18.5039C38.7971 18.7107 38.5687 18.9442 38.3474 19.477C38.1265 20.0118 38.1225 20.3381 38.1197 20.6263C38.1168 20.8652 38.1148 21.0551 37.9661 21.4152C37.8163 21.7774 37.6836 21.9122 37.5165 22.0827C37.3136 22.2895 37.085 22.5245 36.8633 23.0593C36.6424 23.5942 36.6384 23.9224 36.6349 24.2106C36.6329 24.4445 36.6263 24.6335 36.4862 24.9806V17.2105H35.5151V24.2029C35.4161 24.0733 35.3189 23.9704 35.2278 23.8771C35.0602 23.7064 34.9282 23.5697 34.7781 23.2096C34.6283 22.8475 34.6254 22.6578 34.6226 22.4167C34.6197 22.1283 34.616 21.8002 34.3942 21.2654C34.1733 20.7326 33.9446 20.4994 33.7426 20.2923C33.5756 20.1216 33.4441 19.987 33.294 19.6266C33.1453 19.2662 33.1433 19.0766 33.1405 18.8377C33.1376 18.5492 33.1339 18.2232 32.9128 17.6901L32.0158 18.0617C32.1645 18.4221 32.1665 18.61 32.1694 18.8487C32.1722 19.1371 32.176 19.4631 32.3971 19.998C32.618 20.5308 32.8468 20.764 33.0487 20.9711C33.2157 21.1418 33.3473 21.2764 33.4973 21.6368C33.6471 21.9989 33.65 22.1886 33.6528 22.4297C33.6557 22.7181 33.6594 23.0461 33.8812 23.581C34.1021 24.1158 34.3309 24.349 34.5328 24.5558C34.6974 24.723 34.8276 24.8627 34.9737 25.2074L29.4777 19.712L28.7911 20.3986L34.2785 25.8855C33.9775 25.7489 33.8324 25.6232 33.6746 25.4701C33.4672 25.2673 33.2329 25.0378 32.6961 24.8158C32.1612 24.5958 31.8341 24.5901 31.5448 24.5864C31.3039 24.5844 31.1145 24.5809 30.7493 24.4291C30.3841 24.2792 30.2477 24.1466 30.0741 23.9778C29.8667 23.7768 29.6313 23.5475 29.0936 23.3235C28.5568 23.1016 28.2285 23.0978 27.9386 23.0941C27.6968 23.0901 27.5063 23.0866 27.1411 22.9348L26.7695 23.8337C27.3063 24.0557 27.6345 24.0595 27.9245 24.0632C28.1663 24.0672 28.3568 24.0707 28.722 24.2225C29.0881 24.3723 29.2245 24.505 29.3981 24.6737C29.6055 24.8766 29.8409 25.104 30.3775 25.3262C30.9143 25.55 31.2425 25.5539 31.5316 25.5577C31.7725 25.5616 31.9619 25.5632 32.3254 25.715C32.6886 25.8648 32.8243 25.9975 32.9959 26.1647C33.0841 26.2511 33.1827 26.3427 33.3019 26.4359H26.2895V27.407H34.0453C33.7389 27.5236 33.5472 27.5384 33.3275 27.5417C33.0384 27.5437 32.711 27.5492 32.1753 27.7694C31.6396 27.9914 31.4042 28.2206 31.1968 28.4219C31.0241 28.5907 30.8885 28.7233 30.5253 28.8731C30.1601 29.0249 29.9696 29.0287 29.7278 29.0324C29.4377 29.0364 29.1096 29.0399 28.5728 29.2619C28.0352 29.4856 27.8 29.7131 27.5923 29.9162C27.4187 30.0849 27.2823 30.2176 26.9171 30.3674L27.2887 31.2663C27.8255 31.0426 28.0607 30.8151 28.2681 30.6121C28.4417 30.4433 28.5781 30.3107 28.9442 30.1608C29.3094 30.009 29.4999 30.0053 29.7417 30.0015C30.0319 29.9976 30.3599 29.9941 30.8978 29.7701C31.4326 29.5481 31.6669 29.3204 31.8744 29.1176C32.046 28.9506 32.1826 28.8179 32.5469 28.6679C32.909 28.5161 33.0998 28.5143 33.3398 28.5106C33.4625 28.5099 33.6009 28.5018 33.7507 28.4833L28.79 33.4435L29.4766 34.1301L34.9614 28.6461C34.8263 28.9457 34.7016 29.0903 34.548 29.2485C34.346 29.4553 34.1177 29.6902 33.8955 30.2251C33.6733 30.7599 33.6687 31.0901 33.666 31.3781C33.6621 31.619 33.6605 31.8084 33.5094 32.1728C33.3587 32.5388 33.2249 32.6753 33.0571 32.848C32.8542 33.0548 32.6257 33.2917 32.4028 33.8285C32.1799 34.3653 32.176 34.6936 32.1725 34.9835C32.1685 35.2244 32.1659 35.4158 32.0152 35.7799L32.9121 36.1515C33.135 35.6147 33.1389 35.2865 33.1424 34.9965C33.1464 34.7556 33.149 34.5642 33.2997 34.2001C33.4504 33.834 33.5842 33.6976 33.7521 33.5249C33.9549 33.3181 34.1835 33.0812 34.4063 32.5443C34.6283 32.0095 34.6331 31.6793 34.6358 31.3913C34.6397 31.1504 34.6413 30.961 34.7924 30.5967C34.9422 30.2325 35.0749 30.0977 35.2428 29.9252C35.329 29.8368 35.4207 29.738 35.514 29.6183V36.6316H36.4851V28.876C36.6008 29.1818 36.6156 29.373 36.6189 29.5934C36.6217 29.8819 36.6263 30.2099 36.8483 30.7447C37.0692 31.2815 37.2987 31.5167 37.5008 31.7233C37.6685 31.896 37.8014 32.0324 37.9521 32.3965C38.1027 32.7606 38.1056 32.9522 38.1093 33.1929C38.1133 33.4831 38.1168 33.8111 38.3397 34.3479C38.5625 34.8847 38.7909 35.1219 38.994 35.3285C39.1616 35.5012 39.2954 35.6376 39.4463 36.0037L40.3432 35.6321C40.1204 35.0953 39.892 34.8581 39.6889 34.6515C39.5213 34.4788 39.3875 34.3424 39.2366 33.9764C39.0859 33.6122 39.0831 33.4206 39.0793 33.1799C39.0754 32.8898 39.0718 32.5617 38.849 32.0249C38.627 31.4881 38.3986 31.2529 38.1965 31.0463C38.0288 30.8736 37.896 30.7372 37.7453 30.3731C37.5946 30.011 37.5926 29.8214 37.5886 29.5802C37.5873 29.4577 37.5794 29.3191 37.5609 29.1693L42.5223 34.1304L43.2089 33.4437L38.2629 28.4985C38.4235 28.5198 38.5674 28.5262 38.697 28.528C38.9368 28.5299 39.1257 28.5319 39.4879 28.6815C39.85 28.8333 39.9857 28.964 40.1573 29.1328C40.3641 29.3338 40.5982 29.5631 41.1332 29.7853C41.6672 30.0053 41.9943 30.009 42.2825 30.011C42.5214 30.015 42.7102 30.0165 43.0705 30.1665C43.4309 30.3144 43.5655 30.4473 43.7363 30.6143C43.9431 30.8153 44.1765 31.0446 44.7102 31.2668L45.0818 30.3678C44.7214 30.22 44.5868 30.0871 44.4161 29.9201C44.2093 29.7191 43.9758 29.4898 43.4421 29.2676C42.9084 29.0476 42.581 29.0439 42.2928 29.0419C42.0539 29.0379 41.8652 29.0364 41.5048 28.8863C41.1427 28.7365 41.007 28.6056 40.8354 28.4367C40.6286 28.2356 40.3945 28.0063 39.8594 27.7861C39.3246 27.5624 38.9975 27.5584 38.7082 27.5566C38.4728 27.5527 38.282 27.5483 37.9329 27.4068H45.7099V26.4357H45.7105V26.4357Z" fill="#F09146"/>
<path d="M36 31.7252C38.6533 31.7252 40.8042 29.5743 40.8042 26.9211C40.8042 24.2678 38.6533 22.1169 36 22.1169C33.3467 22.1169 31.1958 24.2678 31.1958 26.9211C31.1958 29.5743 33.3467 31.7252 36 31.7252Z" fill="#FFE15A"/>
<path d="M-4.5 0H76.3421V14.8421H-4.5V0ZM-4.5 39.1579H76.3421V54H-4.5V39.1579Z" fill="#338AF3"/>
</g>
</g>
</g>
<defs>
<clipPath id="clip0_301_29471">
<rect width="72" height="54" fill="white"/>
</clipPath>
<clipPath id="clip1_301_29471">
<rect width="81" height="54" fill="white" transform="translate(-4.5)"/>
</clipPath>
</defs>
</svg>
