<svg width="72" height="54" viewBox="0 0 72 54" fill="none" xmlns="http://www.w3.org/2000/svg">
<g clip-path="url(#clip0_301_29478)">
<mask id="mask0_301_29478" style="mask-type:alpha" maskUnits="userSpaceOnUse" x="0" y="0" width="72" height="54">
<rect x="0.5" y="0.5" width="71" height="53" fill="#D9D9D9" stroke="black"/>
</mask>
<g mask="url(#mask0_301_29478)">
<g clip-path="url(#clip1_301_29478)">
<path d="M-4.5 0H76.5V54H-4.5V0Z" fill="#10338C"/>
<path d="M30.5842 26.9526C30.6316 26.9053 30.6632 26.8579 30.7105 26.8105C30.679 26.8579 30.6316 26.9053 30.5842 26.9526ZM25.1842 33.5684L26.9211 37.1842L30.8211 36.2842L29.0842 39.8842L32.2263 42.379L28.3105 43.2632L28.3263 47.2737L25.1842 44.7632L22.0579 47.2737L22.0737 43.2632L18.1579 42.379L21.3 39.8842L19.5474 36.2842L23.4632 37.1842L25.1842 33.5684ZM56.4316 38.0684L57.2526 39.7895L59.1158 39.3632L58.2789 41.0842L59.7789 42.2684L57.9158 42.679V44.6053L56.4316 43.4053L54.9316 44.6053L54.9474 42.679L53.0842 42.2684L54.5842 41.0842L53.7474 39.3632L55.6105 39.7895L56.4316 38.0684ZM48.7579 19.7526L49.5789 21.4737L51.4421 21.0474L50.6053 22.7684L52.1053 23.9526L50.2421 24.379V26.2895L48.7579 25.0895L47.2579 26.2895L47.2737 24.379L45.3947 23.9526L46.8947 22.7684L46.0579 21.0474L47.9211 21.4737L48.7579 19.7526ZM56.4316 9.3L57.2526 11.0211L59.1158 10.5947L58.2789 12.3158L59.7789 13.5L57.9158 13.9263V15.8368L56.4316 14.6368L54.9316 15.8368L54.9474 13.9263L53.0842 13.5L54.5842 12.3158L53.7474 10.5947L55.6105 11.0211L56.4316 9.3ZM63.1421 17.1474L63.9632 18.8684L65.8263 18.4421L64.9895 20.1632L66.4895 21.3474L64.6263 21.7579V23.6842L63.1421 22.4842L61.6421 23.6842V21.7579L59.7789 21.3474L61.2789 20.1632L60.4421 18.4421L62.3053 18.8684L63.1421 17.1474ZM58.3421 26.2895L58.9895 28.2947H61.0895L59.3842 29.5263L60.0474 31.5316L58.3421 30.2842L56.6368 31.5316L57.2842 29.5263L55.5947 28.2947H57.6947L58.3421 26.2895Z" fill="white"/>
<path d="M35.7316 0V4.83158L28.6105 8.79474H35.7316V18.1579H26.4L35.7316 23.3368V26.9526H31.5158L19.9105 20.4947V26.9526H11.1316V19.2789L-2.66842 26.9526H-4.68947V22.1211L2.44737 18.1579H-4.68947V8.79474H4.64211L-4.68947 3.6V0H-0.473679L11.1316 6.4421V0H19.9105V7.67368L33.7263 0H35.7316Z" fill="white"/>
<path d="M18.0474 0H12.9947V10.9421H-4.68947V15.9947H12.9947V26.9526H18.0474V15.9947H35.7316V10.9421H18.0474V0Z" fill="#D80027"/>
<path d="M19.9105 18.1579L35.7316 26.9526V24.4579L24.3947 18.1579H19.9105Z" fill="#0052B4"/>
<path d="M19.9105 18.1579L35.7316 26.9526V24.4579L24.3947 18.1579H19.9105Z" fill="white"/>
<path d="M19.9105 18.1579L35.7316 26.9526V24.4579L24.3947 18.1579H19.9105ZM6.66316 18.1579L-4.68947 24.4579V26.9526L11.1316 18.1579H6.66316Z" fill="#D80027"/>
<path d="M11.1316 8.79474L-4.68947 0V2.47895L6.66316 8.79474H11.1316Z" fill="#0052B4"/>
<path d="M11.1316 8.79474L-4.68947 0V2.47895L6.66316 8.79474H11.1316Z" fill="white"/>
<path d="M11.1316 8.79474L-4.68947 0V2.47895L6.66316 8.79474H11.1316ZM24.3947 8.79474L35.7316 2.47895V0L19.9105 8.79474H24.3947Z" fill="#D80027"/>
</g>
</g>
</g>
<defs>
<clipPath id="clip0_301_29478">
<rect width="72" height="54" fill="white"/>
</clipPath>
<clipPath id="clip1_301_29478">
<rect width="81" height="54" fill="white" transform="translate(-4.5)"/>
</clipPath>
</defs>
</svg>
