<svg width="72" height="54" viewBox="0 0 72 54" fill="none" xmlns="http://www.w3.org/2000/svg">
<g clip-path="url(#clip0_301_29664)">
<mask id="mask0_301_29664" style="mask-type:alpha" maskUnits="userSpaceOnUse" x="0" y="0" width="72" height="54">
<rect x="0.5" y="0.5" width="71" height="53" fill="#D9D9D9" stroke="black"/>
</mask>
<g mask="url(#mask0_301_29664)">
<g clip-path="url(#clip1_301_29664)">
<path d="M-4.5 0H76.5V54H-4.5V0Z" fill="#009B3A"/>
<path d="M36 3.04737L68.3526 26.9526L36 50.8421L3.48947 26.9526L36 3.04737Z" fill="#FEDF00"/>
<path d="M36 39.6947C43.0111 39.6947 48.6947 34.0111 48.6947 27C48.6947 19.9889 43.0111 14.3053 36 14.3053C28.9889 14.3053 23.3053 19.9889 23.3053 27C23.3053 34.0111 28.9889 39.6947 36 39.6947Z" fill="white"/>
<path d="M29.5895 26.1632C27.3947 26.1632 25.2632 26.4947 23.2579 27.1105C23.3526 34.0421 28.9895 39.6316 35.9368 39.6316C40.2316 39.6316 44.0368 37.4842 46.3263 34.2158C42.3947 29.3211 36.3474 26.1632 29.5895 26.1632V26.1632ZM48.3789 29.3684C48.5211 28.579 48.6158 27.7737 48.6158 26.9369C48.6158 19.9263 42.9316 14.2421 35.9211 14.2421C30.6947 14.2421 26.2105 17.4158 24.2526 21.9158C25.9737 21.5684 27.7421 21.379 29.5579 21.379C36.9474 21.3947 43.6105 24.4579 48.3789 29.3684V29.3684Z" fill="#002776"/>
</g>
</g>
</g>
<defs>
<clipPath id="clip0_301_29664">
<rect width="72" height="54" fill="white"/>
</clipPath>
<clipPath id="clip1_301_29664">
<rect width="81" height="54" fill="white" transform="translate(-4.5)"/>
</clipPath>
</defs>
</svg>
