<svg width="72" height="54" viewBox="0 0 72 54" fill="none" xmlns="http://www.w3.org/2000/svg">
<g clip-path="url(#clip0_301_29677)">
<mask id="mask0_301_29677" style="mask-type:alpha" maskUnits="userSpaceOnUse" x="0" y="0" width="72" height="54">
<rect x="0.5" y="0.5" width="71" height="53" fill="#D9D9D9" stroke="black"/>
</mask>
<g mask="url(#mask0_301_29677)">
<g clip-path="url(#clip1_301_29677)">
<path d="M-4.5 0H76.5V54H-4.5V0Z" fill="white"/>
<path d="M-4.5 0H76.5V18H-4.5V0Z" fill="#D80027"/>
<path d="M-4.5 36H76.5V54H-4.5V36Z" fill="#001D86"/>
<path d="M23.1316 17.8421V33.9316C23.1316 37.7684 25.2373 41.2263 28.3082 43.3105C31.4229 45.4263 34.4646 45.6316 36 45.6316C37.5354 45.6316 40.5917 45.3632 43.6918 43.2947C46.7627 41.2421 48.8684 37.7526 48.8684 33.9316V17.8421H23.1316Z" fill="white" stroke="#D80027"/>
<path d="M23.1316 17.8737H28.279V23.4316H23.1316V17.8737ZM33.4263 17.8737H38.5737V23.4316H33.4263V17.8737ZM43.7211 17.8737H48.8684V23.4316H43.7211V17.8737ZM28.279 23.4316H33.4263V28.9895H28.279V23.4316ZM38.5737 23.4316H43.7211V28.9895H38.5737V23.4316ZM23.1316 28.9895H28.279V34.5474H23.1316V28.9895ZM28.279 34.5474H33.4263V40.1053H28.279V34.5474ZM33.4263 28.9895H38.5737V34.5474H33.4263V28.9895ZM43.7211 28.9895H48.8684V34.5474H43.7211V28.9895ZM38.5737 34.5474H43.7211V40.1053H38.5737V34.5474ZM43.7211 43.3105C44.9787 42.4579 46.09 41.3684 46.9382 40.1053H43.7211V43.3105ZM25.0619 40.1053C25.91 41.3684 27.0067 42.4579 28.279 43.3263V40.1053H25.0619ZM33.4263 40.1053V45.4263C34.4792 45.6158 35.3712 45.6632 36 45.6632C36.6288 45.6632 37.5208 45.6158 38.5737 45.4105V40.1053H33.4263V40.1053Z" fill="#D80027"/>
<path d="M26.6461 10.1316C25.5214 9.95765 24.3709 9.83217 23.1979 9.75961C22.2908 10.5064 21.426 11.2849 20.6053 12.0913C21.4296 14.0811 22.2537 16.0708 23.0777 18.0606C24.7324 17.3753 26.428 16.8268 28.1482 16.4157C27.6476 14.3209 27.1469 12.2262 26.6461 10.1316Z" fill="#206EFB"/>
<path d="M39.1381 9.15154C38.1275 8.64024 37.081 8.16742 36.0009 7.73684C34.9208 8.16763 33.8742 8.64045 32.8637 9.15154C33.0316 11.2984 33.1998 13.4456 33.3677 15.593C35.1205 15.4556 36.8817 15.4556 38.6346 15.593C38.8021 13.4458 38.9702 11.2988 39.1381 9.15154Z" fill="#206EFB"/>
<path d="M51.3946 12.0913C50.5738 11.2851 49.7088 10.5066 48.8019 9.75961C47.6289 9.83196 46.4784 9.95765 45.3537 10.1316C44.8531 12.2264 44.3523 14.3209 43.8516 16.4155C45.5718 16.8268 47.2674 17.3751 48.9221 18.0604C49.7463 16.0706 50.5704 14.0809 51.3946 12.0913Z" fill="#206EFB"/>
<path d="M32.8623 9.15155C31.7845 8.80379 30.6757 8.49952 29.5385 8.24272C28.5352 8.83683 27.5705 9.46775 26.646 10.1317C27.1466 12.2265 27.6474 14.321 28.1485 16.4155C29.8687 16.0042 31.6134 15.7302 33.3664 15.5931C33.1983 13.4458 33.0302 11.2988 32.8623 9.15155Z" fill="#001D86"/>
<path d="M45.3515 10.1315C44.4269 9.46753 43.4621 8.83641 42.4589 8.24251C41.3217 8.49931 40.2128 8.80399 39.1352 9.15134C38.9673 11.2982 38.7991 13.4454 38.6312 15.5929C40.3842 15.7298 42.1289 16.004 43.8492 16.4153C44.35 14.3208 44.8508 12.226 45.3515 10.1315Z" fill="#001D86"/>
<path d="M48.9567 12.9898C48.7741 13.4931 48.1585 13.7326 47.5767 13.5433C46.9952 13.3539 46.6392 12.8009 46.7865 12.2861C46.9337 11.7712 47.5573 11.4988 48.1742 11.6993C48.7917 11.8994 49.1393 12.4864 48.9567 12.9898Z" fill="#FFE15A"/>
<path d="M25.2162 12.2863C25.3632 12.8016 25.007 13.3547 24.4259 13.5435C23.8443 13.7317 23.2287 13.4923 23.0459 12.99C22.8631 12.4864 23.2111 11.8996 23.8284 11.6997C24.4451 11.4996 25.0694 11.7717 25.2162 12.2863Z" fill="#FFE15A"/>
<path d="M35.7064 11.44C35.7077 11.868 35.3229 12.2166 34.8461 12.2313C34.3695 12.2466 33.9632 11.9216 33.9381 11.4952C33.9132 11.0686 34.2976 10.6993 34.7978 10.6832C35.298 10.6675 35.7043 11.0119 35.7064 11.44Z" fill="#FFE15A"/>
<path d="M38.0643 11.4952C38.039 11.9226 37.6325 12.2466 37.1563 12.2313C36.6798 12.2167 36.295 11.8681 36.296 11.44C36.2979 11.0123 36.7044 10.6669 37.2044 10.6832C37.7049 10.6982 38.089 11.0684 38.0643 11.4952Z" fill="#FFE15A"/>
<path d="M36.8392 13.4331C36.8272 13.8611 36.4523 14.1978 36.001 14.1978C35.5502 14.1976 35.1752 13.8613 35.1629 13.4331C35.1512 13.0062 35.5261 12.6478 36.001 12.6491C36.4759 12.648 36.8509 13.006 36.8392 13.4331Z" fill="#FFE15A"/>
</g>
</g>
</g>
<defs>
<clipPath id="clip0_301_29677">
<rect width="72" height="54" fill="white"/>
</clipPath>
<clipPath id="clip1_301_29677">
<rect width="81" height="54" fill="white" transform="translate(-4.5)"/>
</clipPath>
</defs>
</svg>
