<svg width="72" height="54" viewBox="0 0 72 54" fill="none" xmlns="http://www.w3.org/2000/svg">
<g clip-path="url(#clip0_301_29387)">
<mask id="mask0_301_29387" style="mask-type:alpha" maskUnits="userSpaceOnUse" x="0" y="0" width="72" height="54">
<rect x="0.5" y="0.5" width="71" height="53" fill="#D9D9D9" stroke="black"/>
</mask>
<g mask="url(#mask0_301_29387)">
<g clip-path="url(#clip1_301_29387)">
<path d="M-4.5 0H76.5V54H-4.5V0Z" fill="#FFDA44"/>
<path d="M-4.5 27.0079H76.5V40.5039H-4.5V27.0079Z" fill="#0052B4"/>
<path d="M-4.5 40.504H76.5V54H-4.5V40.504Z" fill="#D80027"/>
<path d="M34.4989 25.2856L44.8171 16.2863V29.3105C44.8171 31.5056 43.0682 33.2848 40.9113 33.2848C39.9463 33.2848 39.0155 32.9214 38.2983 32.2647L34.4989 28.7854V25.2856Z" fill="#FFE15A"/>
<path d="M39.9419 30.4067L36.9559 27.6722V23.1431L42.3606 18.4292V21.7218V29.3107C42.3606 30.1237 41.7104 30.7853 40.9115 30.7853C40.5528 30.7853 40.2085 30.6508 39.9419 30.4067Z" fill="#D80027"/>
<path d="M38.4298 21.8575V27.0057L40.8865 29.2628V21.6905V19.715L42.3606 18.4294V21.7219V29.3109C42.3606 30.1239 41.7104 30.7854 40.9115 30.7854C40.5528 30.7854 40.2085 30.6511 39.9419 30.4069L36.9559 27.6723V23.1432L38.4298 21.8575Z" fill="#0052B4"/>
<path d="M37.4476 25.2856L27.1294 16.2863V29.3105C27.1294 31.5056 28.8783 33.2848 31.0352 33.2848C32.0001 33.2848 32.931 32.9214 33.6482 32.2647L37.4476 28.7854V25.2856Z" fill="#FFE15A"/>
<path d="M32.0048 30.4067L34.9908 27.6722V23.1431L29.5861 18.4292V21.7218V29.3107C29.5861 30.1237 30.2363 30.7853 31.0353 30.7853C31.3939 30.7853 31.7382 30.6508 32.0048 30.4067Z" fill="#D80027"/>
<path d="M33.5147 21.8575V27.0057L31.0581 29.2628V21.6905V19.715L29.5839 18.4294V21.7219V29.3109C29.5839 30.1239 30.2341 30.7854 31.0331 30.7854C31.3917 30.7854 31.7361 30.6511 32.0027 30.4069L34.9887 27.6723V23.1432L33.5147 21.8575Z" fill="#0052B4"/>
<path d="M45.1653 16.3311H44.459V20.6378H45.1653V16.3311Z" fill="#0052B4"/>
<path d="M27.4796 16.3311H26.7733V20.6378H27.4796V16.3311Z" fill="#0052B4"/>
<path d="M34.4991 14.2867C34.4991 14.2867 35.4818 9.53699 32.0425 10.1619C28.6032 10.7869 28.6032 11.7866 24.6724 13.7867C24.6724 13.7867 29.0944 14.7866 31.0598 14.2867C31.0598 14.2867 32.5339 16.2864 34.0079 16.7864H35.482L34.4991 14.2867Z" fill="#391E1E"/>
<path d="M37.4477 14.2867C37.4477 14.2867 36.465 9.53702 39.9043 10.162C43.3437 10.7869 43.3437 11.7867 47.2744 13.7867C47.2744 13.7867 42.8524 14.7866 40.887 14.2867C40.887 14.2867 39.4129 16.2864 37.939 16.7865H36.4648L37.4477 14.2867Z" fill="#391E1E"/>
<path d="M37.4474 16.7864H34.4993V14.2681C34.4993 13.4499 35.1511 12.7867 35.9552 12.7867H35.9915C36.7956 12.7867 37.4474 13.4499 37.4474 14.2681V16.7864Z" fill="#391E1E"/>
<path d="M35.9732 15.286C36.5159 15.286 36.9558 14.8383 36.9558 14.2861C36.9558 13.7338 36.5159 13.2861 35.9732 13.2861C35.4304 13.2861 34.9905 13.7338 34.9905 14.2861C34.9905 14.8383 35.4304 15.286 35.9732 15.286Z" fill="#E6E1CD"/>
<path d="M33.8646 13.6409L35.7122 14.6449C35.8672 14.7292 36.0581 14.7002 36.1822 14.5737C36.338 14.4151 36.338 14.1582 36.1822 13.9994L34.9903 12.7867H34.7037C34.2403 12.7867 33.8646 13.169 33.8646 13.6409Z" fill="#FFD0AF"/>
<path d="M34.5054 13.7866H33.0254L33.673 13.0151C33.7946 12.8704 33.9724 12.7868 34.1598 12.7868H34.9906V13.2929C34.9906 13.5655 34.7733 13.7866 34.5054 13.7866Z" fill="#FFAF94"/>
<path d="M40.1635 16.7878C39.8319 16.3876 39.7612 15.8569 39.9228 15.3971C40.3955 15.3131 40.8975 15.4738 41.2289 15.8744C41.5121 16.2165 41.5942 16.6514 41.5144 17.0585C41.6126 17.2281 41.7326 17.4463 41.8646 17.7039C41.8712 17.6673 41.8698 17.631 41.88 17.5943C41.9959 17.1798 42.3189 16.8863 42.7017 16.787C42.9758 17.0765 43.0991 17.4991 42.9832 17.9135C42.8837 18.2701 42.6267 18.5285 42.3143 18.6594C42.4377 18.9474 42.5598 19.2581 42.6739 19.5859C42.6804 19.5667 42.6809 19.5471 42.6886 19.5281C42.8486 19.129 43.2016 18.8737 43.5927 18.8178C43.8337 19.1361 43.9105 19.5699 43.7507 19.969C43.6106 20.3181 43.3202 20.5484 42.9883 20.64C43.1592 21.326 43.2724 22.0539 43.2724 22.7866H42.7809C42.7809 22.148 42.6846 21.5084 42.5391 20.8965C42.2359 20.9961 41.8971 20.9748 41.6038 20.7921C41.246 20.569 41.0572 20.1769 41.066 19.7788C41.4107 19.59 41.8397 19.5829 42.1975 19.8062C42.2105 19.8142 42.2191 19.8259 42.2316 19.8344C42.1263 19.5266 42.0143 19.2347 41.8992 18.9608C41.6043 19.1026 41.2572 19.1244 40.9388 18.9723C40.5589 18.7906 40.3289 18.4221 40.2945 18.0255C40.6155 17.7998 41.0397 17.7453 41.4183 17.9245C41.2831 17.6599 41.161 17.4383 41.0653 17.2729C40.7269 17.2332 40.4009 17.0746 40.1635 16.7878Z" fill="#8CB400"/>
<path d="M31.7828 16.7879C32.1144 16.3877 32.1851 15.857 32.0235 15.3972C31.5508 15.3132 31.0488 15.4739 30.7174 15.8745C30.4342 16.2166 30.3521 16.6515 30.4319 17.0585C30.3337 17.2282 30.2137 17.4464 30.0817 17.704C30.0751 17.6674 30.0765 17.6311 30.0663 17.5944C29.9504 17.1799 29.6274 16.8864 29.2446 16.7871C28.9705 17.0766 28.8472 17.4992 28.9631 17.9136C29.0626 18.2702 29.3196 18.5286 29.632 18.6595C29.5086 18.9475 29.3865 19.2582 29.2724 19.586C29.2659 19.5668 29.2654 19.5472 29.2577 19.5282C29.0977 19.1291 28.7447 18.8738 28.3536 18.8179C28.1126 19.1362 28.0358 19.57 28.1958 19.9691C28.3358 20.3182 28.6263 20.5485 28.9581 20.6401C28.7872 21.3261 28.6741 22.054 28.6741 22.7867H29.1655C29.1655 22.1481 29.2619 21.5085 29.4073 20.8966C29.7106 20.9962 30.0493 20.9749 30.3426 20.7922C30.7006 20.5691 30.8893 20.177 30.8805 19.7789C30.5358 19.59 30.1068 19.583 29.749 19.8063C29.736 19.8143 29.7274 19.826 29.7149 19.8344C29.8202 19.5267 29.9322 19.2348 30.0472 18.9609C30.3422 19.1027 30.6893 19.1245 31.0077 18.9724C31.3876 18.7907 31.6175 18.4222 31.6519 18.0256C31.3309 17.7999 30.9067 17.7454 30.5281 17.9246C30.6633 17.66 30.7854 17.4384 30.8811 17.273C31.2194 17.2333 31.5454 17.0747 31.7828 16.7879Z" fill="#8CB400"/>
<path d="M35.9731 27.7855L25.655 18.7863V31.8105C25.655 34.0056 27.4038 35.7848 29.5608 35.7848C30.5257 35.7848 31.4565 35.4214 32.1738 34.7647L35.9731 31.2854V27.7855Z" fill="#FFE15A"/>
<path d="M30.5304 32.9064L33.5164 30.1719V25.6428L28.1117 20.9289V24.2215V31.8104C28.1117 32.6234 28.7618 33.285 29.5608 33.285C29.9196 33.285 30.2638 33.1506 30.5304 32.9064Z" fill="#D80027"/>
<path d="M32.0424 24.3573V29.5054L29.5858 31.7626V24.1902V22.2148L28.1117 20.9291V24.2216V31.8106C28.1117 32.6236 28.7618 33.2852 29.5608 33.2852C29.9194 33.2852 30.2638 33.1508 30.5304 32.9066L33.5164 30.172V25.643L32.0424 24.3573Z" fill="#0052B4"/>
<path d="M35.9733 27.7855L46.2915 18.7863V31.8105C46.2915 34.0056 44.5426 35.7848 42.3857 35.7848C41.4208 35.7848 40.4899 35.4214 39.7727 34.7647L35.9733 31.2854V27.7855Z" fill="#FFE15A"/>
<path d="M41.416 32.9064L38.43 30.1719V25.6428L43.8347 20.9289V24.2215V31.8104C43.8347 32.6234 43.1846 33.285 42.3856 33.285C42.0267 33.285 41.6826 33.1506 41.416 32.9064Z" fill="#D80027"/>
<path d="M39.904 24.3573V29.5054L42.3606 31.7626V24.1902V22.2148L43.8347 20.9291V24.2216V31.8106C43.8347 32.6236 43.1846 33.2852 42.3856 33.2852C42.027 33.2852 41.6826 33.1508 41.416 32.9066L38.43 30.172V25.643L39.904 24.3573Z" fill="#0052B4"/>
<path d="M35.9734 31.7853C38.687 31.7853 40.8868 28.4275 40.8868 24.2854C40.8868 20.1433 38.687 16.7855 35.9734 16.7855C33.2598 16.7855 31.0599 20.1433 31.0599 24.2854C31.0599 28.4275 33.2598 31.7853 35.9734 31.7853Z" fill="#69C3FF"/>
<path d="M31.5512 26.2857H40.3953L40.8867 24.286L38.6475 24.6658C38.1983 24.7421 37.7389 24.6118 37.3931 24.3102L34.8513 22.0933C34.6243 21.8952 34.3348 21.7862 34.0357 21.7862C33.7033 21.7862 33.3844 21.9206 33.1495 22.1598L31.5512 23.7861V26.2857Z" fill="#009B64"/>
<path d="M35.5074 23.9499L36.3514 23.4012L34.8513 22.093C34.6243 21.8949 34.3348 21.7859 34.0357 21.7859C33.7034 21.7859 33.3844 21.9203 33.1495 22.1594L31.5512 23.7858V24.2858L34.0079 23.7858L34.4422 24.0067C34.7827 24.18 35.1871 24.1582 35.5074 23.9499Z" fill="#F5F5F5"/>
<path d="M31.5512 26.2857L32.0425 29.2853L34.4991 31.7852H35.9733L37.9385 31.2854L39.904 29.2853L40.3953 26.2857H31.5512Z" fill="#5AA0E6"/>
<path d="M35.9731 32.2851C32.9928 32.2851 30.5684 28.6965 30.5684 24.2856C30.5684 19.8748 32.9928 16.2862 35.9731 16.2862C38.9533 16.2862 41.3778 19.8748 41.3778 24.2856C41.3778 28.6965 38.9533 32.2851 35.9731 32.2851ZM35.9731 17.2865C33.535 17.2865 31.551 20.4264 31.551 24.286C31.551 28.1455 33.5348 31.2855 35.9731 31.2855C38.4113 31.2855 40.3951 28.1455 40.3951 24.286C40.3951 20.4264 38.4112 17.2865 35.9731 17.2865Z" fill="#FFC88C"/>
<path d="M32.507 31.7403C32.0951 31.1616 31.4819 30.7853 30.7874 30.7853C30.093 30.7853 29.4798 31.1616 29.0679 31.7403C29.7703 31.9385 30.3451 32.5188 30.6173 33.2838C30.727 33.5918 30.7876 33.9299 30.7876 34.2851C30.7874 33.0483 31.5218 32.0182 32.507 31.7403Z" fill="#E1E1E1"/>
<path d="M31.1782 33.3176C31.1782 33.3176 31.1399 33.9843 30.8039 34.2967L30.7898 34.285C30.4539 33.9725 30.4155 33.3059 30.4155 33.3059L31.1782 33.3176Z" fill="#E1E1E1"/>
<path d="M42.1183 33.535H29.8287C29.6946 33.535 29.5861 33.4244 29.5861 33.2881V33.2819C29.5861 33.1455 29.6948 33.0351 29.8287 33.0351H42.1183C42.2524 33.0351 42.3609 33.1456 42.3609 33.2819V33.2881C42.3609 33.4244 42.2524 33.535 42.1183 33.535Z" fill="#966446"/>
<path d="M38.4421 34.2849H33.5045C32.9684 34.2849 32.5338 33.8427 32.5338 33.2972V33.2726C32.5338 32.7272 32.9684 32.2849 33.5045 32.2849H38.4421C38.9781 32.2849 39.4128 32.7272 39.4128 33.2726V33.2972C39.4126 33.8427 38.978 34.2849 38.4421 34.2849Z" fill="#BE915A"/>
<path d="M31.5513 33.0351H29.8317C29.6962 33.0351 29.5861 33.1469 29.5861 33.285C29.5861 33.4231 29.696 33.535 29.8317 33.535H31.5513V33.0351Z" fill="#B9B9B9"/>
<path d="M35.9734 34.285V38.853L34.0082 38.2847L34.9908 34.285H35.9734Z" fill="#D80027"/>
<path d="M35.4817 34.285L34.499 37.7848L32.5338 37.2848L34.0079 34.285H35.4817Z" fill="#0052B4"/>
<path d="M33.5163 34.285L32.0422 36.2848L33.5163 36.7847L34.4988 34.285H33.5163Z" fill="#FFE15A"/>
<path d="M35.9733 34.285V38.853L37.9385 38.2847L36.956 34.285H35.9733Z" fill="#D80027"/>
<path d="M36.4649 34.285L37.4476 37.7848L39.4128 37.2848L37.9387 34.285H36.4649Z" fill="#0052B4"/>
<path d="M38.4297 34.285L39.9038 36.2848L38.4297 36.7847L37.4472 34.285H38.4297Z" fill="#FFE15A"/>
<path d="M26.0085 23.0921L25.3022 22.3678V18.7858H26.0085V23.0921Z" fill="#0052B4"/>
<path d="M46.6395 22.368L45.9332 23.0923V18.7859H46.6395V22.368Z" fill="#0052B4"/>
</g>
</g>
</g>
<defs>
<clipPath id="clip0_301_29387">
<rect width="72" height="54" fill="white"/>
</clipPath>
<clipPath id="clip1_301_29387">
<rect width="81" height="54" fill="white" transform="translate(-4.5)"/>
</clipPath>
</defs>
</svg>
