<svg width="72" height="54" viewBox="0 0 72 54" fill="none" xmlns="http://www.w3.org/2000/svg">
<g clip-path="url(#clip0_301_29663)">
<mask id="mask0_301_29663" style="mask-type:alpha" maskUnits="userSpaceOnUse" x="0" y="0" width="72" height="54">
<rect x="0.5" y="0.5" width="71" height="53" fill="#D9D9D9" stroke="black"/>
</mask>
<g mask="url(#mask0_301_29663)">
<g clip-path="url(#clip1_301_29663)">
<path d="M-4.5 0.0379333H76.3421V54.038H-4.5V0.0379333Z" fill="white"/>
<path d="M-4.5 0H76.5V14.4H-4.5V0ZM-4.5 39.6H76.5V54.0001H-4.5V39.6Z" fill="#D03433"/>
<path d="M-4.5 14.3684H76.5V39.6316H-4.5V14.3684Z" fill="#FBCA46"/>
<path d="M29.0618 27.6072L30.0949 22.9586C30.1901 22.5305 29.8643 22.1244 29.4256 22.1244H28.698C28.2595 22.1244 27.9338 22.5305 28.0288 22.9586L29.0618 27.6072Z" fill="#A41517"/>
<path d="M30.2805 25.1698H27.8438V35.5253H30.2805V25.1698Z" fill="#F5F5F5"/>
<path d="M30.889 23.9524H27.2338V25.1708H30.889V23.9524Z" fill="#FFA517"/>
<path d="M30.8938 27.6073H24.8017V28.8257H30.8938V27.6073Z" fill="#A41517"/>
<path d="M30.8945 32.4807L27.2393 31.2624V30.044L30.8945 31.2624V32.4807Z" fill="#A41517"/>
<path d="M10.791 27.6072L11.8241 22.9586C11.9193 22.5305 11.5934 22.1244 11.1548 22.1244H10.4272C9.9887 22.1244 9.66298 22.5305 9.75794 22.9586L10.791 27.6072Z" fill="#A41517"/>
<path d="M15.0536 23.9524C14.3807 23.9524 13.8352 24.498 13.8352 25.1708V33.0901C13.8352 34.5704 15.2167 37.3545 19.927 37.3545C24.6373 37.3545 26.0188 34.5705 26.0188 33.0901V25.1708C26.0188 24.498 25.4732 23.9524 24.8004 23.9524H15.0536V23.9524Z" fill="#F5F5F5"/>
<path d="M19.9269 30.0442H13.8351V25.1708C13.8351 24.498 14.3807 23.9524 15.0535 23.9524H19.9269V30.0442Z" fill="#A41517"/>
<path d="M19.9273 30.0444H26.0192V33.0903C26.0192 34.7726 24.6555 36.1362 22.9732 36.1362C21.291 36.1362 19.9273 34.7726 19.9273 33.0903V30.0444V30.0444Z" fill="#A41517"/>
<path d="M13.8352 30.0439H19.927V33.0898C19.927 34.7721 18.5634 36.1358 16.8811 36.1358C15.1988 36.1358 13.8352 34.7721 13.8352 33.0898V30.0439V30.0439Z" fill="#FFA517"/>
<path d="M18.7057 35.5128V30.0438H17.4872V36.0743C17.9405 35.9823 18.35 35.7817 18.7057 35.5128Z" fill="#A41517"/>
<path d="M16.268 36.0742V30.0438H15.0496V35.5128C15.4054 35.7816 15.8149 35.9823 16.268 36.0742Z" fill="#A41517"/>
<path d="M18.7076 27.6071H15.0524V28.8256H18.7076V27.6071Z" fill="#FFB441"/>
<path d="M18.7077 25.1697H15.0526V26.3881H18.7077V25.1697Z" fill="#FFA517"/>
<path d="M18.0965 25.8943H15.6598V28.1014H18.0965V25.8943Z" fill="#FFA517"/>
<path d="M12.0042 25.1698H9.56749V35.5253H12.0042V25.1698Z" fill="#F5F5F5"/>
<path d="M12.6125 34.9179H8.9574V36.1363H12.6125V34.9179Z" fill="#FFA517"/>
<path d="M12.6125 23.9524H8.95739V25.1708H12.6125V23.9524Z" fill="#FFA517"/>
<path d="M13.2236 36.1352H8.3502V37.3537H13.2236V36.1352Z" fill="#2649C6"/>
<path d="M31.499 34.9179H27.8438V36.1363H31.499V34.9179Z" fill="#FFA517"/>
<path d="M31.5 36.1352H26.6266V37.3537H31.5V36.1352Z" fill="#2649C6"/>
<path d="M23.5796 22.7337H16.2694V23.9521H23.5796V22.7337Z" fill="#FFA517"/>
<path d="M20.5355 19.079H19.317V22.7342H20.5355V19.079Z" fill="#FFB441"/>
<path d="M18.7075 20.9065C17.6997 20.9065 16.88 20.0867 16.88 19.079C16.88 18.0712 17.6998 17.2515 18.7075 17.2515C19.7153 17.2515 20.535 18.0714 20.535 19.079C20.5351 20.0867 19.7153 20.9065 18.7075 20.9065ZM18.7075 18.4698C18.3714 18.4698 18.0983 18.7428 18.0983 19.079C18.0983 19.4151 18.3713 19.6883 18.7075 19.6883C19.0437 19.6883 19.3167 19.4153 19.3167 19.079C19.3167 18.743 19.0437 18.4698 18.7075 18.4698Z" fill="#F5F5F5"/>
<path d="M21.1448 20.9065C20.137 20.9065 19.3173 20.0867 19.3173 19.079C19.3173 18.0712 20.1371 17.2515 21.1448 17.2515C22.1526 17.2515 22.9723 18.0714 22.9723 19.079C22.9723 20.0867 22.1525 20.9065 21.1448 20.9065ZM21.1448 18.4698C20.8087 18.4698 20.5356 18.7428 20.5356 19.079C20.5356 19.4151 20.8086 19.6883 21.1448 19.6883C21.4809 19.6883 21.754 19.4153 21.754 19.079C21.7539 18.743 21.4809 18.4698 21.1448 18.4698Z" fill="#F5F5F5"/>
<path d="M23.5794 22.1252C22.5716 22.1252 21.7519 21.3054 21.7519 20.2978C21.7519 19.2899 22.5717 18.4703 23.5794 18.4703C24.5872 18.4703 25.4069 19.2901 25.4069 20.2978C25.4069 21.3054 24.587 22.1252 23.5794 22.1252ZM23.5794 19.6885C23.2433 19.6885 22.9702 19.9615 22.9702 20.2978C22.9702 20.6338 23.2432 20.907 23.5794 20.907C23.9154 20.907 24.1886 20.634 24.1886 20.2978C24.1886 19.9615 23.9154 19.6885 23.5794 19.6885Z" fill="#F5F5F5"/>
<path d="M16.2698 22.1252C15.262 22.1252 14.4424 21.3054 14.4424 20.2978C14.4424 19.2899 15.2622 18.4703 16.2698 18.4703C17.2777 18.4703 18.0973 19.2901 18.0973 20.2978C18.0975 21.3054 17.2777 22.1252 16.2698 22.1252ZM16.2698 19.6885C15.9338 19.6885 15.6606 19.9615 15.6606 20.2978C15.6606 20.6338 15.9336 20.907 16.2698 20.907C16.6061 20.907 16.8791 20.6338 16.8791 20.2976C16.8791 19.9615 16.6061 19.6885 16.2698 19.6885Z" fill="#F5F5F5"/>
<path d="M23.5812 32.4809V33.0901C23.5812 33.4261 23.3079 33.6993 22.972 33.6993C22.636 33.6993 22.3628 33.4261 22.3628 33.0901V32.4809H23.5812ZM24.7995 31.2626H21.1443V33.0901C21.1443 34.0979 21.9642 34.9176 22.9718 34.9176C23.9796 34.9176 24.7993 34.0978 24.7993 33.0901V31.2626H24.7995Z" fill="#FFA517"/>
<path d="M22.97 28.8256C22.2972 28.8256 21.7516 28.28 21.7516 27.6072V26.3888C21.7516 25.7159 22.2972 25.1703 22.97 25.1703C23.6429 25.1703 24.1884 25.7159 24.1884 26.3888V27.6072C24.1884 28.28 23.6429 28.8256 22.97 28.8256Z" fill="#FFA0D2"/>
<path d="M19.9245 31.8708C20.9338 31.8708 21.752 31.0526 21.752 30.0433C21.752 29.034 20.9338 28.2159 19.9245 28.2159C18.9152 28.2159 18.097 29.034 18.097 30.0433C18.097 31.0526 18.9152 31.8708 19.9245 31.8708Z" fill="#2649C6"/>
<path d="M20.5355 16.6416H19.317V20.2967H20.5355V16.6416Z" fill="#FFA517"/>
<path d="M16.2709 22.7341L15.0524 21.5157L15.7661 20.802C16.8693 19.6989 18.3657 19.079 19.926 19.079C21.4863 19.079 22.9825 19.6989 24.0858 20.802L24.7995 21.5157L23.5811 22.7341H16.2709Z" fill="#A41517"/>
<path d="M19.9231 22.124C20.2596 22.124 20.5323 21.8513 20.5323 21.5148C20.5323 21.1784 20.2596 20.9056 19.9231 20.9056C19.5866 20.9056 19.3139 21.1784 19.3139 21.5148C19.3139 21.8513 19.5866 22.124 19.9231 22.124Z" fill="#FFD250"/>
<path d="M17.4858 22.124C17.8223 22.124 18.095 21.8512 18.095 21.5148C18.095 21.1783 17.8223 20.9056 17.4858 20.9056C17.1493 20.9056 16.8766 21.1783 16.8766 21.5148C16.8766 21.8512 17.1493 22.124 17.4858 22.124Z" fill="#FFD250"/>
<path d="M22.3604 22.124C22.6969 22.124 22.9696 21.8513 22.9696 21.5148C22.9696 21.1784 22.6969 20.9056 22.3604 20.9056C22.0239 20.9056 21.7512 21.1784 21.7512 21.5148C21.7512 21.8513 22.0239 22.124 22.3604 22.124Z" fill="#FFD250"/>
<path d="M15.0495 27.607H8.95739V28.8254H15.0495V27.607Z" fill="#A41517"/>
<path d="M8.9574 32.4804L12.6124 31.2621V30.0437L8.9574 31.2621V32.4804Z" fill="#A41517"/>
</g>
</g>
</g>
<defs>
<clipPath id="clip0_301_29663">
<rect width="72" height="54" fill="white"/>
</clipPath>
<clipPath id="clip1_301_29663">
<rect width="81" height="54" fill="white" transform="translate(-4.5)"/>
</clipPath>
</defs>
</svg>
