<svg width="72" height="54" viewBox="0 0 72 54" fill="none" xmlns="http://www.w3.org/2000/svg">
<g clip-path="url(#clip0_301_29424)">
<mask id="mask0_301_29424" style="mask-type:alpha" maskUnits="userSpaceOnUse" x="0" y="0" width="72" height="54">
<rect x="0.5" y="0.5" width="71" height="53" fill="#D9D9D9" stroke="black"/>
</mask>
<g mask="url(#mask0_301_29424)">
<g clip-path="url(#clip1_301_29424)">
<path d="M-4.65789 0H76.5V54H-4.65789V0Z" fill="white"/>
<path d="M-4.5 0H76.5V18H-4.5V0Z" fill="#6DA544"/>
<path d="M-4.28205 17.0526H-4.26997C-4.14961 17.0526 -4.05201 16.9517 -4.05201 16.8269V16.3381C-4.05201 16.2135 -3.95457 16.1124 -3.83406 16.1124H-2.91973C-2.79938 16.1124 -2.70178 16.2133 -2.70178 16.3381V16.8269C-2.70178 16.9516 -2.60434 17.0526 -2.48383 17.0526H-0.679022C-0.55867 17.0526 -0.46107 16.9517 -0.46107 16.8269V15.862C-0.46107 15.7374 -0.558513 15.6363 -0.679022 15.6363H-1.58755C-1.7079 15.6363 -1.8055 15.7372 -1.8055 15.862V15.8867C-1.8055 16.0113 -1.70805 16.1124 -1.58755 16.1124H-1.12701C-1.00666 16.1124 -0.909056 16.2133 -0.909056 16.3381V16.3627C-0.909056 16.4873 -1.0065 16.5884 -1.12701 16.5884H-2.03584C-2.1562 16.5884 -2.2538 16.4875 -2.2538 16.3627V15.862C-2.2538 15.7374 -2.35124 15.6363 -2.47175 15.6363H-4.28205C-4.4024 15.6363 -4.5 15.7372 -4.5 15.862V16.8269C-4.5 16.9514 -4.40256 17.0526 -4.28205 17.0526ZM-3.38011 17.0526H-3.36772C-3.24737 17.0526 -3.14977 16.9517 -3.14977 16.8269V16.8141C-3.14977 16.6894 -3.24721 16.5884 -3.36772 16.5884H-3.38011C-3.50047 16.5884 -3.59807 16.6893 -3.59807 16.8141V16.8269C-3.59807 16.9514 -3.50047 17.0526 -3.38011 17.0526ZM-4.28205 15.1603H1.11935C1.23971 15.1603 1.3373 15.0594 1.3373 14.9346V14.9099C1.3373 14.7853 1.23986 14.6842 1.11935 14.6842H-4.28205C-4.4024 14.6842 -4.5 14.7851 -4.5 14.9099V14.9346C-4.5 15.0594 -4.40256 15.1603 -4.28205 15.1603ZM1.1192 17.0526H0.210673C0.0903206 17.0526 -0.00727901 16.9517 -0.00727901 16.8269V15.862C-0.00727901 15.7374 0.0901637 15.6363 0.210673 15.6363H1.56765C1.688 15.6363 1.7856 15.5354 1.7856 15.4106V14.9099C1.7856 14.7853 1.88305 14.6842 2.00356 14.6842H2.01564C2.13599 14.6842 2.23359 14.7851 2.23359 14.9099V16.3627C2.23359 16.4873 2.33103 16.5884 2.45154 16.5884H2.46394C2.58429 16.5884 2.68189 16.4875 2.68189 16.3627V14.9099C2.68189 14.7853 2.77933 14.6842 2.89984 14.6842H2.91192C3.03227 14.6842 3.12987 14.7851 3.12987 14.9099V16.3627C3.12987 16.4873 3.22732 16.5884 3.34783 16.5884H3.36587C3.48622 16.5884 3.58382 16.4875 3.58382 16.3627V14.9099C3.58382 14.7853 3.68127 14.6842 3.80177 14.6842H3.80836C3.92872 14.6842 4.02632 14.7851 4.02632 14.9099V16.8269C4.02632 16.9516 3.92887 17.0526 3.80836 17.0526H2.00356C1.8832 17.0526 1.7856 16.9517 1.7856 16.8269V16.3381C1.7856 16.2135 1.68816 16.1124 1.56765 16.1124H0.659129C0.538777 16.1124 0.441177 16.2133 0.441177 16.3381V16.3627C0.441177 16.4873 0.53862 16.5884 0.659129 16.5884H1.11935C1.23971 16.5884 1.3373 16.6893 1.3373 16.8141V16.8269C1.3373 16.9514 1.23955 17.0526 1.1192 17.0526Z" fill="white"/>
<path d="M4.72198 17.0526H4.74035C4.86293 17.0526 4.96233 16.9517 4.96233 16.8269V16.3381C4.96233 16.2135 5.06157 16.1124 5.1843 16.1124H6.10385C6.22642 16.1124 6.32582 16.2133 6.32582 16.3381V16.8269C6.32582 16.9516 6.42507 17.0526 6.5478 17.0526H8.38593C8.5085 17.0526 8.6079 16.9517 8.6079 16.8269V15.862C8.6079 15.7374 8.50866 15.6363 8.38593 15.6363H7.46063C7.33806 15.6363 7.23866 15.7372 7.23866 15.862V15.8867C7.23866 16.0113 7.3379 16.1124 7.46063 16.1124H7.92967C8.05225 16.1124 8.15165 16.2133 8.15165 16.3381V16.3627C8.15165 16.4873 8.05241 16.5884 7.92967 16.5884H7.00438C6.8818 16.5884 6.7824 16.4875 6.7824 16.3627V15.862C6.7824 15.7374 6.68316 15.6363 6.56043 15.6363H4.72198C4.5994 15.6363 4.5 15.7372 4.5 15.862V16.8269C4.50016 16.9514 4.59956 17.0526 4.72198 17.0526ZM5.63497 17.0526H5.64727C5.76985 17.0526 5.86925 16.9517 5.86925 16.8269V16.8141C5.86925 16.6894 5.77001 16.5884 5.64727 16.5884H5.63497C5.51239 16.5884 5.41299 16.6893 5.41299 16.8141V16.8269C5.41315 16.9514 5.51239 17.0526 5.63497 17.0526ZM4.72198 15.1603H10.2175C10.3401 15.1603 10.4395 15.0594 10.4395 14.9346V14.9099C10.4395 14.7853 10.3402 14.6842 10.2175 14.6842H4.72198C4.5994 14.6842 4.5 14.7851 4.5 14.9099V14.9346C4.50016 15.0594 4.59956 15.1603 4.72198 15.1603ZM10.2175 17.0526H9.2863C9.16372 17.0526 9.06432 16.9517 9.06432 16.8269V15.862C9.06432 15.7374 9.16356 15.6363 9.2863 15.6363H10.6683C10.7909 15.6363 10.8903 15.5354 10.8903 15.4106V14.9099C10.8903 14.7853 10.9895 14.6842 11.1123 14.6842H11.1307C11.2532 14.6842 11.3526 14.7851 11.3526 14.9099V16.3627C11.3526 16.4873 11.4519 16.5884 11.5746 16.5884H11.593C11.7156 16.5884 11.815 16.4875 11.815 16.3627V14.9099C11.815 14.7853 11.9142 14.6842 12.0369 14.6842H12.0437C12.1662 14.6842 12.2656 14.7851 12.2656 14.9099V16.3627C12.2656 16.4873 12.3649 16.5884 12.4876 16.5884H12.506C12.6286 16.5884 12.728 16.4875 12.728 16.3627V14.9099C12.728 14.7853 12.8272 14.6842 12.9499 14.6842H12.9622C13.0848 14.6842 13.1842 14.7851 13.1842 14.9099V16.8269C13.1842 16.9516 13.085 17.0526 12.9622 17.0526H11.1126C10.99 17.0526 10.8906 16.9517 10.8906 16.8269V16.3381C10.8906 16.2135 10.7914 16.1124 10.6686 16.1124H9.7491C9.62653 16.1124 9.52713 16.2133 9.52713 16.3381V16.3627C9.52713 16.4873 9.62637 16.5884 9.7491 16.5884H10.2181C10.3407 16.5884 10.4401 16.6893 10.4401 16.8141V16.8269C10.4393 16.9514 10.3401 17.0526 10.2175 17.0526Z" fill="white"/>
<path d="M13.8758 17.0526H13.8879C14.0083 17.0526 14.1059 16.9517 14.1059 16.8269V16.3381C14.1059 16.2135 14.2033 16.1124 14.3238 16.1124H15.2326C15.353 16.1124 15.4506 16.2133 15.4506 16.3381V16.8269C15.4506 16.9516 15.548 17.0526 15.6685 17.0526H17.479C17.5993 17.0526 17.6969 16.9517 17.6969 16.8269V15.862C17.6969 15.7374 17.5995 15.6363 17.479 15.6363H16.5705C16.4501 15.6363 16.3525 15.7372 16.3525 15.862V15.8867C16.3525 16.0113 16.4499 16.1124 16.5705 16.1124H17.031C17.1513 16.1124 17.2489 16.2133 17.2489 16.3381V16.3627C17.2489 16.4873 17.1515 16.5884 17.031 16.5884H16.1167C15.9963 16.5884 15.8987 16.4875 15.8987 16.3627V15.862C15.8987 15.7374 15.8013 15.6363 15.6808 15.6363H13.876C13.7556 15.6363 13.6581 15.7372 13.6581 15.862V16.8269C13.6577 16.9514 13.7555 17.0526 13.8758 17.0526ZM14.7721 17.0526H14.7842C14.9045 17.0526 15.0021 16.9517 15.0021 16.8269V16.8141C15.0021 16.6894 14.9047 16.5884 14.7842 16.5884H14.7721C14.6518 16.5884 14.5542 16.6893 14.5542 16.8141V16.8269C14.5542 16.9514 14.6518 17.0526 14.7721 17.0526ZM13.8758 15.1603H19.2773C19.3977 15.1603 19.4952 15.0594 19.4952 14.9346V14.9099C19.4952 14.7853 19.3978 14.6842 19.2773 14.6842H13.8758C13.7555 14.6842 13.6579 14.7851 13.6579 14.9099V14.9346C13.6577 15.0594 13.7555 15.1603 13.8758 15.1603ZM19.2773 17.0526H18.363C18.2426 17.0526 18.145 16.9517 18.145 16.8269V15.862C18.145 15.7374 18.2425 15.6363 18.363 15.6363H19.7196C19.84 15.6363 19.9376 15.5354 19.9376 15.4106V14.9099C19.9376 14.7853 20.035 14.6842 20.1555 14.6842H20.1679C20.2883 14.6842 20.3859 14.7851 20.3859 14.9099V16.3627C20.3859 16.4873 20.4833 16.5884 20.6038 16.5884H20.6219C20.7422 16.5884 20.8398 16.4875 20.8398 16.3627V14.9099C20.8398 14.7853 20.9372 14.6842 21.0578 14.6842H21.0758C21.1961 14.6842 21.2937 14.7851 21.2937 14.9099V16.3627C21.2937 16.4873 21.3912 16.5884 21.5117 16.5884H21.5183C21.6386 16.5884 21.7362 16.4875 21.7362 16.3627V14.9099C21.7362 14.7853 21.8337 14.6842 21.9542 14.6842H21.9663C22.0866 14.6842 22.1842 14.7851 22.1842 14.9099V16.8269C22.1842 16.9516 22.0868 17.0526 21.9663 17.0526H20.1555C20.0352 17.0526 19.9376 16.9517 19.9376 16.8269V16.3381C19.9376 16.2135 19.8401 16.1124 19.7196 16.1124H18.8111C18.6908 16.1124 18.5932 16.2133 18.5932 16.3381V16.3627C18.5932 16.4873 18.6906 16.5884 18.8111 16.5884H19.2776C19.398 16.5884 19.4956 16.6893 19.4956 16.8141V16.8269C19.4952 16.9514 19.3977 17.0526 19.2773 17.0526Z" fill="white"/>
<path d="M22.8758 17.0526H22.8879C23.0083 17.0526 23.1059 16.9517 23.1059 16.8269V16.3381C23.1059 16.2135 23.2033 16.1124 23.3238 16.1124H24.2323C24.3526 16.1124 24.4502 16.2133 24.4502 16.3381V16.8269C24.4502 16.9516 24.5477 17.0526 24.6682 17.0526H26.4789C26.5992 17.0526 26.6968 16.9517 26.6968 16.8269V15.862C26.6968 15.7374 26.5994 15.6363 26.4789 15.6363H25.5646C25.4443 15.6363 25.3467 15.7372 25.3467 15.862V15.8867C25.3467 16.0113 25.4441 16.1124 25.5646 16.1124H26.0251C26.1455 16.1124 26.2431 16.2133 26.2431 16.3381V16.3627C26.2431 16.4873 26.1456 16.5884 26.0251 16.5884H25.1166C24.9963 16.5884 24.8987 16.4875 24.8987 16.3627V15.862C24.8987 15.7374 24.8012 15.6363 24.6807 15.6363H22.876C22.7557 15.6363 22.6581 15.7372 22.6581 15.862V16.8269C22.6581 16.9514 22.7557 17.0526 22.8758 17.0526ZM23.7723 17.0526H23.7843C23.9047 17.0526 24.0023 16.9517 24.0023 16.8269V16.8141C24.0023 16.6894 23.9048 16.5884 23.7843 16.5884H23.7723C23.6519 16.5884 23.5543 16.6893 23.5543 16.8141V16.8269C23.5545 16.9514 23.6519 17.0526 23.7723 17.0526ZM22.8758 15.1603H28.2716C28.3919 15.1603 28.4895 15.0594 28.4895 14.9346V14.9099C28.4895 14.7853 28.3921 14.6842 28.2716 14.6842H22.8758C22.7555 14.6842 22.6579 14.7851 22.6579 14.9099V14.9346C22.6581 15.0594 22.7557 15.1603 22.8758 15.1603ZM28.2716 17.0526H27.3573C27.2369 17.0526 27.1393 16.9517 27.1393 16.8269V15.862C27.1393 15.7374 27.2368 15.6363 27.3573 15.6363H28.7256C28.846 15.6363 28.9436 15.5354 28.9436 15.4106V14.9099C28.9436 14.7853 29.041 14.6842 29.1615 14.6842H29.1736C29.294 14.6842 29.3916 14.7851 29.3916 14.9099V16.3627C29.3916 16.4873 29.489 16.5884 29.6095 16.5884H29.6161C29.7364 16.5884 29.834 16.4875 29.834 16.3627V14.9099C29.834 14.7853 29.9315 14.6842 30.052 14.6842H30.07C30.1904 14.6842 30.288 14.7851 30.288 14.9099V16.3627C30.288 16.4873 30.3854 16.5884 30.5059 16.5884H30.5183C30.6387 16.5884 30.7362 16.4875 30.7362 16.3627V14.9099C30.7362 14.7853 30.8337 14.6842 30.9542 14.6842H30.9663C31.0866 14.6842 31.1842 14.7851 31.1842 14.9099V16.8269C31.1842 16.9516 31.0868 17.0526 30.9663 17.0526H29.1607C29.0404 17.0526 28.9428 16.9517 28.9428 16.8269V16.3381C28.9428 16.2135 28.8454 16.1124 28.7249 16.1124H27.8106C27.6902 16.1124 27.5926 16.2133 27.5926 16.3381V16.3627C27.5926 16.4873 27.6901 16.5884 27.8106 16.5884H28.2711C28.3914 16.5884 28.489 16.6893 28.489 16.8141V16.8269C28.4893 16.9514 28.3919 17.0526 28.2716 17.0526Z" fill="white"/>
<path d="M31.8799 17.0526H31.8925C32.0151 17.0526 32.1145 16.9517 32.1145 16.8269V16.3381C32.1145 16.2135 32.2137 16.1124 32.3365 16.1124H33.2618C33.3844 16.1124 33.4838 16.2133 33.4838 16.3381V16.8269C33.4838 16.9516 33.583 17.0526 33.7057 17.0526H35.55C35.6725 17.0526 35.772 16.9517 35.772 16.8269V15.862C35.772 15.7374 35.6727 15.6363 35.55 15.6363H34.6187C34.4962 15.6363 34.3968 15.7372 34.3968 15.862V15.8867C34.3968 16.0113 34.496 16.1124 34.6187 16.1124H35.0934C35.216 16.1124 35.3154 16.2133 35.3154 16.3381V16.3627C35.3154 16.4873 35.2161 16.5884 35.0934 16.5884H34.1681C34.0455 16.5884 33.9461 16.4875 33.9461 16.3627V15.862C33.9461 15.7374 33.8469 15.6363 33.7241 15.6363H31.8799C31.7573 15.6363 31.6579 15.7372 31.6579 15.862V16.8269C31.6581 16.9514 31.7573 17.0526 31.8799 17.0526ZM32.7988 17.0526H32.8055C32.9281 17.0526 33.0275 16.9517 33.0275 16.8269V16.8141C33.0275 16.6894 32.9282 16.5884 32.8055 16.5884H32.7988C32.6762 16.5884 32.5768 16.6893 32.5768 16.8141V16.8269C32.5768 16.9514 32.6762 17.0526 32.7988 17.0526ZM31.8799 15.1603H37.3814C37.504 15.1603 37.6034 15.0594 37.6034 14.9346V14.9099C37.6034 14.7853 37.5042 14.6842 37.3814 14.6842H31.8799C31.7573 14.6842 31.6579 14.7851 31.6579 14.9099V14.9346C31.6581 15.0594 31.7573 15.1603 31.8799 15.1603ZM37.3816 17.0526H36.4504C36.3278 17.0526 36.2284 16.9517 36.2284 16.8269V15.862C36.2284 15.7374 36.3276 15.6363 36.4504 15.6363H37.8382C37.9607 15.6363 38.0601 15.5354 38.0601 15.4106V14.9099C38.0601 14.7853 38.1594 14.6842 38.2821 14.6842H38.2944C38.417 14.6842 38.5164 14.7851 38.5164 14.9099V16.3627C38.5164 16.4873 38.6157 16.5884 38.7384 16.5884H38.751C38.8736 16.5884 38.973 16.4875 38.973 16.3627V14.9099C38.973 14.7853 39.0722 14.6842 39.195 14.6842H39.2073C39.3299 14.6842 39.4293 14.7851 39.4293 14.9099V16.3627C39.4293 16.4873 39.5285 16.5884 39.6512 16.5884H39.6635C39.7861 16.5884 39.8855 16.4875 39.8855 16.3627V14.9099C39.8855 14.7853 39.9848 14.6842 40.1075 14.6842H40.1201C40.2427 14.6842 40.3421 14.7851 40.3421 14.9099V16.8269C40.3421 16.9516 40.2429 17.0526 40.1201 17.0526H38.282C38.1594 17.0526 38.06 16.9517 38.06 16.8269V16.3381C38.06 16.2135 37.9607 16.1124 37.838 16.1124H36.9068C36.7842 16.1124 36.6848 16.2133 36.6848 16.3381V16.3627C36.6848 16.4873 36.784 16.5884 36.9068 16.5884H37.3814C37.504 16.5884 37.6034 16.6893 37.6034 16.8141V16.8269C37.6034 16.9514 37.5042 17.0526 37.3816 17.0526Z" fill="white"/>
<path d="M41.0337 17.0526H41.0461C41.1665 17.0526 41.2641 16.9517 41.2641 16.8269V16.3381C41.2641 16.2135 41.3615 16.1124 41.482 16.1124H42.3905C42.5108 16.1124 42.6084 16.2133 42.6084 16.3381V16.8269C42.6084 16.9516 42.7059 17.0526 42.8264 17.0526H44.6371C44.7574 17.0526 44.855 16.9517 44.855 16.8269V15.862C44.855 15.7374 44.7576 15.6363 44.6371 15.6363H43.7283C43.6079 15.6363 43.5103 15.7372 43.5103 15.862V15.8867C43.5103 16.0113 43.6078 16.1124 43.7283 16.1124H44.1832C44.3035 16.1124 44.4011 16.2133 44.4011 16.3381V16.3627C44.4011 16.4873 44.3037 16.5884 44.1832 16.5884H43.2803C43.16 16.5884 43.0624 16.4875 43.0624 16.3627V15.862C43.0624 15.7374 42.9649 15.6363 42.8444 15.6363H41.0337C40.9134 15.6363 40.8158 15.7372 40.8158 15.862V16.8269C40.8158 16.9514 40.9134 17.0526 41.0337 17.0526ZM41.9358 17.0526H41.9424C42.0627 17.0526 42.1603 16.9517 42.1603 16.8269V16.8141C42.1603 16.6894 42.0629 16.5884 41.9424 16.5884H41.9358C41.8154 16.5884 41.7178 16.6893 41.7178 16.8141V16.8269C41.718 16.9514 41.8154 17.0526 41.9358 17.0526ZM41.0337 15.1603H46.4351C46.5554 15.1603 46.653 15.0594 46.653 14.9346V14.9099C46.653 14.7853 46.5556 14.6842 46.4351 14.6842H41.0337C40.9134 14.6842 40.8158 14.7851 40.8158 14.9099V14.9346C40.8158 15.0594 40.9134 15.1603 41.0337 15.1603ZM46.4352 17.0526H45.5268C45.4064 17.0526 45.3088 16.9517 45.3088 16.8269V15.862C45.3088 15.7374 45.4063 15.6363 45.5268 15.6363H46.8834C47.0037 15.6363 47.1013 15.5354 47.1013 15.4106V14.9099C47.1013 14.7853 47.1988 14.6842 47.3193 14.6842H47.3317C47.452 14.6842 47.5496 14.7851 47.5496 14.9099V16.3627C47.5496 16.4873 47.647 16.5884 47.7675 16.5884H47.7796C47.9 16.5884 47.9976 16.4875 47.9976 16.3627V14.9099C47.9976 14.7853 48.095 14.6842 48.2155 14.6842H48.2279C48.3483 14.6842 48.4459 14.7851 48.4459 14.9099V16.3627C48.4459 16.4873 48.5433 16.5884 48.6638 16.5884H48.6759C48.7962 16.5884 48.8938 16.4875 48.8938 16.3627V14.9099C48.8938 14.7853 48.9913 14.6842 49.1118 14.6842H49.1242C49.2445 14.6842 49.3421 14.7851 49.3421 14.9099V16.8269C49.3421 16.9516 49.2447 17.0526 49.1242 17.0526H47.3189C47.1986 17.0526 47.101 16.9517 47.101 16.8269V16.3381C47.101 16.2135 47.0036 16.1124 46.8831 16.1124H45.9689C45.8486 16.1124 45.751 16.2133 45.751 16.3381V16.3627C45.751 16.4873 45.8484 16.5884 45.9689 16.5884H46.4349C46.5553 16.5884 46.6529 16.6893 46.6529 16.8141V16.8269C46.6532 16.9514 46.5554 17.0526 46.4352 17.0526Z" fill="white"/>
<path d="M50.0337 17.0526H50.0461C50.1665 17.0526 50.2641 16.9517 50.2641 16.8269V16.3381C50.2641 16.2135 50.3615 16.1124 50.482 16.1124H51.3962C51.5165 16.1124 51.6141 16.2133 51.6141 16.3381V16.8269C51.6141 16.9516 51.7115 17.0526 51.832 17.0526H53.6373C53.7576 17.0526 53.8552 16.9517 53.8552 16.8269V15.862C53.8552 15.7374 53.7578 15.6363 53.6373 15.6363H52.7284C52.6081 15.6363 52.5105 15.7372 52.5105 15.862V15.8867C52.5105 16.0113 52.6079 16.1124 52.7284 16.1124H53.1949C53.3153 16.1124 53.4129 16.2133 53.4129 16.3381V16.3627C53.4129 16.4873 53.3154 16.5884 53.1949 16.5884H52.2747C52.1543 16.5884 52.0567 16.4875 52.0567 16.3627V15.862C52.0567 15.7374 51.9593 15.6363 51.8388 15.6363H50.034C49.9137 15.6363 49.8161 15.7372 49.8161 15.862V16.8269C49.8159 16.9514 49.9134 17.0526 50.0337 17.0526ZM50.9301 17.0526H50.9482C51.0685 17.0526 51.1661 16.9517 51.1661 16.8269V16.8141C51.1661 16.6894 51.0687 16.5884 50.9482 16.5884H50.9301C50.8098 16.5884 50.7122 16.6893 50.7122 16.8141V16.8269C50.7122 16.9514 50.8098 17.0526 50.9301 17.0526ZM50.0337 15.1603H55.4351C55.5554 15.1603 55.653 15.0594 55.653 14.9346V14.9099C55.653 14.7853 55.5556 14.6842 55.4351 14.6842H50.0337C49.9134 14.6842 49.8158 14.7851 49.8158 14.9099V14.9346C49.8159 15.0594 49.9134 15.1603 50.0337 15.1603ZM55.4354 17.0526H54.5269C54.4066 17.0526 54.309 16.9517 54.309 16.8269V15.862C54.309 15.7374 54.4064 15.6363 54.5269 15.6363H55.8835C56.0039 15.6363 56.1015 15.5354 56.1015 15.4106V14.9099C56.1015 14.7853 56.1989 14.6842 56.3194 14.6842H56.3318C56.4522 14.6842 56.5498 14.7851 56.5498 14.9099V16.3627C56.5498 16.4873 56.6472 16.5884 56.7677 16.5884H56.7798C56.9001 16.5884 56.9977 16.4875 56.9977 16.3627V14.9099C56.9977 14.7853 57.0952 14.6842 57.2157 14.6842H57.2281C57.3484 14.6842 57.446 14.7851 57.446 14.9099V16.3627C57.446 16.4873 57.5434 16.5884 57.664 16.5884H57.682C57.8023 16.5884 57.8999 16.4875 57.8999 16.3627V14.9099C57.8999 14.7853 57.9974 14.6842 58.1179 14.6842H58.1242C58.2445 14.6842 58.3421 14.7851 58.3421 14.9099V16.8269C58.3421 16.9516 58.2447 17.0526 58.1242 17.0526H56.3194C56.1991 17.0526 56.1015 16.9517 56.1015 16.8269V16.3381C56.1015 16.2135 56.004 16.1124 55.8835 16.1124H54.9807C54.8603 16.1124 54.7627 16.2133 54.7627 16.3381V16.3627C54.7627 16.4873 54.8602 16.5884 54.9807 16.5884H55.4356C55.5559 16.5884 55.6535 16.6893 55.6535 16.8141V16.8269C55.6532 16.9514 55.5558 17.0526 55.4354 17.0526Z" fill="white"/>
<path d="M59.0378 17.0526H59.0445C59.1671 17.0526 59.2665 16.9517 59.2665 16.8269V16.3381C59.2665 16.2135 59.3657 16.1124 59.4884 16.1124H60.4141C60.5367 16.1124 60.6361 16.2133 60.6361 16.3381V16.8269C60.6361 16.9516 60.7353 17.0526 60.858 17.0526H62.7019C62.8245 17.0526 62.9239 16.9517 62.9239 16.8269V15.862C62.9239 15.7374 62.8247 15.6363 62.7019 15.6363H61.7827C61.6601 15.6363 61.5607 15.7372 61.5607 15.862V15.8867C61.5607 16.0113 61.66 16.1124 61.7827 16.1124H62.2514C62.374 16.1124 62.4734 16.2133 62.4734 16.3381V16.3627C62.4734 16.4873 62.3742 16.5884 62.2514 16.5884H61.3204C61.1978 16.5884 61.0984 16.4875 61.0984 16.3627V15.862C61.0984 15.7374 60.9991 15.6363 60.8764 15.6363H59.0378C58.9152 15.6363 58.8158 15.7372 58.8158 15.862V16.8269C58.8156 16.9514 58.9152 17.0526 59.0378 17.0526ZM59.9506 17.0526H59.9632C60.0858 17.0526 60.1852 16.9517 60.1852 16.8269V16.8141C60.1852 16.6894 60.086 16.5884 59.9632 16.5884H59.9506C59.828 16.5884 59.7286 16.6893 59.7286 16.8141V16.8269C59.7286 16.9514 59.828 17.0526 59.9506 17.0526ZM59.0378 15.1603H64.5452C64.6678 15.1603 64.7672 15.0594 64.7672 14.9346V14.9099C64.7672 14.7853 64.668 14.6842 64.5452 14.6842H59.0378C58.9152 14.6842 58.8158 14.7851 58.8158 14.9099V14.9346C58.8156 15.0594 58.9152 15.1603 59.0378 15.1603ZM64.5451 17.0526H63.6078C63.4852 17.0526 63.3858 16.9517 63.3858 16.8269V15.862C63.3858 15.7374 63.485 15.6363 63.6078 15.6363H64.9898C65.1124 15.6363 65.2118 15.5354 65.2118 15.4106V14.9099C65.2118 14.7853 65.3111 14.6842 65.4338 14.6842H65.4522C65.5747 14.6842 65.6741 14.7851 65.6741 14.9099V16.3627C65.6741 16.4873 65.7734 16.5884 65.8961 16.5884H65.9084C66.031 16.5884 66.1304 16.4875 66.1304 16.3627V14.9099C66.1304 14.7853 66.2297 14.6842 66.3524 14.6842H66.3591C66.4817 14.6842 66.5811 14.7851 66.5811 14.9099V16.3627C66.5811 16.4873 66.6803 16.5884 66.8031 16.5884H66.8214C66.944 16.5884 67.0434 16.4875 67.0434 16.3627V14.9099C67.0434 14.7853 67.1427 14.6842 67.2654 14.6842H67.278C67.4006 14.6842 67.5 14.7851 67.5 14.9099V16.8269C67.5 16.9516 67.4008 17.0526 67.278 17.0526H65.4338C65.3112 17.0526 65.2118 16.9517 65.2118 16.8269V16.3381C65.2118 16.2135 65.1126 16.1124 64.9898 16.1124H64.0645C63.9419 16.1124 63.8425 16.2133 63.8425 16.3381V16.3627C63.8425 16.4873 63.9418 16.5884 64.0645 16.5884H64.5452C64.6678 16.5884 64.7672 16.6893 64.7672 16.8141V16.8269C64.7672 16.9514 64.6676 17.0526 64.5451 17.0526Z" fill="white"/>
<path d="M68.1915 17.0526H68.2039C68.3241 17.0526 68.4217 16.9517 68.4217 16.8269V16.3381C68.4217 16.2135 68.519 16.1124 68.6395 16.1124H69.5473C69.6676 16.1124 69.7651 16.2133 69.7651 16.3381V16.8269C69.7651 16.9516 69.8625 17.0526 69.9829 17.0526H71.7924C71.9127 17.0526 72.0102 16.9517 72.0102 16.8269V15.862C72.0102 15.7374 71.9128 15.6363 71.7924 15.6363H70.8902C70.7699 15.6363 70.6724 15.7372 70.6724 15.862V15.8867C70.6724 16.0113 70.7697 16.1124 70.8902 16.1124H71.3504C71.4706 16.1124 71.5682 16.2133 71.5682 16.3381V16.3627C71.5682 16.4873 71.4708 16.5884 71.3504 16.5884H70.4307C70.3105 16.5884 70.2129 16.4875 70.2129 16.3627V15.862C70.2129 15.7374 70.1156 15.6363 69.9951 15.6363H68.1916C68.0714 15.6363 67.9738 15.7372 67.9738 15.862V16.8269C67.9738 16.9514 68.0714 17.0526 68.1915 17.0526ZM69.0873 17.0526H69.0997C69.2199 17.0526 69.3175 16.9517 69.3175 16.8269V16.8141C69.3175 16.6894 69.2201 16.5884 69.0997 16.5884H69.0873C68.967 16.5884 68.8695 16.6893 68.8695 16.8141V16.8269C68.8696 16.9514 68.967 17.0526 69.0873 17.0526ZM68.1915 15.1603H73.5835C73.7038 15.1603 73.8013 15.0594 73.8013 14.9346V14.9099C73.8013 14.7853 73.7039 14.6842 73.5835 14.6842H68.1915C68.0712 14.6842 67.9737 14.7851 67.9737 14.9099V14.9346C67.9738 15.0594 68.0714 15.1603 68.1915 15.1603ZM73.5835 17.0526H72.6756C72.5554 17.0526 72.4578 16.9517 72.4578 16.8269V15.862C72.4578 15.7374 72.5552 15.6363 72.6756 15.6363H74.0431C74.1634 15.6363 74.2609 15.5354 74.2609 15.4106V14.9099C74.2609 14.7853 74.3583 14.6842 74.4787 14.6842H74.4793C74.5996 14.6842 74.6971 14.7851 74.6971 14.9099V16.3627C74.6971 16.4873 74.7945 16.5884 74.9149 16.5884H74.9387C75.059 16.5884 75.1565 16.4875 75.1565 16.3627V14.9099C75.1565 14.7853 75.2539 14.6842 75.3743 14.6842H75.375C75.4952 14.6842 75.5928 14.7851 75.5928 14.9099V16.3627C75.5928 16.4873 75.6901 16.5884 75.8106 16.5884H75.8229C75.9432 16.5884 76.0407 16.4875 76.0407 16.3627V14.9099C76.0407 14.7853 76.1381 14.6842 76.2585 14.6842H76.2822C76.4025 14.6842 76.5 14.7851 76.5 14.9099V16.8269C76.5 16.9516 76.4026 17.0526 76.2822 17.0526H74.4787C74.3584 17.0526 74.2609 16.9517 74.2609 16.8269V16.3381C74.2609 16.2135 74.1635 16.1124 74.0431 16.1124H73.1236C73.0034 16.1124 72.9058 16.2133 72.9058 16.3381V16.3627C72.9058 16.4873 73.0032 16.5884 73.1236 16.5884H73.5835C73.7038 16.5884 73.8013 16.6893 73.8013 16.8141V16.8269C73.8013 16.9514 73.7038 17.0526 73.5835 17.0526Z" fill="white"/>
<path d="M-4.28205 18.3158H-0.678865C-0.558513 18.3158 -0.460913 18.2321 -0.460913 18.1286V17.7135C-0.460913 17.6101 -0.558356 17.5263 -0.678865 17.5263H-4.28205C-4.4024 17.5263 -4.5 17.61 -4.5 17.7135V18.1286C-4.5 18.2321 -4.40256 18.3158 -4.28205 18.3158ZM0.210829 18.3158H3.80836C3.92872 18.3158 4.02632 18.2321 4.02632 18.1286V17.7135C4.02632 17.6101 3.92887 17.5263 3.80836 17.5263H0.210829C0.0904774 17.5263 -0.00712218 17.61 -0.00712218 17.7135V18.1286C-0.00712218 18.2321 0.0904774 18.3158 0.210829 18.3158Z" fill="white"/>
<path d="M4.72198 18.3158H8.38607C8.50865 18.3158 8.60806 18.2321 8.60806 18.1286V17.7135C8.60806 17.6101 8.50881 17.5263 8.38607 17.5263H4.72198C4.59941 17.5263 4.5 17.61 4.5 17.7135V18.1286C4.50016 18.2321 4.59957 18.3158 4.72198 18.3158ZM9.28647 18.3158H12.9622C13.0848 18.3158 13.1842 18.2321 13.1842 18.1286V17.7135C13.1842 17.6101 13.085 17.5263 12.9622 17.5263H9.28647C9.16389 17.5263 9.06449 17.61 9.06449 17.7135V18.1286C9.06449 18.2321 9.16389 18.3158 9.28647 18.3158Z" fill="white"/>
<path d="M13.8758 18.3158H17.4791C17.5995 18.3158 17.6971 18.2321 17.6971 18.1286V17.7135C17.6971 17.6101 17.5996 17.5263 17.4791 17.5263H13.8758C13.7555 17.5263 13.6579 17.61 13.6579 17.7135V18.1286C13.6577 18.2321 13.7555 18.3158 13.8758 18.3158ZM18.363 18.3158H21.9663C22.0866 18.3158 22.1842 18.2321 22.1842 18.1286V17.7135C22.1842 17.6101 22.0868 17.5263 21.9663 17.5263H18.363C18.2427 17.5263 18.145 17.61 18.145 17.7135V18.1286C18.1452 18.2321 18.2428 18.3158 18.363 18.3158Z" fill="white"/>
<path d="M22.8758 18.3158H26.479C26.5993 18.3158 26.6969 18.2321 26.6969 18.1286V17.7135C26.6969 17.6101 26.5995 17.5263 26.479 17.5263H22.8758C22.7555 17.5263 22.6579 17.61 22.6579 17.7135V18.1286C22.6581 18.2321 22.7557 18.3158 22.8758 18.3158ZM27.3573 18.3158H30.9663C31.0866 18.3158 31.1842 18.2321 31.1842 18.1286V17.7135C31.1842 17.6101 31.0868 17.5263 30.9663 17.5263H27.3573C27.237 17.5263 27.1394 17.61 27.1394 17.7135V18.1286C27.1394 18.2321 27.2368 18.3158 27.3573 18.3158Z" fill="white"/>
<path d="M31.8799 18.3158H35.55C35.6725 18.3158 35.772 18.2321 35.772 18.1286V17.7135C35.772 17.6101 35.6727 17.5263 35.55 17.5263H31.8799C31.7573 17.5263 31.6579 17.61 31.6579 17.7135V18.1286C31.6581 18.2321 31.7573 18.3158 31.8799 18.3158ZM36.45 18.3158H40.1201C40.2427 18.3158 40.3421 18.2321 40.3421 18.1286V17.7135C40.3421 17.6101 40.2429 17.5263 40.1201 17.5263H36.45C36.3275 17.5263 36.2281 17.61 36.2281 17.7135V18.1286C36.2282 18.2321 36.3275 18.3158 36.45 18.3158Z" fill="white"/>
<path d="M41.0337 18.3158H44.6371C44.7574 18.3158 44.855 18.2321 44.855 18.1286V17.7135C44.855 17.6101 44.7576 17.5263 44.6371 17.5263H41.0337C40.9134 17.5263 40.8158 17.61 40.8158 17.7135V18.1286C40.8158 18.2321 40.9134 18.3158 41.0337 18.3158ZM45.5268 18.3158H49.1242C49.2445 18.3158 49.3421 18.2321 49.3421 18.1286V17.7135C49.3421 17.6101 49.2447 17.5263 49.1242 17.5263H45.5268C45.4064 17.5263 45.3088 17.61 45.3088 17.7135V18.1286C45.3088 18.2321 45.4064 18.3158 45.5268 18.3158Z" fill="white"/>
<path d="M50.0337 18.3158H53.6372C53.7576 18.3158 53.8552 18.2321 53.8552 18.1286V17.7135C53.8552 17.6101 53.7577 17.5263 53.6372 17.5263H50.0337C49.9134 17.5263 49.8158 17.61 49.8158 17.7135V18.1286C49.8159 18.2321 49.9134 18.3158 50.0337 18.3158ZM54.5269 18.3158H58.1242C58.2445 18.3158 58.3421 18.2321 58.3421 18.1286V17.7135C58.3421 17.6101 58.2447 17.5263 58.1242 17.5263H54.5269C54.4066 17.5263 54.309 17.61 54.309 17.7135V18.1286C54.3091 18.2321 54.4066 18.3158 54.5269 18.3158Z" fill="white"/>
<path d="M59.0378 18.3158H62.7018C62.8244 18.3158 62.9238 18.2321 62.9238 18.1286V17.7135C62.9238 17.6101 62.8245 17.5263 62.7018 17.5263H59.0378C58.9152 17.5263 58.8158 17.61 58.8158 17.7135V18.1286C58.8156 18.2321 58.9152 18.3158 59.0378 18.3158ZM63.6079 18.3158H67.278C67.4006 18.3158 67.5 18.2321 67.5 18.1286V17.7135C67.5 17.6101 67.4008 17.5263 67.278 17.5263H63.6079C63.4853 17.5263 63.3859 17.61 63.3859 17.7135V18.1286C63.3859 18.2321 63.4853 18.3158 63.6079 18.3158Z" fill="white"/>
<path d="M68.1915 18.3158H71.7924C71.9127 18.3158 72.0102 18.2321 72.0102 18.1286V17.7135C72.0102 17.6101 71.9128 17.5263 71.7924 17.5263H68.1915C68.0712 17.5263 67.9737 17.61 67.9737 17.7135V18.1286C67.9738 18.2321 68.0714 18.3158 68.1915 18.3158ZM72.6758 18.3158H76.2822C76.4025 18.3158 76.5 18.2321 76.5 18.1286V17.7135C76.5 17.6101 76.4026 17.5263 76.2822 17.5263H72.6758C72.5555 17.5263 72.458 17.61 72.458 17.7135V18.1286C72.4579 18.2321 72.5554 18.3158 72.6758 18.3158Z" fill="white"/>
<path d="M-4.5 36H76.5V54H-4.5V36Z" fill="#D80027"/>
<path d="M35.0043 20.917C35.3843 21.0183 35.7901 20.9067 36.0688 20.6229C36.4894 21.0488 37.1786 21.0589 37.6146 20.6434C37.8985 20.3697 38.0151 19.954 37.9136 19.5789C37.5438 20.1771 36.7634 20.3697 36.1653 19.9945C36.1348 19.974 36.0943 19.9538 36.069 19.9335C35.5066 20.3491 34.711 20.2376 34.2851 19.6803C34.2698 19.6496 34.2396 19.6091 34.2191 19.5789C34.0669 20.1672 34.4216 20.775 35.0043 20.917Z" fill="#D80027"/>
<path d="M37.3657 32.7576C38.7279 32.0097 39.8648 30.8313 40.4882 29.2792C41.5497 26.6188 40.8812 23.6158 38.8506 21.6681C38.7808 21.6012 38.6747 21.6907 38.7253 21.7732C40.7281 25.0392 39.9391 29.3311 36.84 31.6829L36.9881 22.1957C36.9902 22.0669 36.9327 21.9443 36.8327 21.8631L36.3286 21.4557C36.1742 21.3309 35.9536 21.3316 35.8 21.4572L35.3034 21.8631C35.2042 21.9441 35.1476 22.0661 35.1497 22.1941L35.2937 31.688C32.1941 29.3374 31.4033 25.0415 33.4031 21.7733C33.4536 21.6909 33.3475 21.6013 33.2778 21.6684C31.2511 23.6161 30.5784 26.6189 31.6398 29.2792C32.2632 30.831 33.3999 32.0095 34.7626 32.7574C33.8954 33.0547 32.9839 33.2123 32.0623 33.1859C31.9649 33.1831 31.9453 33.3201 32.0386 33.3483C33.2096 33.7037 34.414 33.7281 35.5463 33.4742L35.9909 34.3368C36.0217 34.3963 36.1069 34.3966 36.1378 34.337L36.5854 33.4747C37.7178 33.7281 38.9226 33.7033 40.0944 33.3478C40.1876 33.3197 40.1681 33.1827 40.0707 33.1854C39.148 33.2123 38.2343 33.0547 37.3657 32.7576Z" fill="#D80027"/>
<path d="M42.9105 23.9376C42.2132 22.635 41.0553 21.6476 39.6769 21.1639C39.5906 21.1335 39.5232 21.2476 39.5938 21.3058C42.6368 23.8125 43.2468 28.2771 40.8936 31.5093C40.7719 31.6716 40.6401 31.8439 40.5134 31.9855C43.4024 30.4347 44.4716 26.8264 42.9105 23.9376Z" fill="#D80027"/>
<path d="M31.239 31.5093C28.8858 28.2771 29.491 23.8126 32.5334 21.3059C32.6041 21.2476 32.5366 21.1338 32.4502 21.164C31.0736 21.6479 29.9236 22.635 29.2219 23.9376C27.6509 26.8264 28.7305 30.4347 31.6242 31.9854C31.4875 31.8437 31.3557 31.6716 31.239 31.5093Z" fill="#D80027"/>
<path d="M-4.28205 36.7895H-4.26997C-4.14961 36.7895 -4.05201 36.8904 -4.05201 37.0152V37.504C-4.05201 37.6286 -3.95457 37.7297 -3.83406 37.7297H-2.91973C-2.79938 37.7297 -2.70178 37.6288 -2.70178 37.504V37.0152C-2.70178 36.8905 -2.60434 36.7895 -2.48383 36.7895H-0.679022C-0.55867 36.7895 -0.46107 36.8904 -0.46107 37.0152V37.9801C-0.46107 38.1047 -0.558513 38.2058 -0.679022 38.2058H-1.58755C-1.7079 38.2058 -1.8055 38.1049 -1.8055 37.9801V37.9554C-1.8055 37.8308 -1.70805 37.7297 -1.58755 37.7297H-1.12701C-1.00666 37.7297 -0.909056 37.6288 -0.909056 37.504V37.4794C-0.909056 37.3548 -1.0065 37.2537 -1.12701 37.2537H-2.03584C-2.1562 37.2537 -2.2538 37.3546 -2.2538 37.4794V37.9801C-2.2538 38.1047 -2.35124 38.2058 -2.47175 38.2058H-4.28205C-4.4024 38.2058 -4.5 38.1049 -4.5 37.9801V37.0152C-4.5 36.8907 -4.40256 36.7895 -4.28205 36.7895ZM-3.38011 36.7895H-3.36772C-3.24737 36.7895 -3.14977 36.8904 -3.14977 37.0152V37.028C-3.14977 37.1527 -3.24721 37.2537 -3.36772 37.2537H-3.38011C-3.50047 37.2537 -3.59807 37.1528 -3.59807 37.028V37.0152C-3.59807 36.8907 -3.50047 36.7895 -3.38011 36.7895ZM-4.28205 38.6818H1.11935C1.23971 38.6818 1.3373 38.7827 1.3373 38.9075V38.9322C1.3373 39.0568 1.23986 39.1579 1.11935 39.1579H-4.28205C-4.4024 39.1579 -4.5 39.057 -4.5 38.9322V38.9075C-4.5 38.7827 -4.40256 38.6818 -4.28205 38.6818ZM1.1192 36.7895H0.210673C0.0903206 36.7895 -0.00727901 36.8904 -0.00727901 37.0152V37.9801C-0.00727901 38.1047 0.0901637 38.2058 0.210673 38.2058H1.56765C1.688 38.2058 1.7856 38.3067 1.7856 38.4315V38.9322C1.7856 39.0568 1.88305 39.1579 2.00356 39.1579H2.01564C2.13599 39.1579 2.23359 39.057 2.23359 38.9322V37.4794C2.23359 37.3548 2.33103 37.2537 2.45154 37.2537H2.46394C2.58429 37.2537 2.68189 37.3546 2.68189 37.4794V38.9322C2.68189 39.0568 2.77933 39.1579 2.89984 39.1579H2.91192C3.03227 39.1579 3.12987 39.057 3.12987 38.9322V37.4794C3.12987 37.3548 3.22732 37.2537 3.34783 37.2537H3.36587C3.48622 37.2537 3.58382 37.3546 3.58382 37.4794V38.9322C3.58382 39.0568 3.68127 39.1579 3.80177 39.1579H3.80836C3.92872 39.1579 4.02632 39.057 4.02632 38.9322V37.0152C4.02632 36.8905 3.92887 36.7895 3.80836 36.7895H2.00356C1.8832 36.7895 1.7856 36.8904 1.7856 37.0152V37.504C1.7856 37.6286 1.68816 37.7297 1.56765 37.7297H0.659129C0.538777 37.7297 0.441177 37.6288 0.441177 37.504V37.4794C0.441177 37.3548 0.53862 37.2537 0.659129 37.2537H1.11935C1.23971 37.2537 1.3373 37.1528 1.3373 37.028V37.0152C1.3373 36.8907 1.23955 36.7895 1.1192 36.7895Z" fill="white"/>
<path d="M4.72198 36.7895H4.74035C4.86293 36.7895 4.96233 36.8904 4.96233 37.0152V37.504C4.96233 37.6286 5.06157 37.7297 5.1843 37.7297H6.10385C6.22642 37.7297 6.32582 37.6288 6.32582 37.504V37.0152C6.32582 36.8905 6.42507 36.7895 6.5478 36.7895H8.38593C8.5085 36.7895 8.6079 36.8904 8.6079 37.0152V37.9801C8.6079 38.1047 8.50866 38.2058 8.38593 38.2058H7.46063C7.33806 38.2058 7.23866 38.1049 7.23866 37.9801V37.9554C7.23866 37.8308 7.3379 37.7297 7.46063 37.7297H7.92967C8.05225 37.7297 8.15165 37.6288 8.15165 37.504V37.4794C8.15165 37.3548 8.05241 37.2537 7.92967 37.2537H7.00438C6.8818 37.2537 6.7824 37.3546 6.7824 37.4794V37.9801C6.7824 38.1047 6.68316 38.2058 6.56043 38.2058H4.72198C4.5994 38.2058 4.5 38.1049 4.5 37.9801V37.0152C4.50016 36.8907 4.59956 36.7895 4.72198 36.7895ZM5.63497 36.7895H5.64727C5.76985 36.7895 5.86925 36.8904 5.86925 37.0152V37.028C5.86925 37.1527 5.77001 37.2537 5.64727 37.2537H5.63497C5.51239 37.2537 5.41299 37.1528 5.41299 37.028V37.0152C5.41315 36.8907 5.51239 36.7895 5.63497 36.7895ZM4.72198 38.6818H10.2175C10.3401 38.6818 10.4395 38.7827 10.4395 38.9075V38.9322C10.4395 39.0568 10.3402 39.1579 10.2175 39.1579H4.72198C4.5994 39.1579 4.5 39.057 4.5 38.9322V38.9075C4.50016 38.7827 4.59956 38.6818 4.72198 38.6818ZM10.2175 36.7895H9.2863C9.16372 36.7895 9.06432 36.8904 9.06432 37.0152V37.9801C9.06432 38.1047 9.16356 38.2058 9.2863 38.2058H10.6683C10.7909 38.2058 10.8903 38.3067 10.8903 38.4315V38.9322C10.8903 39.0568 10.9895 39.1579 11.1123 39.1579H11.1307C11.2532 39.1579 11.3526 39.057 11.3526 38.9322V37.4794C11.3526 37.3548 11.4519 37.2537 11.5746 37.2537H11.593C11.7156 37.2537 11.815 37.3546 11.815 37.4794V38.9322C11.815 39.0568 11.9142 39.1579 12.0369 39.1579H12.0437C12.1662 39.1579 12.2656 39.057 12.2656 38.9322V37.4794C12.2656 37.3548 12.3649 37.2537 12.4876 37.2537H12.506C12.6286 37.2537 12.728 37.3546 12.728 37.4794V38.9322C12.728 39.0568 12.8272 39.1579 12.9499 39.1579H12.9622C13.0848 39.1579 13.1842 39.057 13.1842 38.9322V37.0152C13.1842 36.8905 13.085 36.7895 12.9622 36.7895H11.1126C10.99 36.7895 10.8906 36.8904 10.8906 37.0152V37.504C10.8906 37.6286 10.7914 37.7297 10.6686 37.7297H9.7491C9.62653 37.7297 9.52713 37.6288 9.52713 37.504V37.4794C9.52713 37.3548 9.62637 37.2537 9.7491 37.2537H10.2181C10.3407 37.2537 10.4401 37.1528 10.4401 37.028V37.0152C10.4393 36.8907 10.3401 36.7895 10.2175 36.7895Z" fill="white"/>
<path d="M13.8758 36.7895H13.8879C14.0083 36.7895 14.1059 36.8904 14.1059 37.0152V37.504C14.1059 37.6286 14.2033 37.7297 14.3238 37.7297H15.2326C15.353 37.7297 15.4506 37.6288 15.4506 37.504V37.0152C15.4506 36.8905 15.548 36.7895 15.6685 36.7895H17.479C17.5993 36.7895 17.6969 36.8904 17.6969 37.0152V37.9801C17.6969 38.1047 17.5995 38.2058 17.479 38.2058H16.5705C16.4501 38.2058 16.3525 38.1049 16.3525 37.9801V37.9554C16.3525 37.8308 16.4499 37.7297 16.5705 37.7297H17.031C17.1513 37.7297 17.2489 37.6288 17.2489 37.504V37.4794C17.2489 37.3548 17.1515 37.2537 17.031 37.2537H16.1167C15.9963 37.2537 15.8987 37.3546 15.8987 37.4794V37.9801C15.8987 38.1047 15.8013 38.2058 15.6808 38.2058H13.876C13.7556 38.2058 13.6581 38.1049 13.6581 37.9801V37.0152C13.6577 36.8907 13.7555 36.7895 13.8758 36.7895ZM14.7721 36.7895H14.7842C14.9045 36.7895 15.0021 36.8904 15.0021 37.0152V37.028C15.0021 37.1527 14.9047 37.2537 14.7842 37.2537H14.7721C14.6518 37.2537 14.5542 37.1528 14.5542 37.028V37.0152C14.5542 36.8907 14.6518 36.7895 14.7721 36.7895ZM13.8758 38.6818H19.2773C19.3977 38.6818 19.4952 38.7827 19.4952 38.9075V38.9322C19.4952 39.0568 19.3978 39.1579 19.2773 39.1579H13.8758C13.7555 39.1579 13.6579 39.057 13.6579 38.9322V38.9075C13.6577 38.7827 13.7555 38.6818 13.8758 38.6818ZM19.2773 36.7895H18.363C18.2426 36.7895 18.145 36.8904 18.145 37.0152V37.9801C18.145 38.1047 18.2425 38.2058 18.363 38.2058H19.7196C19.84 38.2058 19.9376 38.3067 19.9376 38.4315V38.9322C19.9376 39.0568 20.035 39.1579 20.1555 39.1579H20.1679C20.2883 39.1579 20.3859 39.057 20.3859 38.9322V37.4794C20.3859 37.3548 20.4833 37.2537 20.6038 37.2537H20.6219C20.7422 37.2537 20.8398 37.3546 20.8398 37.4794V38.9322C20.8398 39.0568 20.9372 39.1579 21.0578 39.1579H21.0758C21.1961 39.1579 21.2937 39.057 21.2937 38.9322V37.4794C21.2937 37.3548 21.3912 37.2537 21.5117 37.2537H21.5183C21.6386 37.2537 21.7362 37.3546 21.7362 37.4794V38.9322C21.7362 39.0568 21.8337 39.1579 21.9542 39.1579H21.9663C22.0866 39.1579 22.1842 39.057 22.1842 38.9322V37.0152C22.1842 36.8905 22.0868 36.7895 21.9663 36.7895H20.1555C20.0352 36.7895 19.9376 36.8904 19.9376 37.0152V37.504C19.9376 37.6286 19.8401 37.7297 19.7196 37.7297H18.8111C18.6908 37.7297 18.5932 37.6288 18.5932 37.504V37.4794C18.5932 37.3548 18.6906 37.2537 18.8111 37.2537H19.2776C19.398 37.2537 19.4956 37.1528 19.4956 37.028V37.0152C19.4952 36.8907 19.3977 36.7895 19.2773 36.7895Z" fill="white"/>
<path d="M22.8758 36.7895H22.8879C23.0083 36.7895 23.1059 36.8904 23.1059 37.0152V37.504C23.1059 37.6286 23.2033 37.7297 23.3238 37.7297H24.2323C24.3526 37.7297 24.4502 37.6288 24.4502 37.504V37.0152C24.4502 36.8905 24.5477 36.7895 24.6682 36.7895H26.4789C26.5992 36.7895 26.6968 36.8904 26.6968 37.0152V37.9801C26.6968 38.1047 26.5994 38.2058 26.4789 38.2058H25.5646C25.4443 38.2058 25.3467 38.1049 25.3467 37.9801V37.9554C25.3467 37.8308 25.4441 37.7297 25.5646 37.7297H26.0251C26.1455 37.7297 26.2431 37.6288 26.2431 37.504V37.4794C26.2431 37.3548 26.1456 37.2537 26.0251 37.2537H25.1166C24.9963 37.2537 24.8987 37.3546 24.8987 37.4794V37.9801C24.8987 38.1047 24.8012 38.2058 24.6807 38.2058H22.876C22.7557 38.2058 22.6581 38.1049 22.6581 37.9801V37.0152C22.6581 36.8907 22.7557 36.7895 22.8758 36.7895ZM23.7723 36.7895H23.7843C23.9047 36.7895 24.0023 36.8904 24.0023 37.0152V37.028C24.0023 37.1527 23.9048 37.2537 23.7843 37.2537H23.7723C23.6519 37.2537 23.5543 37.1528 23.5543 37.028V37.0152C23.5545 36.8907 23.6519 36.7895 23.7723 36.7895ZM22.8758 38.6818H28.2716C28.3919 38.6818 28.4895 38.7827 28.4895 38.9075V38.9322C28.4895 39.0568 28.3921 39.1579 28.2716 39.1579H22.8758C22.7555 39.1579 22.6579 39.057 22.6579 38.9322V38.9075C22.6581 38.7827 22.7557 38.6818 22.8758 38.6818ZM28.2716 36.7895H27.3573C27.2369 36.7895 27.1393 36.8904 27.1393 37.0152V37.9801C27.1393 38.1047 27.2368 38.2058 27.3573 38.2058H28.7256C28.846 38.2058 28.9436 38.3067 28.9436 38.4315V38.9322C28.9436 39.0568 29.041 39.1579 29.1615 39.1579H29.1736C29.294 39.1579 29.3916 39.057 29.3916 38.9322V37.4794C29.3916 37.3548 29.489 37.2537 29.6095 37.2537H29.6161C29.7364 37.2537 29.834 37.3546 29.834 37.4794V38.9322C29.834 39.0568 29.9315 39.1579 30.052 39.1579H30.07C30.1904 39.1579 30.288 39.057 30.288 38.9322V37.4794C30.288 37.3548 30.3854 37.2537 30.5059 37.2537H30.5183C30.6387 37.2537 30.7362 37.3546 30.7362 37.4794V38.9322C30.7362 39.0568 30.8337 39.1579 30.9542 39.1579H30.9663C31.0866 39.1579 31.1842 39.057 31.1842 38.9322V37.0152C31.1842 36.8905 31.0868 36.7895 30.9663 36.7895H29.1607C29.0404 36.7895 28.9428 36.8904 28.9428 37.0152V37.504C28.9428 37.6286 28.8454 37.7297 28.7249 37.7297H27.8106C27.6902 37.7297 27.5926 37.6288 27.5926 37.504V37.4794C27.5926 37.3548 27.6901 37.2537 27.8106 37.2537H28.2711C28.3914 37.2537 28.489 37.1528 28.489 37.028V37.0152C28.4893 36.8907 28.3919 36.7895 28.2716 36.7895Z" fill="white"/>
<path d="M31.8799 36.7895H31.8925C32.0151 36.7895 32.1145 36.8904 32.1145 37.0152V37.504C32.1145 37.6286 32.2137 37.7297 32.3365 37.7297H33.2618C33.3844 37.7297 33.4838 37.6288 33.4838 37.504V37.0152C33.4838 36.8905 33.583 36.7895 33.7057 36.7895H35.55C35.6725 36.7895 35.772 36.8904 35.772 37.0152V37.9801C35.772 38.1047 35.6727 38.2058 35.55 38.2058H34.6187C34.4962 38.2058 34.3968 38.1049 34.3968 37.9801V37.9554C34.3968 37.8308 34.496 37.7297 34.6187 37.7297H35.0934C35.216 37.7297 35.3154 37.6288 35.3154 37.504V37.4794C35.3154 37.3548 35.2161 37.2537 35.0934 37.2537H34.1681C34.0455 37.2537 33.9461 37.3546 33.9461 37.4794V37.9801C33.9461 38.1047 33.8469 38.2058 33.7241 38.2058H31.8799C31.7573 38.2058 31.6579 38.1049 31.6579 37.9801V37.0152C31.6581 36.8907 31.7573 36.7895 31.8799 36.7895ZM32.7988 36.7895H32.8055C32.9281 36.7895 33.0275 36.8904 33.0275 37.0152V37.028C33.0275 37.1527 32.9282 37.2537 32.8055 37.2537H32.7988C32.6762 37.2537 32.5768 37.1528 32.5768 37.028V37.0152C32.5768 36.8907 32.6762 36.7895 32.7988 36.7895ZM31.8799 38.6818H37.3814C37.504 38.6818 37.6034 38.7827 37.6034 38.9075V38.9322C37.6034 39.0568 37.5042 39.1579 37.3814 39.1579H31.8799C31.7573 39.1579 31.6579 39.057 31.6579 38.9322V38.9075C31.6581 38.7827 31.7573 38.6818 31.8799 38.6818ZM37.3816 36.7895H36.4504C36.3278 36.7895 36.2284 36.8904 36.2284 37.0152V37.9801C36.2284 38.1047 36.3276 38.2058 36.4504 38.2058H37.8382C37.9607 38.2058 38.0601 38.3067 38.0601 38.4315V38.9322C38.0601 39.0568 38.1594 39.1579 38.2821 39.1579H38.2944C38.417 39.1579 38.5164 39.057 38.5164 38.9322V37.4794C38.5164 37.3548 38.6157 37.2537 38.7384 37.2537H38.751C38.8736 37.2537 38.973 37.3546 38.973 37.4794V38.9322C38.973 39.0568 39.0722 39.1579 39.195 39.1579H39.2073C39.3299 39.1579 39.4293 39.057 39.4293 38.9322V37.4794C39.4293 37.3548 39.5285 37.2537 39.6512 37.2537H39.6635C39.7861 37.2537 39.8855 37.3546 39.8855 37.4794V38.9322C39.8855 39.0568 39.9848 39.1579 40.1075 39.1579H40.1201C40.2427 39.1579 40.3421 39.057 40.3421 38.9322V37.0152C40.3421 36.8905 40.2429 36.7895 40.1201 36.7895H38.282C38.1594 36.7895 38.06 36.8904 38.06 37.0152V37.504C38.06 37.6286 37.9607 37.7297 37.838 37.7297H36.9068C36.7842 37.7297 36.6848 37.6288 36.6848 37.504V37.4794C36.6848 37.3548 36.784 37.2537 36.9068 37.2537H37.3814C37.504 37.2537 37.6034 37.1528 37.6034 37.028V37.0152C37.6034 36.8907 37.5042 36.7895 37.3816 36.7895Z" fill="white"/>
<path d="M41.0337 36.7895H41.0461C41.1665 36.7895 41.2641 36.8904 41.2641 37.0152V37.504C41.2641 37.6286 41.3615 37.7297 41.482 37.7297H42.3905C42.5108 37.7297 42.6084 37.6288 42.6084 37.504V37.0152C42.6084 36.8905 42.7059 36.7895 42.8264 36.7895H44.6371C44.7574 36.7895 44.855 36.8904 44.855 37.0152V37.9801C44.855 38.1047 44.7576 38.2058 44.6371 38.2058H43.7283C43.6079 38.2058 43.5103 38.1049 43.5103 37.9801V37.9554C43.5103 37.8308 43.6078 37.7297 43.7283 37.7297H44.1832C44.3035 37.7297 44.4011 37.6288 44.4011 37.504V37.4794C44.4011 37.3548 44.3037 37.2537 44.1832 37.2537H43.2803C43.16 37.2537 43.0624 37.3546 43.0624 37.4794V37.9801C43.0624 38.1047 42.9649 38.2058 42.8444 38.2058H41.0337C40.9134 38.2058 40.8158 38.1049 40.8158 37.9801V37.0152C40.8158 36.8907 40.9134 36.7895 41.0337 36.7895ZM41.9358 36.7895H41.9424C42.0627 36.7895 42.1603 36.8904 42.1603 37.0152V37.028C42.1603 37.1527 42.0629 37.2537 41.9424 37.2537H41.9358C41.8154 37.2537 41.7178 37.1528 41.7178 37.028V37.0152C41.718 36.8907 41.8154 36.7895 41.9358 36.7895ZM41.0337 38.6818H46.4351C46.5554 38.6818 46.653 38.7827 46.653 38.9075V38.9322C46.653 39.0568 46.5556 39.1579 46.4351 39.1579H41.0337C40.9134 39.1579 40.8158 39.057 40.8158 38.9322V38.9075C40.8158 38.7827 40.9134 38.6818 41.0337 38.6818ZM46.4352 36.7895H45.5268C45.4064 36.7895 45.3088 36.8904 45.3088 37.0152V37.9801C45.3088 38.1047 45.4063 38.2058 45.5268 38.2058H46.8834C47.0037 38.2058 47.1013 38.3067 47.1013 38.4315V38.9322C47.1013 39.0568 47.1988 39.1579 47.3193 39.1579H47.3317C47.452 39.1579 47.5496 39.057 47.5496 38.9322V37.4794C47.5496 37.3548 47.647 37.2537 47.7675 37.2537H47.7796C47.9 37.2537 47.9976 37.3546 47.9976 37.4794V38.9322C47.9976 39.0568 48.095 39.1579 48.2155 39.1579H48.2279C48.3483 39.1579 48.4459 39.057 48.4459 38.9322V37.4794C48.4459 37.3548 48.5433 37.2537 48.6638 37.2537H48.6759C48.7962 37.2537 48.8938 37.3546 48.8938 37.4794V38.9322C48.8938 39.0568 48.9913 39.1579 49.1118 39.1579H49.1242C49.2445 39.1579 49.3421 39.057 49.3421 38.9322V37.0152C49.3421 36.8905 49.2447 36.7895 49.1242 36.7895H47.3189C47.1986 36.7895 47.101 36.8904 47.101 37.0152V37.504C47.101 37.6286 47.0036 37.7297 46.8831 37.7297H45.9689C45.8486 37.7297 45.751 37.6288 45.751 37.504V37.4794C45.751 37.3548 45.8484 37.2537 45.9689 37.2537H46.4349C46.5553 37.2537 46.6529 37.1528 46.6529 37.028V37.0152C46.6532 36.8907 46.5554 36.7895 46.4352 36.7895Z" fill="white"/>
<path d="M50.0337 36.7895H50.0461C50.1665 36.7895 50.2641 36.8904 50.2641 37.0152V37.504C50.2641 37.6286 50.3615 37.7297 50.482 37.7297H51.3962C51.5165 37.7297 51.6141 37.6288 51.6141 37.504V37.0152C51.6141 36.8905 51.7115 36.7895 51.832 36.7895H53.6373C53.7576 36.7895 53.8552 36.8904 53.8552 37.0152V37.9801C53.8552 38.1047 53.7578 38.2058 53.6373 38.2058H52.7284C52.6081 38.2058 52.5105 38.1049 52.5105 37.9801V37.9554C52.5105 37.8308 52.6079 37.7297 52.7284 37.7297H53.1949C53.3153 37.7297 53.4129 37.6288 53.4129 37.504V37.4794C53.4129 37.3548 53.3154 37.2537 53.1949 37.2537H52.2747C52.1543 37.2537 52.0567 37.3546 52.0567 37.4794V37.9801C52.0567 38.1047 51.9593 38.2058 51.8388 38.2058H50.034C49.9137 38.2058 49.8161 38.1049 49.8161 37.9801V37.0152C49.8159 36.8907 49.9134 36.7895 50.0337 36.7895ZM50.9301 36.7895H50.9482C51.0685 36.7895 51.1661 36.8904 51.1661 37.0152V37.028C51.1661 37.1527 51.0687 37.2537 50.9482 37.2537H50.9301C50.8098 37.2537 50.7122 37.1528 50.7122 37.028V37.0152C50.7122 36.8907 50.8098 36.7895 50.9301 36.7895ZM50.0337 38.6818H55.4351C55.5554 38.6818 55.653 38.7827 55.653 38.9075V38.9322C55.653 39.0568 55.5556 39.1579 55.4351 39.1579H50.0337C49.9134 39.1579 49.8158 39.057 49.8158 38.9322V38.9075C49.8159 38.7827 49.9134 38.6818 50.0337 38.6818ZM55.4354 36.7895H54.5269C54.4066 36.7895 54.309 36.8904 54.309 37.0152V37.9801C54.309 38.1047 54.4064 38.2058 54.5269 38.2058H55.8835C56.0039 38.2058 56.1015 38.3067 56.1015 38.4315V38.9322C56.1015 39.0568 56.1989 39.1579 56.3194 39.1579H56.3318C56.4522 39.1579 56.5498 39.057 56.5498 38.9322V37.4794C56.5498 37.3548 56.6472 37.2537 56.7677 37.2537H56.7798C56.9001 37.2537 56.9977 37.3546 56.9977 37.4794V38.9322C56.9977 39.0568 57.0952 39.1579 57.2157 39.1579H57.2281C57.3484 39.1579 57.446 39.057 57.446 38.9322V37.4794C57.446 37.3548 57.5434 37.2537 57.664 37.2537H57.682C57.8023 37.2537 57.8999 37.3546 57.8999 37.4794V38.9322C57.8999 39.0568 57.9974 39.1579 58.1179 39.1579H58.1242C58.2445 39.1579 58.3421 39.057 58.3421 38.9322V37.0152C58.3421 36.8905 58.2447 36.7895 58.1242 36.7895H56.3194C56.1991 36.7895 56.1015 36.8904 56.1015 37.0152V37.504C56.1015 37.6286 56.004 37.7297 55.8835 37.7297H54.9807C54.8603 37.7297 54.7627 37.6288 54.7627 37.504V37.4794C54.7627 37.3548 54.8602 37.2537 54.9807 37.2537H55.4356C55.5559 37.2537 55.6535 37.1528 55.6535 37.028V37.0152C55.6532 36.8907 55.5558 36.7895 55.4354 36.7895Z" fill="white"/>
<path d="M59.0378 36.7895H59.0445C59.1671 36.7895 59.2665 36.8904 59.2665 37.0152V37.504C59.2665 37.6286 59.3657 37.7297 59.4884 37.7297H60.4141C60.5367 37.7297 60.6361 37.6288 60.6361 37.504V37.0152C60.6361 36.8905 60.7353 36.7895 60.858 36.7895H62.7019C62.8245 36.7895 62.9239 36.8904 62.9239 37.0152V37.9801C62.9239 38.1047 62.8247 38.2058 62.7019 38.2058H61.7827C61.6601 38.2058 61.5607 38.1049 61.5607 37.9801V37.9554C61.5607 37.8308 61.66 37.7297 61.7827 37.7297H62.2514C62.374 37.7297 62.4734 37.6288 62.4734 37.504V37.4794C62.4734 37.3548 62.3742 37.2537 62.2514 37.2537H61.3204C61.1978 37.2537 61.0984 37.3546 61.0984 37.4794V37.9801C61.0984 38.1047 60.9991 38.2058 60.8764 38.2058H59.0378C58.9152 38.2058 58.8158 38.1049 58.8158 37.9801V37.0152C58.8156 36.8907 58.9152 36.7895 59.0378 36.7895ZM59.9506 36.7895H59.9632C60.0858 36.7895 60.1852 36.8904 60.1852 37.0152V37.028C60.1852 37.1527 60.086 37.2537 59.9632 37.2537H59.9506C59.828 37.2537 59.7286 37.1528 59.7286 37.028V37.0152C59.7286 36.8907 59.828 36.7895 59.9506 36.7895ZM59.0378 38.6818H64.5452C64.6678 38.6818 64.7672 38.7827 64.7672 38.9075V38.9322C64.7672 39.0568 64.668 39.1579 64.5452 39.1579H59.0378C58.9152 39.1579 58.8158 39.057 58.8158 38.9322V38.9075C58.8156 38.7827 58.9152 38.6818 59.0378 38.6818ZM64.5451 36.7895H63.6078C63.4852 36.7895 63.3858 36.8904 63.3858 37.0152V37.9801C63.3858 38.1047 63.485 38.2058 63.6078 38.2058H64.9898C65.1124 38.2058 65.2118 38.3067 65.2118 38.4315V38.9322C65.2118 39.0568 65.3111 39.1579 65.4338 39.1579H65.4522C65.5747 39.1579 65.6741 39.057 65.6741 38.9322V37.4794C65.6741 37.3548 65.7734 37.2537 65.8961 37.2537H65.9084C66.031 37.2537 66.1304 37.3546 66.1304 37.4794V38.9322C66.1304 39.0568 66.2297 39.1579 66.3524 39.1579H66.3591C66.4817 39.1579 66.5811 39.057 66.5811 38.9322V37.4794C66.5811 37.3548 66.6803 37.2537 66.8031 37.2537H66.8214C66.944 37.2537 67.0434 37.3546 67.0434 37.4794V38.9322C67.0434 39.0568 67.1427 39.1579 67.2654 39.1579H67.278C67.4006 39.1579 67.5 39.057 67.5 38.9322V37.0152C67.5 36.8905 67.4008 36.7895 67.278 36.7895H65.4338C65.3112 36.7895 65.2118 36.8904 65.2118 37.0152V37.504C65.2118 37.6286 65.1126 37.7297 64.9898 37.7297H64.0645C63.9419 37.7297 63.8425 37.6288 63.8425 37.504V37.4794C63.8425 37.3548 63.9418 37.2537 64.0645 37.2537H64.5452C64.6678 37.2537 64.7672 37.1528 64.7672 37.028V37.0152C64.7672 36.8907 64.6676 36.7895 64.5451 36.7895Z" fill="white"/>
<path d="M68.1915 36.7895H68.2039C68.3241 36.7895 68.4217 36.8904 68.4217 37.0152V37.504C68.4217 37.6286 68.519 37.7297 68.6395 37.7297H69.5473C69.6676 37.7297 69.7651 37.6288 69.7651 37.504V37.0152C69.7651 36.8905 69.8625 36.7895 69.9829 36.7895H71.7924C71.9127 36.7895 72.0102 36.8904 72.0102 37.0152V37.9801C72.0102 38.1047 71.9128 38.2058 71.7924 38.2058H70.8902C70.7699 38.2058 70.6724 38.1049 70.6724 37.9801V37.9554C70.6724 37.8308 70.7697 37.7297 70.8902 37.7297H71.3504C71.4706 37.7297 71.5682 37.6288 71.5682 37.504V37.4794C71.5682 37.3548 71.4708 37.2537 71.3504 37.2537H70.4307C70.3105 37.2537 70.2129 37.3546 70.2129 37.4794V37.9801C70.2129 38.1047 70.1156 38.2058 69.9951 38.2058H68.1916C68.0714 38.2058 67.9738 38.1049 67.9738 37.9801V37.0152C67.9738 36.8907 68.0714 36.7895 68.1915 36.7895ZM69.0873 36.7895H69.0997C69.2199 36.7895 69.3175 36.8904 69.3175 37.0152V37.028C69.3175 37.1527 69.2201 37.2537 69.0997 37.2537H69.0873C68.967 37.2537 68.8695 37.1528 68.8695 37.028V37.0152C68.8696 36.8907 68.967 36.7895 69.0873 36.7895ZM68.1915 38.6818H73.5835C73.7038 38.6818 73.8013 38.7827 73.8013 38.9075V38.9322C73.8013 39.0568 73.7039 39.1579 73.5835 39.1579H68.1915C68.0712 39.1579 67.9737 39.057 67.9737 38.9322V38.9075C67.9738 38.7827 68.0714 38.6818 68.1915 38.6818ZM73.5835 36.7895H72.6756C72.5554 36.7895 72.4578 36.8904 72.4578 37.0152V37.9801C72.4578 38.1047 72.5552 38.2058 72.6756 38.2058H74.0431C74.1634 38.2058 74.2609 38.3067 74.2609 38.4315V38.9322C74.2609 39.0568 74.3583 39.1579 74.4787 39.1579H74.4793C74.5996 39.1579 74.6971 39.057 74.6971 38.9322V37.4794C74.6971 37.3548 74.7945 37.2537 74.9149 37.2537H74.9387C75.059 37.2537 75.1565 37.3546 75.1565 37.4794V38.9322C75.1565 39.0568 75.2539 39.1579 75.3743 39.1579H75.375C75.4952 39.1579 75.5928 39.057 75.5928 38.9322V37.4794C75.5928 37.3548 75.6901 37.2537 75.8106 37.2537H75.8229C75.9432 37.2537 76.0407 37.3546 76.0407 37.4794V38.9322C76.0407 39.0568 76.1381 39.1579 76.2585 39.1579H76.2822C76.4025 39.1579 76.5 39.057 76.5 38.9322V37.0152C76.5 36.8905 76.4026 36.7895 76.2822 36.7895H74.4787C74.3584 36.7895 74.2609 36.8904 74.2609 37.0152V37.504C74.2609 37.6286 74.1635 37.7297 74.0431 37.7297H73.1236C73.0034 37.7297 72.9058 37.6288 72.9058 37.504V37.4794C72.9058 37.3548 73.0032 37.2537 73.1236 37.2537H73.5835C73.7038 37.2537 73.8013 37.1528 73.8013 37.028V37.0152C73.8013 36.8907 73.7038 36.7895 73.5835 36.7895Z" fill="white"/>
<path d="M-4.28205 35.5263H-0.678865C-0.558513 35.5263 -0.460913 35.61 -0.460913 35.7135V36.1286C-0.460913 36.232 -0.558356 36.3158 -0.678865 36.3158H-4.28205C-4.4024 36.3158 -4.5 36.2321 -4.5 36.1286V35.7135C-4.5 35.61 -4.40256 35.5263 -4.28205 35.5263ZM0.210829 35.5263H3.80836C3.92872 35.5263 4.02632 35.61 4.02632 35.7135V36.1286C4.02632 36.232 3.92887 36.3158 3.80836 36.3158H0.210829C0.0904774 36.3158 -0.00712218 36.2321 -0.00712218 36.1286V35.7135C-0.00712218 35.61 0.0904774 35.5263 0.210829 35.5263Z" fill="white"/>
<path d="M4.72198 35.5263H8.38607C8.50865 35.5263 8.60806 35.61 8.60806 35.7135V36.1286C8.60806 36.232 8.50881 36.3158 8.38607 36.3158H4.72198C4.59941 36.3158 4.5 36.2321 4.5 36.1286V35.7135C4.50016 35.61 4.59957 35.5263 4.72198 35.5263ZM9.28647 35.5263H12.9622C13.0848 35.5263 13.1842 35.61 13.1842 35.7135V36.1286C13.1842 36.232 13.085 36.3158 12.9622 36.3158H9.28647C9.16389 36.3158 9.06449 36.2321 9.06449 36.1286V35.7135C9.06449 35.61 9.16389 35.5263 9.28647 35.5263Z" fill="white"/>
<path d="M13.8758 35.5263H17.4791C17.5995 35.5263 17.6971 35.61 17.6971 35.7135V36.1286C17.6971 36.232 17.5996 36.3158 17.4791 36.3158H13.8758C13.7555 36.3158 13.6579 36.2321 13.6579 36.1286V35.7135C13.6577 35.61 13.7555 35.5263 13.8758 35.5263ZM18.363 35.5263H21.9663C22.0866 35.5263 22.1842 35.61 22.1842 35.7135V36.1286C22.1842 36.232 22.0868 36.3158 21.9663 36.3158H18.363C18.2427 36.3158 18.145 36.2321 18.145 36.1286V35.7135C18.1452 35.61 18.2428 35.5263 18.363 35.5263Z" fill="white"/>
<path d="M22.8758 35.5263H26.479C26.5993 35.5263 26.6969 35.61 26.6969 35.7135V36.1286C26.6969 36.232 26.5995 36.3158 26.479 36.3158H22.8758C22.7555 36.3158 22.6579 36.2321 22.6579 36.1286V35.7135C22.6581 35.61 22.7557 35.5263 22.8758 35.5263ZM27.3573 35.5263H30.9663C31.0866 35.5263 31.1842 35.61 31.1842 35.7135V36.1286C31.1842 36.232 31.0868 36.3158 30.9663 36.3158H27.3573C27.237 36.3158 27.1394 36.2321 27.1394 36.1286V35.7135C27.1394 35.61 27.2368 35.5263 27.3573 35.5263Z" fill="white"/>
<path d="M31.8799 35.5263H35.55C35.6725 35.5263 35.772 35.61 35.772 35.7135V36.1286C35.772 36.232 35.6727 36.3158 35.55 36.3158H31.8799C31.7573 36.3158 31.6579 36.2321 31.6579 36.1286V35.7135C31.6581 35.61 31.7573 35.5263 31.8799 35.5263ZM36.45 35.5263H40.1201C40.2427 35.5263 40.3421 35.61 40.3421 35.7135V36.1286C40.3421 36.232 40.2429 36.3158 40.1201 36.3158H36.45C36.3275 36.3158 36.2281 36.2321 36.2281 36.1286V35.7135C36.2282 35.61 36.3275 35.5263 36.45 35.5263Z" fill="white"/>
<path d="M41.0337 35.5263H44.6371C44.7574 35.5263 44.855 35.61 44.855 35.7135V36.1286C44.855 36.232 44.7576 36.3158 44.6371 36.3158H41.0337C40.9134 36.3158 40.8158 36.2321 40.8158 36.1286V35.7135C40.8158 35.61 40.9134 35.5263 41.0337 35.5263ZM45.5268 35.5263H49.1242C49.2445 35.5263 49.3421 35.61 49.3421 35.7135V36.1286C49.3421 36.232 49.2447 36.3158 49.1242 36.3158H45.5268C45.4064 36.3158 45.3088 36.2321 45.3088 36.1286V35.7135C45.3088 35.61 45.4064 35.5263 45.5268 35.5263Z" fill="white"/>
<path d="M50.0337 35.5263H53.6372C53.7576 35.5263 53.8552 35.61 53.8552 35.7135V36.1286C53.8552 36.232 53.7577 36.3158 53.6372 36.3158H50.0337C49.9134 36.3158 49.8158 36.2321 49.8158 36.1286V35.7135C49.8159 35.61 49.9134 35.5263 50.0337 35.5263ZM54.5269 35.5263H58.1242C58.2445 35.5263 58.3421 35.61 58.3421 35.7135V36.1286C58.3421 36.232 58.2447 36.3158 58.1242 36.3158H54.5269C54.4066 36.3158 54.309 36.2321 54.309 36.1286V35.7135C54.3091 35.61 54.4066 35.5263 54.5269 35.5263Z" fill="white"/>
<path d="M59.0378 35.5263H62.7018C62.8244 35.5263 62.9238 35.61 62.9238 35.7135V36.1286C62.9238 36.232 62.8245 36.3158 62.7018 36.3158H59.0378C58.9152 36.3158 58.8158 36.2321 58.8158 36.1286V35.7135C58.8156 35.61 58.9152 35.5263 59.0378 35.5263ZM63.6079 35.5263H67.278C67.4006 35.5263 67.5 35.61 67.5 35.7135V36.1286C67.5 36.232 67.4008 36.3158 67.278 36.3158H63.6079C63.4853 36.3158 63.3859 36.2321 63.3859 36.1286V35.7135C63.3859 35.61 63.4853 35.5263 63.6079 35.5263Z" fill="white"/>
<path d="M68.1915 35.5263H71.7924C71.9127 35.5263 72.0102 35.61 72.0102 35.7135V36.1286C72.0102 36.232 71.9128 36.3158 71.7924 36.3158H68.1915C68.0712 36.3158 67.9737 36.2321 67.9737 36.1286V35.7135C67.9738 35.61 68.0714 35.5263 68.1915 35.5263ZM72.6758 35.5263H76.2822C76.4025 35.5263 76.5 35.61 76.5 35.7135V36.1286C76.5 36.232 76.4026 36.3158 76.2822 36.3158H72.6758C72.5555 36.3158 72.458 36.2321 72.458 36.1286V35.7135C72.4579 35.61 72.5554 35.5263 72.6758 35.5263Z" fill="white"/>
</g>
</g>
</g>
<defs>
<clipPath id="clip0_301_29424">
<rect width="72" height="54" fill="white"/>
</clipPath>
<clipPath id="clip1_301_29424">
<rect width="81" height="54" fill="white" transform="translate(-4.5)"/>
</clipPath>
</defs>
</svg>
