<svg width="72" height="54" viewBox="0 0 72 54" fill="none" xmlns="http://www.w3.org/2000/svg">
<g clip-path="url(#clip0_301_29678)">
<mask id="mask0_301_29678" style="mask-type:alpha" maskUnits="userSpaceOnUse" x="0" y="0" width="72" height="54">
<rect x="0.5" y="0.5" width="71" height="53" fill="#D9D9D9" stroke="black"/>
</mask>
<g mask="url(#mask0_301_29678)">
<g clip-path="url(#clip1_301_29678)">
<path d="M-4.5 0H76.5V54H-4.5V0Z" fill="white"/>
<path d="M11.1754 17.8705L18.0221 7.60042L11.1754 17.8705ZM13.743 19.5822L20.5897 9.3121L13.743 19.5822ZM16.3105 21.2939L23.1572 11.0238L16.3105 21.2939ZM48.8324 42.9751L55.6791 32.705L48.8324 42.9751ZM51.4 44.6868L58.2467 34.4167L51.4 44.6868ZM53.9675 46.3985L60.8142 36.1284Z" fill="black"/>
<path fill-rule="evenodd" clip-rule="evenodd" d="M10.5749 17.4701L17.4216 7.2L18.6228 8.00078L11.776 18.2709L10.5749 17.4701ZM13.1424 19.1818L19.9891 8.91168L21.1903 9.71246L14.3436 19.9826L13.1424 19.1818ZM15.7099 20.8934L22.5566 10.6234L23.7578 11.4241L16.9111 21.6942L15.7099 20.8934ZM48.2319 42.5747L55.0786 32.3046L56.2798 33.1054L49.433 43.3755L48.2319 42.5747ZM50.7994 44.2864L57.6461 34.0163L58.8473 34.8171L52.0006 45.0872L50.7994 44.2864ZM61.4148 36.5288L54.5681 46.7988L53.3669 45.9981L60.2136 35.728L61.4148 36.5288Z" fill="black"/>
<path fill-rule="evenodd" clip-rule="evenodd" d="M58.6129 43.2612L50.546 37.8833L51.6408 36.2411L59.7077 41.619L58.6129 43.2612Z" fill="white"/>
<path d="M46.259 33.8392C50.0372 28.172 48.5058 20.515 42.8386 16.7369C37.1713 12.9587 29.5144 14.4901 25.7362 20.1574C21.9581 25.8246 23.4895 33.4816 29.1567 37.2597C34.8239 41.0378 42.4809 39.5064 46.259 33.8392Z" fill="#CA163A"/>
<path d="M25.7362 20.1574C23.8481 22.9895 24.6143 26.8204 27.4465 28.7085C30.2786 30.5966 34.1095 29.8304 35.9976 26.9983C37.8857 24.1661 41.7166 23.3999 44.5488 25.288C47.381 27.1761 48.1471 31.0071 46.259 33.8392C42.4829 39.5035 34.821 41.0359 29.1567 37.2597C23.4924 33.4835 21.96 25.8217 25.7362 20.1574V20.1574Z" fill="#0E4896"/>
<path fill-rule="evenodd" clip-rule="evenodd" d="M54.4125 7.2L61.2 17.4704L60.0092 18.2712L53.2217 8.0008L54.4125 7.2ZM51.8672 8.91178L58.6548 19.1821L57.464 19.9829L50.6764 9.7126L51.8672 8.91178ZM49.3219 10.6235L56.1094 20.8938L54.9186 21.6946L48.1311 11.4243L49.3219 10.6235ZM17.0813 32.3053L23.8687 42.5757L22.678 43.3765L15.8905 33.1061L17.0813 32.3053ZM14.5359 34.0171L21.3234 44.2874L20.1326 45.0882L13.3452 34.8179L14.5359 34.0171ZM11.9908 35.7288L18.7783 45.9992L17.5875 46.8L10.8 36.5296L11.9908 35.7288Z" fill="black"/>
<path d="M14.004 41.6607L16.8122 39.7887L14.004 41.6607ZM51.9105 16.3897L55.1904 14.2031L51.9105 16.3897ZM57.9986 12.331L60.8068 10.4589Z" fill="black"/>
<path fill-rule="evenodd" clip-rule="evenodd" d="M59.4 12.5321L56.8227 14.2641L55.6773 12.5321L58.2546 10.8L59.4 12.5321ZM54.2454 15.9962L51.2352 18.0193L50.0897 16.2872L53.1 14.2641L54.2454 15.9962ZM19.0227 39.668L16.4454 41.4L15.3 39.6679L17.8773 37.9359L19.0227 39.668Z" fill="white"/>
</g>
</g>
</g>
<defs>
<clipPath id="clip0_301_29678">
<rect width="72" height="54" fill="white"/>
</clipPath>
<clipPath id="clip1_301_29678">
<rect width="81" height="54" fill="white" transform="translate(-4.5)"/>
</clipPath>
</defs>
</svg>
