<svg width="72" height="54" viewBox="0 0 72 54" fill="none" xmlns="http://www.w3.org/2000/svg">
<g clip-path="url(#clip0_301_29473)">
<mask id="mask0_301_29473" style="mask-type:alpha" maskUnits="userSpaceOnUse" x="0" y="0" width="72" height="54">
<rect x="0.5" y="0.5" width="71" height="53" fill="#D9D9D9" stroke="black"/>
</mask>
<g mask="url(#mask0_301_29473)">
<g clip-path="url(#clip1_301_29473)">
<path d="M-4.5 0H76.5V54H-4.5V0Z" fill="#055E1C"/>
<path d="M14.6434 19.2611C14.7668 20.0525 15.2452 20.3008 15.6611 20.2683C16.1516 20.2303 16.5817 19.7819 16.5817 19.3082V16.5925C16.5817 16.4565 16.6924 16.3455 16.8286 16.3455C16.9648 16.3455 17.0755 16.4564 17.0755 16.5925V19.3199C17.0755 19.6478 17.2375 19.9536 17.5093 20.1372C17.6752 20.2496 17.8683 20.3074 18.0629 20.3074C18.1867 20.3074 18.3112 20.2837 18.4298 20.2364L18.6766 20.1378C18.6993 22.4175 18.5607 24.421 18.5581 24.4578C18.5388 24.7298 18.7434 24.9661 19.0155 24.9854C19.0275 24.9864 19.0393 24.9868 19.0512 24.9868C19.3081 24.9868 19.5248 24.7881 19.5434 24.5282C19.5548 24.3677 19.707 22.1734 19.6614 19.7439L19.8107 19.6843C19.9415 19.6322 20.0886 19.6384 20.2144 19.7012C20.7583 19.9722 21.4128 19.8665 21.8426 19.4368L21.9316 19.348C22.3306 18.9482 22.4679 18.3675 22.2892 17.8318L21.8687 16.5705C22.0961 16.6389 22.3458 16.5382 22.4557 16.3193C22.5777 16.0754 22.4788 15.7788 22.2349 15.6567L21.2473 15.1629C21.0687 15.0732 20.8543 15.1008 20.7029 15.2313C20.5519 15.3626 20.4948 15.5713 20.558 15.7607L21.3525 18.1445C21.412 18.3228 21.3663 18.5167 21.2333 18.6498L21.1445 18.7386C21.0158 18.8673 20.8196 18.8987 20.6557 18.8177C20.3357 18.6577 19.9713 18.6278 19.6295 18.7149C19.5601 17.13 19.3894 15.5517 19.0258 14.4606C18.9397 14.2021 18.6606 14.0619 18.401 14.1486C18.1423 14.2344 18.0026 14.514 18.0888 14.7731C18.4446 15.8401 18.5995 17.4662 18.6546 19.083L18.0634 19.3194V16.592C18.0634 15.9112 17.5096 15.3575 16.8289 15.3575C16.1481 15.3575 15.5943 15.911 15.5943 16.592V18.9824L15.0905 16.4941C15.0369 16.2265 14.7766 16.0519 14.5087 16.1078C14.2412 16.1623 14.0684 16.4227 14.1227 16.6899L14.6434 19.2611Z" fill="#F5F5F5"/>
<path d="M15.5942 15.1111C15.867 15.1111 16.0881 14.8903 16.0881 14.6173V14.1234C16.0881 13.8506 15.867 13.6296 15.5942 13.6296C15.3215 13.6296 15.1004 13.8504 15.1004 14.1234V14.6173C15.1004 14.8901 15.3215 15.1111 15.5942 15.1111Z" fill="#F5F5F5"/>
<path d="M20.5325 14.6173H21.0264C21.2991 14.6173 21.5202 14.3965 21.5202 14.1234C21.5202 13.8506 21.2991 13.6296 21.0264 13.6296H20.5325C20.2598 13.6296 20.0387 13.8504 20.0387 14.1234C20.0387 14.3965 20.2598 14.6173 20.5325 14.6173Z" fill="#F5F5F5"/>
<path d="M17.3154 21.107L14.8464 22.5885C14.6124 22.7289 14.5368 23.0321 14.6771 23.2661C14.7696 23.4204 14.9331 23.5058 15.101 23.5058C15.1875 23.5058 15.2751 23.4831 15.3547 23.4353L17.8237 21.9538C18.0577 21.8134 18.1333 21.5102 17.993 21.2762C17.8526 21.0423 17.5495 20.9667 17.3154 21.107Z" fill="#F5F5F5"/>
<path d="M23.9725 21.9806L23.9841 21.9728C24.0255 22.1396 24.0966 22.3011 24.212 22.4368C24.4127 22.6731 24.7135 22.7918 25.0535 22.7637C25.5358 22.7285 25.8636 22.5082 26.0807 22.2236C26.1138 22.2463 26.1486 22.2671 26.1849 22.2854C26.4518 22.4199 26.7605 22.4098 27.0544 22.2573C27.8006 21.873 27.9614 20.9838 27.9387 20.5189C27.9254 20.2479 27.6949 20.0566 27.4246 20.0512C27.1534 20.0629 26.9423 20.2929 26.952 20.5639C26.9523 20.5702 26.9633 21.1561 26.6051 21.3736C26.5466 21.2922 26.4774 21.1088 26.4513 20.9574C26.4095 20.7033 26.1761 20.5263 25.9249 20.5466C25.6689 20.5668 25.4711 20.7819 25.4703 21.0389C25.47 21.1107 25.4541 21.7443 24.965 21.7974C24.908 21.7197 24.9071 21.3928 24.9631 21.1511C25.0104 20.9529 24.9309 20.746 24.7632 20.6303C24.5952 20.5141 24.3736 20.5141 24.2049 20.6285L23.9293 20.8159C23.7985 17.9523 23.497 14.6154 23.4933 14.5727C23.4687 14.3017 23.23 14.0996 22.9569 14.1257C22.6853 14.1503 22.485 14.3905 22.5097 14.6625C22.514 14.7082 22.8626 18.569 22.9702 21.5174C22.9449 21.5414 22.919 21.5676 22.8943 21.5906C22.699 21.0983 22.3119 20.7883 21.8134 20.741C21.1098 20.6789 20.3475 21.1577 20.0742 21.8415C19.8387 22.4298 19.9869 23.0081 20.4517 23.3142C20.7859 23.5346 21.2902 23.6039 21.9244 23.3817C21.7695 23.9256 21.4876 24.4774 21.1212 24.9041C20.793 25.2865 20.2449 25.7277 19.5436 25.708C19.1354 25.6919 18.8218 25.5584 18.5846 25.299C18.0129 24.6745 18.0622 23.5442 18.0626 23.5321C18.0768 23.2601 17.8685 23.0282 17.5967 23.0132C17.323 22.9842 17.0914 23.2066 17.0763 23.4791C17.0729 23.5417 17.0013 25.0271 17.8517 25.9611C18.2703 26.4216 18.8265 26.6681 19.5048 26.6946C19.5378 26.696 19.5709 26.6965 19.6041 26.6965C20.4301 26.6965 21.2316 26.2913 21.87 25.5473C22.4706 24.848 22.8784 23.8981 23.0007 23.0163C22.9992 24.7056 21.9811 26.6108 20.6315 27.4501C20.0583 27.806 19.1648 28.1272 18.1582 27.6309C16.9174 27.0185 17.0653 25.6003 17.0718 25.5424C17.1057 25.2718 16.9137 25.025 16.6431 24.9912C16.3738 24.9584 16.1254 25.1489 16.092 25.4199C16.0809 25.5082 15.8436 27.5899 17.7213 28.5163C18.2036 28.7544 18.708 28.8726 19.2163 28.8726C19.8692 28.8726 20.5282 28.6773 21.1528 28.2886C22.7961 27.2672 23.9888 25.0481 23.9888 23.0122C23.9887 22.6939 23.9826 22.3462 23.9725 21.9806ZM20.9949 22.4896C20.9066 22.4311 20.9756 22.2446 20.9905 22.2075C21.0945 21.9471 21.4198 21.7219 21.6796 21.7219C21.6929 21.7219 21.7064 21.7223 21.7193 21.7237C21.7825 21.7295 21.9501 21.7454 22.0221 22.1182C22.0298 22.1578 22.0363 22.1982 22.0414 22.2397C21.4911 22.5629 21.1222 22.5732 20.9949 22.4896Z" fill="#F5F5F5"/>
<path d="M15.8428 27.0311C15.6088 26.8936 15.3065 26.9722 15.1677 27.2062C15.145 27.2442 15.1149 27.2858 15.0843 27.3233C15.0789 27.3108 15.0736 27.2973 15.0682 27.2827C14.8623 26.7334 15.0089 25.8872 15.083 25.6074C15.1527 25.3442 14.9959 25.0741 14.7328 25.0036C14.47 24.936 14.1996 25.0894 14.129 25.3528C14.0931 25.4863 13.7895 26.6851 14.1435 27.6294C14.3701 28.2332 14.718 28.3856 14.9702 28.4062C14.9926 28.408 15.0147 28.409 15.0367 28.409C15.5683 28.409 15.9221 27.8733 16.0204 27.7036C16.1568 27.4685 16.0769 27.169 15.8428 27.0311Z" fill="#F5F5F5"/>
<path d="M24.9546 18.0738C25.0615 18.0738 25.169 18.0395 25.2593 17.9682L27.7489 16.0138C27.7832 15.9868 27.8052 15.9515 27.8303 15.9183C28.1889 15.702 28.4314 15.3126 28.4314 14.8644C28.4314 14.1835 27.8776 13.6298 27.1968 13.6298C26.5161 13.6298 25.9623 14.1834 25.9623 14.8644C25.9623 15.2454 26.1394 15.5821 26.4113 15.8087L24.6492 17.192C24.4348 17.3603 24.3975 17.6708 24.5658 17.8849C24.6633 18.0091 24.8083 18.0738 24.9546 18.0738ZM27.197 14.6173C27.3332 14.6173 27.4439 14.7281 27.4439 14.8642C27.4439 15.0003 27.3332 15.1111 27.197 15.1111C27.0608 15.1111 26.9501 15.0003 26.9501 14.8642C26.9501 14.7281 27.0608 14.6173 27.197 14.6173Z" fill="#F5F5F5"/>
<path d="M26.6126 17.6057C26.3525 17.519 26.0739 17.6592 25.9878 17.9178C25.935 18.0759 25.6962 18.8905 26.1802 19.374C26.3681 19.562 26.6149 19.6561 26.918 19.6555C27.1205 19.6555 27.3481 19.6141 27.6001 19.5297C27.8588 19.4438 27.9986 19.1643 27.9123 18.9051C27.826 18.6466 27.5469 18.5058 27.2875 18.5931C27.0116 18.6848 26.895 18.6699 26.8843 18.6794C26.8553 18.6062 26.8744 18.3856 26.9251 18.228C27.0105 17.9703 26.8707 17.6916 26.6126 17.6057Z" fill="#F5F5F5"/>
<path d="M32.266 15.5643C32.3124 15.5777 32.3588 15.584 32.4046 15.584C32.6185 15.584 32.8154 15.4442 32.8784 15.2285L33.1665 14.241C33.2428 13.9792 33.0924 13.7047 32.8309 13.6285C32.5684 13.5528 32.2949 13.7023 32.2184 13.9641L31.9304 14.9517C31.8539 15.2139 32.0043 15.4882 32.266 15.5643Z" fill="#F5F5F5"/>
<path d="M29.3857 15.5065C29.4641 15.5523 29.5501 15.5741 29.6345 15.5741C29.8042 15.5741 29.9694 15.4868 30.0612 15.3297C30.1988 15.0944 30.1197 14.7915 29.8842 14.6541C29.7849 14.5962 29.7984 14.4327 29.8021 14.4004C29.8168 14.2707 29.8942 14.1124 30.0287 14.0706C30.2891 13.9897 30.4346 13.7128 30.3535 13.4524C30.2721 13.1916 29.9958 13.0473 29.735 13.1273C29.2427 13.2806 28.8838 13.7364 28.8207 14.2881C28.7622 14.8015 28.9787 15.2684 29.3857 15.5065Z" fill="#F5F5F5"/>
<path d="M25.468 23.5056C25.1952 23.5056 24.9741 23.7264 24.9741 23.9995C24.9741 24.2406 25.1468 24.4412 25.3753 24.4845C25.4013 24.5225 25.4678 24.6534 25.4678 24.987C25.4678 25.2599 25.6889 25.4808 25.9616 25.4808C26.2344 25.4808 26.4555 25.26 26.4555 24.987C26.4556 23.5225 25.5083 23.5056 25.468 23.5056Z" fill="#F5F5F5"/>
<path d="M33.8459 21.461C33.9079 21.4712 33.9696 21.4759 34.0316 21.4759C34.4196 21.4759 34.8115 21.2802 35.1998 20.892C35.3926 20.6991 35.3926 20.3867 35.1998 20.1938C35.0069 20.001 34.6944 20.001 34.5016 20.1938C34.2063 20.4894 34.0474 20.4956 34.0066 20.4864C33.9124 20.4729 33.827 20.3499 33.808 20.3163C33.6841 20.076 33.3903 19.9802 33.1485 20.1011C32.9046 20.2232 32.8056 20.5198 32.9277 20.7637C32.9582 20.825 33.2433 21.3631 33.8459 21.461Z" fill="#F5F5F5"/>
<path d="M42.2402 17.9909C42.2371 17.9832 42.2341 17.976 42.2317 17.9692C42.1441 17.7128 41.8644 17.5733 41.6084 17.6606C41.3495 17.7464 41.2097 18.026 41.296 18.2851C41.3344 18.4007 41.5545 18.9814 42.0994 19.0546C42.1359 19.0595 42.1721 19.0619 42.208 19.0619C42.5501 19.0619 42.871 18.8405 43.163 18.4026C43.3141 18.176 43.2528 17.8693 43.0259 17.7179C42.7987 17.5669 42.4921 17.6276 42.3412 17.855C42.3022 17.9133 42.2684 17.9577 42.2402 17.9909Z" fill="#F5F5F5"/>
<path d="M41.2699 26.9621C41.2699 24.8564 41.1774 22.8809 41.0488 21.15C41.7499 22.366 42.3807 23.5947 42.7826 24.6667C42.8571 24.8649 43.0451 24.987 43.2449 24.987C43.3025 24.987 43.3611 24.9767 43.4182 24.9556C43.6736 24.8597 43.803 24.5751 43.7072 24.3196C43.0821 22.6533 41.9588 20.6689 40.8516 18.9073C40.5816 16.2473 40.2794 14.5589 40.2741 14.5289C40.2255 14.2604 39.9689 14.079 39.7001 14.1314C39.4318 14.1801 39.2538 14.4371 39.3025 14.7053C39.3065 14.7267 39.462 15.5964 39.6481 17.0602C39.2686 16.4972 38.9161 15.9893 38.6204 15.5713L38.6445 15.579C38.9046 15.6657 39.1829 15.5255 39.2693 15.2669C39.3556 15.0079 39.2158 14.7282 38.9571 14.6424L37.4756 14.1486C37.2702 14.0792 37.0447 14.1525 36.919 14.3281C36.8853 14.3749 36.8623 14.4263 36.8467 14.4793C36.5511 14.2608 36.172 14.0831 35.8161 14.2321C35.6008 14.3214 35.3442 14.546 35.3442 15.1107C35.3442 15.5442 35.5096 16.0129 35.685 16.5096C35.9757 17.3332 36.1578 17.9388 35.8498 18.2278C35.6797 18.3873 35.5096 18.4476 35.3438 18.4057C35.0393 18.3285 34.7379 17.9229 34.5371 17.3207C34.5283 17.2946 34.5101 17.2756 34.4976 17.2522C34.6015 16.4873 34.5562 15.5658 34.3469 14.5201C34.2937 14.2524 34.0342 14.0783 33.7658 14.1328C33.4983 14.1863 33.3251 14.4463 33.3786 14.7139C33.701 16.3264 33.6042 17.6418 33.1199 18.2327C32.9326 18.4613 32.6979 18.5673 32.3814 18.5673C32.2814 18.5673 32.2131 18.5355 32.1451 18.4574C31.7556 18.0084 31.7572 16.5598 31.8829 15.6739C31.9029 15.5327 31.8605 15.3889 31.7667 15.2808C31.6729 15.1728 31.5369 15.1107 31.3939 15.1107C30.5443 15.1107 30.2222 16.077 29.9378 16.9296C29.8132 17.3044 29.5808 18.0011 29.4187 18.0735C29.1199 18.0735 28.9266 17.1958 28.9249 16.5916C28.9241 16.3191 28.7034 16.0988 28.4311 16.0988C28.4311 16.0988 28.4307 16.0988 28.4302 16.0988C28.1578 16.0988 27.9371 16.3196 27.9371 16.592C27.9371 17.7309 28.3251 19.061 29.4186 19.061C30.2328 19.061 30.5626 18.1737 30.8388 17.3491C30.8867 18.0048 31.0349 18.6843 31.3989 19.1039C31.6547 19.399 31.9943 19.5547 32.3814 19.5547C32.991 19.5547 33.5103 19.314 33.8835 18.8588C33.9512 18.7765 34.0093 18.6818 34.0668 18.5863C34.3535 18.9939 34.7052 19.2628 35.1016 19.3628C35.2178 19.3922 35.3347 19.4071 35.4504 19.4071C35.8315 19.4071 36.204 19.2499 36.5257 18.9475C36.5926 18.8845 36.6397 18.8159 36.6906 18.7483C36.8114 18.7827 36.9339 18.8032 37.0555 18.8032C37.4555 18.8032 37.8406 18.6421 38.0796 18.4887C38.3082 18.3421 38.3743 18.0393 38.2292 17.8097C38.0837 17.5807 37.7795 17.5121 37.5493 17.6559C37.545 17.6579 37.2152 17.8474 36.9903 17.8029C36.9909 17.2615 36.7951 16.6867 36.6163 16.1802C36.5145 15.8917 36.4101 15.5963 36.3608 15.3548C36.4016 15.3891 36.4413 15.4247 36.4769 15.4593C36.6693 15.6522 36.9821 15.6522 37.1749 15.4593C37.2069 15.4274 37.2253 15.3887 37.2466 15.3513C37.7585 16.0565 38.8112 17.5382 39.8941 19.2463C40.1009 21.3458 40.2822 24.024 40.2822 26.9614C40.2822 27.2343 40.5033 27.4552 40.7761 27.4552C41.0488 27.4558 41.2699 27.2351 41.2699 26.9621Z" fill="#F5F5F5"/>
<path d="M41.7644 16.0987C41.7644 16.3715 41.9855 16.5925 42.2582 16.5925C42.531 16.5925 42.7521 16.3717 42.7521 16.0987C42.7521 15.5176 42.2974 14.5787 42.2062 14.3964C42.0841 14.1529 41.7878 14.0545 41.5436 14.1756C41.2997 14.2976 41.2006 14.5942 41.3228 14.8381C41.5009 15.1944 41.7644 15.8411 41.7644 16.0987Z" fill="#F5F5F5"/>
<path d="M39.517 27.0161C39.2749 26.8926 38.9775 26.9906 38.8541 27.2336C38.8011 27.3372 38.7189 27.4526 38.6495 27.5268C38.6277 27.3306 38.6799 26.9385 38.7795 26.6135C38.8458 26.3965 38.7558 26.1621 38.5615 26.0455C38.368 25.9284 38.1184 25.9588 37.9582 26.1193L36.9707 27.1068C36.7778 27.2996 36.7778 27.6121 36.9707 27.8049C37.1635 27.9978 37.476 27.9978 37.6688 27.8049L37.6939 27.7798C37.7367 27.9781 37.8184 28.1589 37.9583 28.2988C38.1435 28.484 38.3673 28.5819 38.5999 28.5819C38.645 28.5819 38.6902 28.5779 38.7357 28.5708C39.295 28.4801 39.6433 27.8634 39.7366 27.6767C39.858 27.4332 39.7596 27.1387 39.517 27.0161Z" fill="#F5F5F5"/>
<path d="M39.3255 23.0426H35.8453C35.8761 22.9197 35.9078 22.8024 35.9403 22.6911C37.3282 22.4026 38.153 21.9547 38.3956 21.357C38.4794 21.1496 38.567 20.7306 38.2098 20.2488C37.8878 19.8147 37.4335 19.62 36.9615 19.7164C36.2598 19.8586 35.6345 20.6146 35.186 21.8251C33.792 22.0638 32.8997 22.5641 32.3348 23.0578C32.1345 21.0343 31.349 19.8322 31.3107 19.775C31.1593 19.5478 30.8525 19.4865 30.626 19.6379C30.3991 19.7893 30.3379 20.0956 30.4889 20.3226C30.4979 20.3361 31.3936 21.706 31.3936 23.9991C31.3936 26.2529 29.5964 27.9494 28.4309 27.9494C27.8765 27.9494 27.6337 27.2904 27.5271 26.733C28.6683 25.9332 29.6753 25.0077 29.8976 24.1186C30.1986 22.9153 29.8199 22.0286 29.5692 21.4418C29.5575 21.4148 29.5451 21.3859 29.5326 21.356C29.5433 21.3656 29.5534 21.3757 29.5634 21.3853C29.7559 21.5782 30.0686 21.5782 30.2615 21.3853C30.4543 21.1925 30.4543 20.88 30.2615 20.6872C29.9728 20.3982 29.4123 19.9444 28.9027 20.1577C28.6875 20.247 28.4309 20.4716 28.4309 21.0362C28.4309 21.2914 28.5375 21.5406 28.6609 21.8299C28.8833 22.3503 29.1599 22.9979 28.9393 23.8793C28.8089 24.4009 28.1684 25.0337 27.323 25.6621C27.2324 25.5536 27.1015 25.4808 26.9494 25.4808H26.9486C26.6761 25.4813 26.4554 25.7016 26.4554 25.9741C26.4554 26.0629 26.4594 26.1579 26.4651 26.2554C25.4083 26.9398 24.2125 27.5732 23.2881 27.9935C23.0401 28.1065 22.9304 28.3991 23.0432 28.6474C23.1259 28.8292 23.3053 28.9368 23.4929 28.9368C23.5613 28.9368 23.6308 28.9229 23.697 28.8925C23.9745 28.7664 25.2924 28.1523 26.6462 27.3134C26.8955 28.1599 27.4238 28.9371 28.4307 28.9371C29.6154 28.9371 30.9592 27.9684 31.7347 26.5223C31.8284 26.6876 31.9359 26.846 32.0644 26.9937C33.3073 28.4269 35.735 28.4432 35.8377 28.4432C36.1037 28.4432 36.3216 28.2329 36.3313 27.9673C36.3406 27.7015 36.1381 27.4759 35.8731 27.4571C35.8691 27.4567 35.4756 27.4133 35.2568 27.1577C35.1247 27.0035 35.0719 26.7912 35.0952 26.5092C35.1457 25.9007 37.1086 25.4458 38.8386 25.419C39.0448 25.4156 39.2273 25.2849 39.2964 25.0906L39.7902 23.7019C39.8438 23.5509 39.8209 23.3826 39.7282 23.2521C39.6367 23.1207 39.4858 23.0426 39.3255 23.0426ZM37.158 20.6846C37.1674 20.6828 37.1799 20.6798 37.1956 20.6798C37.2429 20.6798 37.3174 20.7029 37.4167 20.837C37.4354 20.8621 37.4956 20.9478 37.4804 20.9856C37.4238 21.1254 37.0828 21.3564 36.3726 21.5657C36.6849 20.9561 36.9904 20.7184 37.158 20.6846ZM34.1759 27.1757C33.6743 27.0127 33.163 26.7543 32.8091 26.3449C32.4201 25.8951 32.2765 25.326 32.3707 24.606C32.3849 24.5681 32.4173 24.4936 32.4737 24.3967C33.1691 24.333 35.0268 24.607 35.1555 25.139C34.5824 25.4315 34.1604 25.8427 34.1116 26.4273C34.0871 26.7207 34.117 26.969 34.1759 27.1757Z" fill="#F5F5F5"/>
<path d="M44.7018 15.9425L44.208 14.461C44.1284 14.2229 43.8813 14.0805 43.6363 14.1345C43.3901 14.1871 43.2231 14.416 43.2482 14.6663C43.5889 18.0737 44.2334 24.7187 44.2334 25.4807C44.2334 26.165 43.0163 27.5122 41.0498 28.4956C40.8059 28.6177 40.7068 28.9141 40.829 29.1582C40.9155 29.3313 41.0898 29.4311 41.2712 29.4311C41.3452 29.4311 41.4207 29.4142 41.4915 29.379C43.2879 28.4807 45.2211 26.8778 45.2211 25.4807C45.2211 24.7512 44.7165 19.5017 44.4274 16.5529C44.6614 16.453 44.7837 16.1885 44.7018 15.9425Z" fill="#F5F5F5"/>
<path d="M48.8222 20.3983C48.9173 20.4934 49.0436 20.543 49.1716 20.543C49.2551 20.543 49.3392 20.5219 49.4156 20.4783C49.6087 20.3684 49.7046 20.1427 49.65 19.9272C49.5616 19.5801 49.5321 19.146 49.5789 18.9686C49.8262 18.9763 50.0558 18.8003 50.0922 18.5452C50.1306 18.2751 49.9432 18.0248 49.6732 17.9863C49.3467 17.9421 49.0601 18.038 48.8599 18.2606C48.7302 18.4054 48.653 18.591 48.6111 18.7907L48.0392 18.2188C47.8464 18.0259 47.5339 18.0259 47.341 18.2188C47.1482 18.4116 47.1482 18.7241 47.341 18.917L48.8222 20.3983Z" fill="#F5F5F5"/>
<path d="M49.9327 20.9132L48.081 22.2403C47.8594 22.3989 47.8082 22.7076 47.9671 22.9294C48.0636 23.0639 48.2152 23.1353 48.3692 23.1353C48.4688 23.1353 48.5692 23.1053 48.6564 23.0427L50.5081 21.7156C50.7296 21.557 50.7808 21.2484 50.6219 21.0266C50.4627 20.8046 50.1536 20.753 49.9327 20.9132Z" fill="#F5F5F5"/>
<path d="M49.7695 22.7701C49.6142 22.9702 49.6364 23.2519 49.8128 23.425C49.834 23.4608 49.9303 23.6497 49.9129 24.1358C49.9032 24.4087 50.1164 24.6373 50.3888 24.647C50.3948 24.6474 50.4009 24.6474 50.4067 24.6474C50.6715 24.6474 50.8904 24.4375 50.9 24.1714C50.9359 23.1636 50.6061 22.7952 50.4626 22.6837C50.2478 22.5156 49.937 22.5551 49.7695 22.7701Z" fill="#F5F5F5"/>
<path d="M54.0791 26.4067C54.3518 26.4067 54.5729 26.1859 54.5729 25.9128C54.5729 25.1843 54.5355 24.3709 54.4743 23.5247C54.964 24.3271 55.3707 25.0668 55.6315 25.6752C55.7116 25.8627 55.8938 25.9746 56.0855 25.9746C56.1503 25.9746 56.2163 25.9621 56.2797 25.9346C56.5304 25.827 56.6464 25.5367 56.5389 25.2865C56.0868 24.2314 55.2419 22.8339 54.2796 21.3912C54.0859 19.5788 53.8329 17.8029 53.6362 16.529C53.7408 16.5396 53.8493 16.5141 53.9446 16.4522C54.1005 16.3523 54.1736 16.1788 54.1631 16.0061C54.1757 16.0546 54.1894 16.1033 54.2177 16.148C54.2211 16.1528 54.5384 16.6768 54.3977 17.357C54.3423 17.6236 54.5142 17.885 54.7812 17.9404C54.815 17.947 54.8488 17.9506 54.8817 17.9506C55.1109 17.9506 55.3164 17.7899 55.3649 17.5566C55.5878 16.4779 55.0728 15.6524 55.051 15.6177C54.9044 15.3881 54.599 15.3207 54.369 15.4663C54.2125 15.566 54.1384 15.7397 54.1485 15.9128C54.1357 15.864 54.1217 15.8149 54.0929 15.7702L53.2595 14.4741C53.1322 14.2762 52.883 14.1962 52.6644 14.2812C52.4452 14.3671 52.3169 14.5951 52.3577 14.8265C52.3646 14.8654 52.7419 17.0323 53.0764 19.6441C52.6978 19.1095 52.3193 18.5869 51.9522 18.0879C51.8926 17.3408 51.8327 16.6502 51.781 16.079C51.8082 16.0709 51.835 16.0603 51.8613 16.0472C52.1052 15.9252 52.2043 15.6286 52.0821 15.3847L51.5882 14.3971C51.4817 14.184 51.2385 14.0779 51.0094 14.1434C50.7807 14.21 50.6315 14.4298 50.6552 14.667C50.7141 15.2564 50.7754 15.9087 50.8356 16.594C50.5233 16.1823 50.2343 15.8054 49.987 15.4863C50.0352 15.4448 50.0764 15.3933 50.1068 15.3324C50.2288 15.0885 50.1299 14.7919 49.886 14.6699L48.8984 14.1761C48.6913 14.0729 48.4398 14.127 48.2935 14.3073C48.1479 14.4877 48.1471 14.7451 48.2921 14.9264C48.3188 14.9597 49.5346 16.4837 50.989 18.4508C51.2413 21.7133 51.4093 25.1073 51.172 25.8188C51.1286 25.9489 51.0528 26.1023 50.9817 26.1077C50.6833 26.1491 49.971 25.4819 49.6132 24.7667C49.407 24.3549 49.1105 24.312 48.9518 24.3191C48.4211 24.3519 48.214 24.9358 47.8377 25.9959C47.568 26.7553 47.2328 27.6996 46.8564 28.0858C46.6525 27.8366 46.3889 27.0007 46.2424 26.1417C46.3111 26.3316 46.4889 26.469 46.7026 26.469C46.9754 26.469 47.1964 26.2482 47.1964 25.9751C47.1964 25.2387 46.6815 19.6304 46.3938 16.5569C46.6341 16.4604 46.7604 16.192 46.6774 15.9431L46.1835 14.4616C46.1042 14.2235 45.8606 14.083 45.6128 14.1346C45.3672 14.1867 45.1996 14.4147 45.2234 14.6646C45.559 18.1873 46.1882 24.9913 46.2078 25.9304C46.2065 25.9219 46.2048 25.9137 46.2037 25.9052C46.1654 25.6351 45.9133 25.4499 45.645 25.4861C45.375 25.5252 45.1876 25.7751 45.2261 26.045C45.3703 27.0543 45.7388 28.7897 46.5874 29.0723C46.6544 29.0951 46.7446 29.1152 46.8505 29.1152C47.0452 29.1152 47.2924 29.0462 47.5454 28.7931C48.0832 28.2554 48.4472 27.2301 48.7683 26.3261C48.8408 26.1216 48.9268 25.8795 49.0077 25.6722C49.4607 26.3337 50.2511 27.1573 51.0518 27.0929C51.3334 27.0728 51.8455 26.9214 52.1089 26.1314C52.3714 25.3437 52.2677 22.5965 52.0907 19.9665C52.5068 20.5496 52.9231 21.1467 53.3205 21.7363C53.4746 23.2151 53.5847 24.6966 53.5847 25.9134C53.5854 26.1857 53.8065 26.4067 54.0791 26.4067Z" fill="#F5F5F5"/>
<path d="M57.8268 23.8094C57.477 21.2035 56.9897 18.1848 56.681 16.3321C56.8204 16.3664 56.9722 16.3383 57.0947 16.2442C57.3117 16.0789 57.3532 15.7687 57.1876 15.5523L56.2926 14.3794C56.1546 14.1991 55.9109 14.1355 55.7025 14.2266C55.4939 14.3177 55.3747 14.5397 55.4135 14.7639C55.4225 14.8144 56.303 19.8835 56.8476 23.9406C57.0557 25.4909 56.752 26.8764 56.0347 27.646C55.5736 28.1404 54.9627 28.364 54.2234 28.321C53.9519 28.3065 53.7165 28.5109 53.6995 28.7829C53.6824 29.0549 53.8889 29.2894 54.1612 29.3065C54.2447 29.3119 54.3268 29.3142 54.4083 29.3142C55.3395 29.3142 56.1476 28.9729 56.7569 28.3189C57.6877 27.321 58.0777 25.677 57.8268 23.8094Z" fill="#F5F5F5"/>
<path d="M52.3926 27.0644C52.2111 27.2616 52.225 27.5721 52.417 27.7584C52.4438 27.7844 52.4759 27.8356 52.476 27.8608C52.4763 27.8747 52.4563 27.9162 52.4014 27.9712C52.2085 28.164 52.2085 28.4765 52.4014 28.6693C52.4979 28.7658 52.6242 28.8141 52.7506 28.8141C52.8769 28.8141 53.0033 28.7658 53.0998 28.6693C53.413 28.3563 53.4705 28.0386 53.4634 27.8268C53.4482 27.3712 53.1378 27.077 53.076 27.0225C52.8741 26.847 52.5739 26.8681 52.3926 27.0644Z" fill="#F5F5F5"/>
<path d="M50.654 37.8936H50.1602H47.1975V37.3997C47.1975 37.1268 46.9764 36.9059 46.7037 36.9059C46.4309 36.9059 46.2099 37.1267 46.2099 37.3997V37.8936H20.0387C21.0262 38.8811 23.0014 39.375 24.4829 39.375C25.5453 39.375 38.798 39.375 46.2099 39.375V40.3625C46.2099 40.6354 46.4309 40.8564 46.7037 40.8564H50.654C51.471 40.8564 52.1355 40.1918 52.1355 39.3749C52.1355 38.5579 51.471 37.8936 50.654 37.8936ZM50.654 39.8687H47.1974V39.3749C49.5771 39.3749 51.1477 39.3749 51.1477 39.3749L51.059 39.1091C51.1104 39.1869 51.1477 39.2747 51.1477 39.3749C51.1477 39.6475 50.9262 39.8687 50.654 39.8687Z" fill="#F5F5F5"/>
</g>
</g>
</g>
<defs>
<clipPath id="clip0_301_29473">
<rect width="72" height="54" fill="white"/>
</clipPath>
<clipPath id="clip1_301_29473">
<rect width="81" height="54" fill="white" transform="translate(-4.5)"/>
</clipPath>
</defs>
</svg>
