<svg width="72" height="54" viewBox="0 0 72 54" fill="none" xmlns="http://www.w3.org/2000/svg">
<g clip-path="url(#clip0_301_29475)">
<mask id="mask0_301_29475" style="mask-type:alpha" maskUnits="userSpaceOnUse" x="0" y="0" width="72" height="54">
<rect x="0.5" y="0.5" width="71" height="53" fill="#D9D9D9" stroke="black"/>
</mask>
<g mask="url(#mask0_301_29475)">
<g clip-path="url(#clip1_301_29475)">
<path d="M49.5 0H-4.5V53.8895H76.5V0H49.5Z" fill="#CE2028"/>
<path d="M-4.5 0H22.5V54H-4.5V0Z" fill="#006848"/>
<path d="M22.5 0H49.5V54H22.5V0Z" fill="white"/>
<path d="M38.8567 27.3542L36 28.7881V30.2219H37.4284L38.8567 27.3542Z" fill="#FCB514"/>
<path d="M36.0452 33.5495C35.669 33.5495 35.3644 33.2437 35.3644 32.866V30.1328C35.3644 29.7551 35.669 29.4493 36.0452 29.4493C36.4215 29.4493 36.7261 29.7551 36.7261 30.1328V32.866C36.7261 33.2437 36.4215 33.5495 36.0452 33.5495Z" fill="#006848"/>
<path d="M36.0452 30.8162C33.3715 30.8162 30.7897 29.7806 28.775 27.9001C28.4997 27.6432 28.4838 27.2107 28.7395 26.9346C28.9974 26.659 29.4277 26.6443 29.7013 26.899C31.4635 28.544 33.7165 29.4495 36.0451 29.4495C38.3737 29.4495 40.6266 28.544 42.3888 26.899C42.6633 26.6436 43.0934 26.6576 43.3506 26.9346C43.6065 27.2109 43.5906 27.6433 43.3152 27.9001C41.3008 29.7807 38.719 30.8162 36.0452 30.8162Z" fill="#006848"/>
<path d="M36.0893 33.6273C34.3366 33.6273 32.6389 33.102 31.1793 32.1075L31.9364 30.9388C34.4041 32.621 37.7745 32.621 40.242 30.9388L40.9991 32.1075C39.5397 33.1022 37.842 33.6273 36.0893 33.6273Z" fill="#75C5F0"/>
<path d="M34.9081 24.3072L33.3997 26.5997L33.1434 27.3542L37.0713 26.4597L34.9081 24.3072Z" fill="#732D37"/>
<path d="M31.9488 28.2504C30.1547 28.2504 28.0012 26.7169 27.4299 23.3001L28.7688 23.0699C29.2434 25.9112 30.9644 26.8737 31.9979 26.8712C32.3147 26.8623 32.6453 26.7513 32.6713 26.5239C32.7018 26.2519 32.7091 26.1874 31.9993 25.9436C31.6134 25.8109 31.1761 25.661 30.8692 25.3042C29.6277 23.8643 31.3085 22.3405 32.1161 21.6081C32.2585 21.4788 32.3176 21.3691 32.3024 21.3274C32.258 21.2095 31.9916 21.0313 31.6914 21.0313C30.8291 21.0313 30.1749 20.5366 29.9848 19.7409C29.7872 18.9169 30.1604 18.0486 30.871 17.6757L31.4942 18.9008C31.3276 18.9883 31.2616 19.2373 31.3039 19.4151C31.3205 19.4864 31.361 19.6527 31.6917 19.6527C32.5228 19.6527 33.3136 20.1509 33.5707 20.8361C33.6807 21.1282 33.8463 21.8875 33.0206 22.6367C32.1291 23.4453 31.5956 24.0538 31.8912 24.3964C31.9581 24.4737 32.2452 24.5728 32.4347 24.6374C33.0457 24.8475 34.1831 25.2379 34.0202 26.6818C33.918 27.5898 33.1201 28.2198 32.0358 28.2497C32.0066 28.2497 31.9774 28.2504 31.9488 28.2504Z" fill="#6B6B22"/>
<path d="M37.3762 20.5491C37.3762 20.5491 38.7524 17.8271 36 16.466C36 16.466 45.6331 15.105 44.2569 27.3542L44.2564 27.3537C43.3533 26.6391 42.0123 25.3331 41.5334 24.2919L37.3762 21.9099V20.5491Z" fill="#874150"/>
<path d="M36 23.2319L42.7846 27.399C42.7846 27.399 42.7846 27.399 40.0708 28.7881L36 24.6212V23.2319Z" fill="#732D37"/>
<path d="M33.322 19.2214C34.0861 19.2214 34.7057 19.8334 34.7057 20.5881L34.7042 20.5895C33.8787 21.4049 33.6742 22.6502 34.1962 23.6815L34.5088 24.2993C34.6391 24.5567 34.8107 24.7919 35.0168 24.9954L38.8568 28.7881V26.8994C38.8568 24.5465 38.3022 22.2258 37.2368 20.1214C36.5336 18.7324 35.0963 17.8549 33.5241 17.8549H33.3221V19.2218H33.322V19.2214V19.2214Z" fill="#783C46"/>
<path d="M33.2896 17.8549L31.8932 19.1992V20.5434C31.8932 20.5434 33.5542 19.7328 34.114 19.4745C34.5053 19.294 34.4341 18.8672 34.2096 18.6615C34.0348 18.5016 33.2896 17.8549 33.2896 17.8549Z" fill="#FCB514"/>
<path d="M35.9998 36.3158C29.6006 36.3158 24.3947 31.0897 24.3947 24.6657H25.7601C25.7601 30.3343 30.3533 34.9453 36 34.9453C41.6467 34.9453 46.2399 30.3343 46.2399 24.6657H47.6053C47.6049 31.0897 42.3991 36.3158 35.9998 36.3158Z" fill="#006848"/>
<path d="M25.9147 29.6492C26.4249 29.6492 26.8385 29.234 26.8385 28.7218C26.8385 28.2096 26.4249 27.7944 25.9147 27.7944C25.4045 27.7944 24.9908 28.2096 24.9908 28.7218C24.9908 29.234 25.4045 29.6492 25.9147 29.6492Z" fill="#C82119"/>
<path d="M27.9565 32.9236C28.4668 32.9236 28.8804 32.5084 28.8804 31.9962C28.8804 31.484 28.4668 31.0688 27.9565 31.0688C27.4463 31.0688 27.0327 31.484 27.0327 31.9962C27.0327 32.5084 27.4463 32.9236 27.9565 32.9236Z" fill="#C82119"/>
<path d="M31.2742 35.3993C31.7844 35.3993 32.198 34.9841 32.198 34.4719C32.198 33.9597 31.7844 33.5445 31.2742 33.5445C30.764 33.5445 30.3503 33.9597 30.3503 34.4719C30.3503 34.9841 30.764 35.3993 31.2742 35.3993Z" fill="#C82119"/>
<path d="M46.2865 29.6492C46.7967 29.6492 47.2103 29.234 47.2103 28.7218C47.2103 28.2096 46.7967 27.7944 46.2865 27.7944C45.7763 27.7944 45.3626 28.2096 45.3626 28.7218C45.3626 29.234 45.7763 29.6492 46.2865 29.6492Z" fill="#C82119"/>
<path d="M44.2419 32.9236C44.7521 32.9236 45.1658 32.5084 45.1658 31.9962C45.1658 31.484 44.7521 31.0688 44.2419 31.0688C43.7317 31.0688 43.3181 31.484 43.3181 31.9962C43.3181 32.5084 43.7317 32.9236 44.2419 32.9236Z" fill="#C82119"/>
<path d="M40.9239 35.3993C41.4342 35.3993 41.8478 34.9841 41.8478 34.4719C41.8478 33.9597 41.4342 33.5445 40.9239 33.5445C40.4137 33.5445 40.0001 33.9597 40.0001 34.4719C40.0001 34.9841 40.4137 35.3993 40.9239 35.3993Z" fill="#C82119"/>
<path d="M36.7735 34.165H35.4047C34.6488 34.165 34.0359 33.5631 34.0359 32.8208C34.0359 32.0785 34.6488 31.4765 35.4047 31.4765H36.7735C37.5294 31.4765 38.1424 32.0785 38.1424 32.8208C38.1424 33.5633 37.5294 34.165 36.7735 34.165Z" fill="#97946B"/>
<path d="M41.5334 24.2918C41.9922 25.6245 42.9669 26.8438 44.2564 27.3537L44.2569 27.3542C45.6331 15.1051 36 16.466 36 16.466C42.8807 16.466 41.5334 24.2918 41.5334 24.2918Z" fill="#9B4B5A"/>
</g>
</g>
</g>
<defs>
<clipPath id="clip0_301_29475">
<rect width="72" height="54" fill="white"/>
</clipPath>
<clipPath id="clip1_301_29475">
<rect width="81" height="54" fill="white" transform="translate(-4.5)"/>
</clipPath>
</defs>
</svg>
