<svg width="72" height="54" viewBox="0 0 72 54" fill="none" xmlns="http://www.w3.org/2000/svg">
<g clip-path="url(#clip0_301_29666)">
<mask id="mask0_301_29666" style="mask-type:alpha" maskUnits="userSpaceOnUse" x="0" y="0" width="72" height="54">
<rect x="0.5" y="0.5" width="71" height="53" fill="#D9D9D9" stroke="black"/>
</mask>
<g mask="url(#mask0_301_29666)">
<g clip-path="url(#clip1_301_29666)">
<path d="M-4.5 0.000701904H76.5V53.9996H-4.5V0.000701904Z" fill="#D80027"/>
<path d="M26.6092 0.000701904V53.9996H-4.5V0.000701904H26.6092Z" fill="#6DA544"/>
<path fill-rule="evenodd" clip-rule="evenodd" d="M25.7052 35.8921V33.9848L22.7323 35.0563C23.6474 35.4971 24.6493 35.7865 25.7052 35.8921ZM20.707 33.7141L22.5731 32.53L19.2855 32.1285C19.6951 32.7121 20.1728 33.2445 20.707 33.7141ZM18.0915 29.7252L23.0319 26.7206L17.8254 25.3237C17.7223 25.8667 17.6684 26.427 17.6684 27C17.6684 27.9503 17.8167 28.866 18.0915 29.7252ZM16.5561 23.2109C16.1116 24.3892 15.8684 25.6662 15.8684 27C15.8684 32.9298 20.6755 37.7369 26.6053 37.7369C32.5351 37.7369 37.3421 32.9298 37.3421 27C37.3421 21.0702 32.5351 16.2632 26.6053 16.2632C22.0103 16.2632 18.0894 19.1497 16.5571 23.2083L16.5562 23.2085L16.5561 23.2109ZM19.4364 21.6629L20.6112 22.4768L25.7052 21.5575V18.1079C23.1415 18.3643 20.8971 19.7042 19.4364 21.6629ZM32.4749 33.7392C31.1171 34.9228 29.3982 35.7028 27.5052 35.8921V33.3361L27.9276 33.1839L32.4749 33.7392ZM34.1215 31.8366C34.3483 31.4849 34.551 31.1164 34.7274 30.7332L33.2812 31.2544L34.1215 31.8366ZM35.4632 28.1924C35.5153 27.8024 35.5421 27.4043 35.5421 27C35.5421 26.8131 35.5364 26.6276 35.5251 26.4436L33.5696 27.6844L35.4632 28.1924ZM35.194 24.5218L31.2084 27.0508L27.562 26.0724L34.0841 22.106C34.5673 22.8428 34.9444 23.6553 35.194 24.5218ZM32.5457 20.3232L27.5052 21.2327V18.1079C29.4312 18.3005 31.177 19.1046 32.5457 20.3232ZM25.7052 30.5426V28.1956L24.9412 27.6663L20.3681 30.4474L24.9698 31.0093L25.7052 30.5426ZM29.6994 22.6659L27.5052 24.0002V23.0618L29.6994 22.6659ZM25.7052 25.0949V23.3866L22.7058 23.9279L24.6885 25.3015L25.1583 25.4275L25.7052 25.0949ZM29.0796 30.5333L27.9048 31.2788L29.3854 30.7452L29.0796 30.5333ZM31.4645 29.9958L30.7294 29.4865L31.5053 28.9942L33.0751 29.4153L31.4645 29.9958ZM29.1441 28.3606L29.1233 28.3738L29.079 28.3431L29.1441 28.3606Z" fill="#FFDA44"/>
<path d="M30.3437 23.3027V28.2326C30.3437 30.2715 28.685 31.9301 26.6462 31.9301C24.6073 31.9301 22.9487 30.2715 22.9487 28.2326V23.3027H30.3437V23.3027ZM31.5761 20.8377H21.7161C21.0355 20.8377 20.4836 21.3896 20.4836 22.0703V28.2328C20.4836 31.6361 23.2427 34.3952 26.646 34.3952C30.0494 34.3952 32.8085 31.6361 32.8085 28.2328V22.0703C32.8087 21.3896 32.2567 20.8377 31.5761 20.8377Z" fill="#D80027"/>
<path d="M30.3437 23.3027V28.2326C30.3437 30.2715 28.6851 31.9301 26.6462 31.9301C24.6074 31.9301 22.9487 30.2715 22.9487 28.2326V23.3027H30.3437" fill="#F5F5F5"/>
<path d="M21.7041 22.6865C22.0444 22.6865 22.3203 22.4106 22.3203 22.0703C22.3203 21.7299 22.0444 21.454 21.7041 21.454C21.3637 21.454 21.0878 21.7299 21.0878 22.0703C21.0878 22.4106 21.3637 22.6865 21.7041 22.6865Z" fill="#FFE15A"/>
<path d="M31.5635 22.6865C31.9038 22.6865 32.1797 22.4106 32.1797 22.0703C32.1797 21.7299 31.9038 21.454 31.5635 21.454C31.2231 21.454 30.9472 21.7299 30.9472 22.0703C30.9472 22.4106 31.2231 22.6865 31.5635 22.6865Z" fill="#FFE15A"/>
<path d="M21.7041 27.6165C22.0444 27.6165 22.3203 27.3406 22.3203 27.0002C22.3203 26.6598 22.0444 26.3839 21.7041 26.3839C21.3637 26.3839 21.0878 26.6598 21.0878 27.0002C21.0878 27.3406 21.3637 27.6165 21.7041 27.6165Z" fill="#FFE15A"/>
<path d="M31.5635 27.6165C31.9038 27.6165 32.1797 27.3406 32.1797 27.0002C32.1797 26.6598 31.9038 26.3839 31.5635 26.3839C31.2231 26.3839 30.9472 26.6598 30.9472 27.0002C30.9472 27.3406 31.2231 27.6165 31.5635 27.6165Z" fill="#FFE15A"/>
<path d="M26.634 22.6865C26.9744 22.6865 27.2503 22.4106 27.2503 22.0703C27.2503 21.7299 26.9744 21.454 26.634 21.454C26.2937 21.454 26.0178 21.7299 26.0178 22.0703C26.0178 22.4106 26.2937 22.6865 26.634 22.6865Z" fill="#FFE15A"/>
<path d="M30.3339 32.1611C30.6743 32.1611 30.9502 31.8851 30.9502 31.5448C30.9502 31.2044 30.6743 30.9285 30.3339 30.9285C29.9936 30.9285 29.7177 31.2044 29.7177 31.5448C29.7177 31.8851 29.9936 32.1611 30.3339 32.1611Z" fill="#FFE15A"/>
<path d="M23.0067 32.1611C23.3471 32.1611 23.623 31.8851 23.623 31.5448C23.623 31.2044 23.3471 30.9285 23.0067 30.9285C22.6664 30.9285 22.3904 31.2044 22.3904 31.5448C22.3904 31.8851 22.6664 32.1611 23.0067 32.1611Z" fill="#FFE15A"/>
<path d="M27.4402 26.6876V27.7489C27.4402 28.1879 27.0831 28.545 26.6441 28.545C26.2052 28.545 25.848 28.1879 25.848 27.7489V26.6876H27.4402Z" fill="#41479B"/>
<path d="M27.4402 24.1714V25.2327C27.4402 25.6717 27.0831 26.0288 26.6441 26.0288C26.2052 26.0288 25.848 25.6717 25.848 25.2327V24.1714H27.4402Z" fill="#41479B"/>
<path d="M27.4402 29.2296V30.291C27.4402 30.73 27.0831 31.0871 26.6441 31.0871C26.2052 31.0871 25.848 30.73 25.848 30.291V29.2296H27.4402Z" fill="#41479B"/>
<path d="M29.5847 26.6876V27.7489C29.5847 28.1879 29.2276 28.545 28.7886 28.545C28.3497 28.545 27.9925 28.1879 27.9925 27.7489V26.6876H29.5847Z" fill="#41479B"/>
<path d="M25.2963 26.6876V27.7489C25.2963 28.1879 24.9392 28.545 24.5002 28.545C24.0612 28.545 23.7041 28.1879 23.7041 27.7489V26.6876H25.2963Z" fill="#41479B"/>
</g>
</g>
</g>
<defs>
<clipPath id="clip0_301_29666">
<rect width="72" height="54" fill="white"/>
</clipPath>
<clipPath id="clip1_301_29666">
<rect width="81" height="54" fill="white" transform="translate(-4.5)"/>
</clipPath>
</defs>
</svg>
