<svg width="72" height="54" viewBox="0 0 72 54" fill="none" xmlns="http://www.w3.org/2000/svg">
<g clip-path="url(#clip0_301_29668)">
<mask id="mask0_301_29668" style="mask-type:alpha" maskUnits="userSpaceOnUse" x="0" y="0" width="72" height="54">
<rect x="0.5" y="0.5" width="71" height="53" fill="#D9D9D9" stroke="black"/>
</mask>
<g mask="url(#mask0_301_29668)">
<g clip-path="url(#clip1_301_29668)">
<path d="M-4.5 -0.000350952H76.5V54.0003H-4.5V-0.000350952Z" fill="#014596"/>
<path d="M-4.5 -0.000350952H76.5V17.9992H-4.5V-0.000350952Z" fill="#CE0E30"/>
<path d="M-4.5 35.999H76.5V53.9986H-4.5V35.999Z" fill="white"/>
<path d="M24.3624 17.4834H15.15L14.7662 15.1754H24.7462L24.3624 17.4834Z" fill="#FFE15A"/>
<path d="M15.054 16.9063L15.1499 17.4834H24.3623L24.4582 16.9063H15.054Z" fill="#FFD350"/>
<path d="M19.9479 9.78948H19.5651V11.3281H19.9479V9.78948Z" fill="#FFE15A"/>
<path d="M20.3325 10.1744H19.181V10.559H20.3325V10.1744Z" fill="#FFE15A"/>
<path d="M24.3927 15.9446C24.3492 15.9446 24.3051 15.9371 24.2618 15.9217C24.0625 15.8492 23.9595 15.6287 24.0318 15.4289L24.8449 13.1802C24.8852 13.0687 24.8756 12.9459 24.8188 12.8434C24.7885 12.7889 24.7181 12.6931 24.5834 12.6642C23.5922 12.4531 21.6707 12.0981 19.942 12.0981H19.5712C17.8425 12.0981 15.921 12.4531 14.9293 12.6646C14.7951 12.6931 14.7243 12.7889 14.6942 12.8434C14.6374 12.9459 14.6278 13.0687 14.6682 13.1802L15.4811 15.4289C15.5534 15.6287 15.4503 15.8492 15.251 15.9217C15.0519 15.993 14.8314 15.8905 14.7594 15.691L13.9463 13.4424C13.8303 13.1215 13.858 12.7673 14.0225 12.4701C14.1815 12.1828 14.4534 11.9792 14.7688 11.9119C15.7902 11.694 17.7717 11.3284 19.5709 11.3284H19.9417C21.7408 11.3284 23.7223 11.6939 24.7433 11.9113C25.0591 11.979 25.331 12.1825 25.4901 12.47C25.6546 12.7671 25.6822 13.1213 25.5664 13.4423L24.7532 15.6909C24.6971 15.8475 24.5495 15.9446 24.3927 15.9446Z" fill="#FFE15A"/>
<path d="M19.7583 15.6081C19.5464 15.6081 19.3745 15.4361 19.3745 15.2234V12.0981C19.3745 11.8854 19.5464 11.7134 19.7583 11.7134C19.9702 11.7134 20.1421 11.8854 20.1421 12.0981V15.2234C20.1422 15.4359 19.9703 15.6081 19.7583 15.6081Z" fill="#FFE15A"/>
<path d="M22.4113 15.9446C22.3854 15.9446 22.3591 15.942 22.3329 15.9368C22.1253 15.8935 21.9918 15.69 22.035 15.4819L22.5006 13.2332C22.5612 12.9403 22.4664 12.6836 22.4125 12.6386C21.8802 12.4429 20.8124 12.098 19.8623 12.098H19.65C18.7001 12.098 17.6323 12.4429 17.0802 12.6486C17.0461 12.6836 16.9513 12.9401 17.0118 13.2331L17.4773 15.4817C17.5205 15.6897 17.3872 15.8935 17.1795 15.9367C16.9716 15.9769 16.7684 15.8462 16.7258 15.638L16.2602 13.3894C16.1443 12.8289 16.3223 12.111 16.8122 11.9277C17.546 11.6544 18.6334 11.3286 19.6499 11.3286H19.8622C20.8788 11.3286 21.9662 11.6542 22.6996 11.9273C23.1899 12.111 23.3679 12.8289 23.252 13.3894L22.7864 15.638C22.749 15.82 22.5893 15.9446 22.4113 15.9446Z" fill="#FFE15A"/>
<path d="M14.8622 15.7523H24.6503L24.7462 15.1754H14.7662L14.8622 15.7523Z" fill="#FFD350"/>
<path d="M12.4628 17.4834C12.2509 17.4834 12.0789 17.6556 12.0789 17.868V31.3017C12.0789 35.567 15.516 39.0246 19.756 39.0246C23.996 39.0246 27.433 35.567 27.433 31.3017V17.868C27.433 17.6556 27.2611 17.4834 27.0492 17.4834H12.4628Z" fill="#CE0E30"/>
<path d="M20.524 30.1774L21.2918 28.2541L19.7564 28.6387L18.221 28.2541L18.9888 30.1774L17.0696 36.7167C17.0696 36.7167 18.2212 37.4861 19.7565 37.4861C21.2919 37.4861 22.4435 36.7167 22.4435 36.7167L20.524 30.1774Z" fill="#F5F5F5"/>
<path d="M16.9763 31.7274L16.299 31.8972L17.7889 29.2099L17.1178 28.8364L15.3082 32.1005H13.6148V32.8699H14.4396L13.3751 33.7233L13.8546 34.3243L14.7589 33.5992L14.4022 34.6714L15.1305 34.9147L15.8316 32.807L17.1626 32.4735L16.9763 31.7274Z" fill="#FFE15A"/>
<path d="M17.0691 21.3299L15.3169 20.4518C14.9952 20.2906 14.8282 19.9269 14.9155 19.5771L15.0146 19.1799C15.0833 18.9042 14.8753 18.6372 14.5917 18.6372C14.4592 18.6372 14.3339 18.6975 14.2513 18.8012C13.3421 19.9401 12.8468 21.3552 12.8468 22.8138V30.9465C12.8468 30.9465 14.4498 30.6253 15.8976 28.5147C16.1634 28.1272 16.601 27.8978 17.0676 27.8739L16.3014 30.1771L17.8369 30.5619L19.1804 28.9597L17.0691 21.3299Z" fill="#F5F5F5"/>
<path d="M22.536 31.7274L23.2133 31.8972L21.7235 29.2099L22.3946 28.8364L24.204 32.1005H25.8975V32.8699H25.0727L26.1373 33.7233L25.6578 34.3243L24.7535 33.5992L25.1102 34.6714L24.3817 34.9147L23.6808 32.807L22.3498 32.4735L22.536 31.7274Z" fill="#FFE15A"/>
<path d="M22.4425 21.3299L24.1947 20.4518C24.5165 20.2906 24.6835 19.9269 24.5962 19.5771L24.4971 19.1799C24.4284 18.9042 24.6363 18.6372 24.92 18.6372C25.0525 18.6372 25.1777 18.6975 25.2603 18.8012C26.1695 19.9401 26.6648 21.3552 26.6648 22.8138V30.9465C26.6648 30.9465 25.0619 30.6253 23.6141 28.5147C23.3482 28.1272 22.9107 27.8978 22.4441 27.8739L23.2103 30.1771L21.6749 30.5617L20.3314 28.9596L22.4425 21.3299Z" fill="#F5F5F5"/>
<path d="M17.4544 18.6372H15.5351L16.1109 19.4066L17.4544 19.7912L16.6866 20.1758H17.8382L17.4544 18.6372Z" fill="#FFE15A"/>
<path d="M22.0602 18.6372H23.9794L23.4037 19.4066L22.0602 19.7912L22.828 20.1758H21.6764L22.0602 18.6372Z" fill="#FFE15A"/>
<path d="M22.3292 18.3357L20.5235 18.6373L19.7557 20.1759L18.988 18.6373L17.1823 18.3357C16.9753 18.3011 16.8165 18.5165 16.9104 18.7046L17.8366 20.5607L17.0688 21.3301H19.7557H22.4427L21.6749 20.5607L22.601 18.7046C22.6949 18.5164 22.5362 18.301 22.3292 18.3357Z" fill="#F5F5F5"/>
<path d="M19.7559 15.9208C20.0739 15.9208 20.3316 15.6625 20.3316 15.3438C20.3316 15.0252 20.0739 14.7669 19.7559 14.7669C19.438 14.7669 19.1802 15.0252 19.1802 15.3438C19.1802 15.6625 19.438 15.9208 19.7559 15.9208Z" fill="#FFBE50"/>
<path d="M19.7487 17.0413C19.9999 17.0413 20.2036 16.8978 20.2036 16.7208C20.2036 16.5437 19.9999 16.4002 19.7487 16.4002C19.4974 16.4002 19.2937 16.5437 19.2937 16.7208C19.2937 16.8978 19.4974 17.0413 19.7487 17.0413Z" fill="#41479B"/>
<path d="M17.4774 17.0413C17.7287 17.0413 17.9324 16.8978 17.9324 16.7208C17.9324 16.5437 17.7287 16.4002 17.4774 16.4002C17.2261 16.4002 17.0224 16.5437 17.0224 16.7208C17.0224 16.8978 17.2261 17.0413 17.4774 17.0413Z" fill="#FF4B55"/>
<path d="M15.2064 17.0413C15.4577 17.0413 15.6614 16.8978 15.6614 16.7208C15.6614 16.5437 15.4577 16.4002 15.2064 16.4002C14.9551 16.4002 14.7514 16.5437 14.7514 16.7208C14.7514 16.8978 14.9551 17.0413 15.2064 17.0413Z" fill="#41479B"/>
<path d="M24.2911 17.0415C24.5423 17.0415 24.746 16.8979 24.746 16.7209C24.746 16.5439 24.5423 16.4003 24.2911 16.4003C24.0398 16.4003 23.8361 16.5439 23.8361 16.7209C23.8361 16.8979 24.0398 17.0415 24.2911 17.0415Z" fill="#41479B"/>
<path d="M22.0187 17.0413C22.27 17.0413 22.4737 16.8978 22.4737 16.7208C22.4737 16.5437 22.27 16.4002 22.0187 16.4002C21.7674 16.4002 21.5637 16.5437 21.5637 16.7208C21.5637 16.8978 21.7674 17.0413 22.0187 17.0413Z" fill="#FF4B55"/>
<path d="M22.422 15.9207C22.7399 15.9207 22.9977 15.6624 22.9977 15.3438C22.9977 15.0252 22.7399 14.7669 22.422 14.7669C22.104 14.7669 21.8462 15.0252 21.8462 15.3438C21.8462 15.6624 22.104 15.9207 22.422 15.9207Z" fill="#FFBE50"/>
<path d="M24.5268 15.9207C24.8447 15.9207 25.1025 15.6624 25.1025 15.3438C25.1025 15.0252 24.8447 14.7669 24.5268 14.7669C24.2088 14.7669 23.9511 15.0252 23.9511 15.3438C23.9511 15.6624 24.2088 15.9207 24.5268 15.9207Z" fill="#FFBE50"/>
<path d="M17.0897 15.9207C17.4077 15.9207 17.6654 15.6624 17.6654 15.3438C17.6654 15.0252 17.4077 14.7669 17.0897 14.7669C16.7718 14.7669 16.514 15.0252 16.514 15.3438C16.514 15.6624 16.7718 15.9207 17.0897 15.9207Z" fill="#FFBE50"/>
<path d="M14.9836 15.9207C15.3016 15.9207 15.5593 15.6624 15.5593 15.3438C15.5593 15.0252 15.3016 14.7669 14.9836 14.7669C14.6657 14.7669 14.4079 15.0252 14.4079 15.3438C14.4079 15.6624 14.6657 15.9207 14.9836 15.9207Z" fill="#FFBE50"/>
<path d="M20.4171 12.0981C20.483 11.9847 20.5236 11.8544 20.5236 11.7135C20.5236 11.2886 20.1799 10.9441 19.7558 10.9441C19.3317 10.9441 18.9881 11.2885 18.9881 11.7135C18.9881 11.8544 19.0285 11.9847 19.0946 12.0981H20.4171Z" fill="#41479B"/>
<path d="M19.7557 29.2156C18.1681 29.2156 16.8769 27.9215 16.8769 26.3306V21.1376H22.6345V26.3306C22.6345 27.9217 21.3432 29.2156 19.7557 29.2156Z" fill="#CE0E30"/>
<path d="M22.4432 21.3299V26.3306C22.4432 27.8177 21.2402 29.0233 19.7563 29.0233C18.2723 29.0233 17.0693 27.8177 17.0693 26.3306V21.3299H22.4432V21.3299ZM22.8271 20.9453H22.4433H17.0695H16.6857V21.3299V26.3306C16.6857 28.0274 18.0632 29.4079 19.7564 29.4079C21.4496 29.4079 22.8271 28.0274 22.8271 26.3306V21.3299V20.9453V20.9453Z" fill="#800017"/>
<path d="M19.1817 28.9595C19.3674 29.0002 19.5596 29.023 19.7574 29.023C19.9553 29.023 20.1475 29 20.3331 28.9595V21.3297H19.1816C19.1817 21.3297 19.1817 28.9595 19.1817 28.9595Z" fill="#F5F5F5"/>
<path d="M22.4447 24.5032H17.0702V25.6573H22.4447V24.5032Z" fill="#F5F5F5"/>
</g>
</g>
</g>
<defs>
<clipPath id="clip0_301_29668">
<rect width="72" height="54" fill="white"/>
</clipPath>
<clipPath id="clip1_301_29668">
<rect width="81" height="54" fill="white" transform="translate(-4.5)"/>
</clipPath>
</defs>
</svg>
