<svg width="72" height="54" viewBox="0 0 72 54" fill="none" xmlns="http://www.w3.org/2000/svg">
<g clip-path="url(#clip0_301_29476)">
<mask id="mask0_301_29476" style="mask-type:alpha" maskUnits="userSpaceOnUse" x="0" y="0" width="72" height="54">
<rect x="0.5" y="0.5" width="71" height="53" fill="#D9D9D9" stroke="black"/>
</mask>
<g mask="url(#mask0_301_29476)">
<g clip-path="url(#clip1_301_29476)">
<path d="M-4.5 -0.000350952H76.5V54.0003H-4.5V-0.000350952Z" fill="#D80027"/>
<path d="M36 42.1866C44.3878 42.1866 51.1875 35.387 51.1875 26.9991C51.1875 18.6113 44.3878 11.8116 36 11.8116C27.6122 11.8116 20.8125 18.6113 20.8125 26.9991C20.8125 35.387 27.6122 42.1866 36 42.1866Z" fill="white"/>
<path d="M37.8709 21.1926L40.4765 24.783L44.6963 23.4147L42.0865 27.0021L44.6918 30.5926L40.4735 29.2192L37.8639 32.8066L37.8666 28.3706L33.6483 26.9971L37.8682 25.6289L37.8709 21.1926Z" fill="#D80027"/>
<path d="M39.4517 35.974C34.4952 35.974 30.4773 31.9561 30.4773 26.9996C30.4773 22.0431 34.4952 18.0252 39.4517 18.0252C40.9972 18.0252 42.4512 18.416 43.7208 19.104C41.7292 17.1565 39.0057 15.9543 36 15.9543C29.9 15.9543 24.9546 20.8996 24.9546 26.9998C24.9546 33.0999 29.9 38.0452 36 38.0452C39.0057 38.0452 41.7293 36.843 43.7208 34.8955C42.451 35.5832 40.9972 35.974 39.4517 35.974Z" fill="#D80027"/>
</g>
</g>
</g>
<defs>
<clipPath id="clip0_301_29476">
<rect width="72" height="54" fill="white"/>
</clipPath>
<clipPath id="clip1_301_29476">
<rect width="81" height="54" fill="white" transform="translate(-4.5)"/>
</clipPath>
</defs>
</svg>
