<svg width="72" height="54" viewBox="0 0 72 54" fill="none" xmlns="http://www.w3.org/2000/svg">
<g clip-path="url(#clip0_1569_150264)">
<mask id="mask0_1569_150264" style="mask-type:alpha" maskUnits="userSpaceOnUse" x="0" y="0" width="72" height="54">
<rect x="0.5" y="0.5" width="71" height="53" fill="#D9D9D9" stroke="black"/>
</mask>
<g mask="url(#mask0_1569_150264)">
<g clip-path="url(#clip1_1569_150264)">
<path d="M49.5001 -0.000518799H-4.5V53.9993H76.5V-0.000518799H49.5001Z" fill="#E0E4EB"/>
<path d="M36 10.8C27.0576 10.8 19.8 18.0576 19.8 27C19.8 35.9424 27.0576 43.2 36 43.2C44.9424 43.2 52.2 35.9424 52.2 27C52.2 18.0576 44.9424 10.8 36 10.8ZM37.62 16.146L39.807 14.607C42.7554 15.5142 45.2664 17.4582 46.9026 20.0178L46.2708 22.1886L44.0838 22.9338L37.62 18.414V16.146ZM32.193 14.607L34.38 16.146V18.414L27.9162 22.9338L25.7292 22.1886L25.0974 20.0178C26.7336 17.4744 29.2446 15.5304 32.193 14.607ZM28.0296 35.2782L26.1828 35.4402C24.2226 33.1722 23.04 30.2238 23.04 27C23.04 26.8056 23.0562 26.6274 23.0724 26.433L24.6924 25.2504L26.928 26.028L29.2932 33.0588L28.0296 35.2782ZM40.05 39.2958C38.7702 39.717 37.4094 39.96 36 39.96C34.5906 39.96 33.2298 39.717 31.95 39.2958L30.8322 36.882L31.869 35.1H40.1472L41.184 36.8982L40.05 39.2958ZM39.6774 31.86H32.3226L30.1356 25.3476L36 21.2328L41.8806 25.3476L39.6774 31.86ZM45.8172 35.4402L43.9704 35.2782L42.6906 33.0588L45.0558 26.028L47.3076 25.2666L48.9276 26.4492C48.9438 26.6274 48.96 26.8056 48.96 27C48.96 30.2238 47.7774 33.1722 45.8172 35.4402Z" fill="black" fill-opacity="0.1"/>
</g>
</g>
</g>
<defs>
<clipPath id="clip0_1569_150264">
<rect width="72" height="54" fill="white"/>
</clipPath>
<clipPath id="clip1_1569_150264">
<rect width="81" height="54" fill="white" transform="translate(-4.5)"/>
</clipPath>
</defs>
</svg>
