<svg width="72" height="54" viewBox="0 0 72 54" fill="none" xmlns="http://www.w3.org/2000/svg">
<g clip-path="url(#clip0_301_29674)">
<mask id="mask0_301_29674" style="mask-type:alpha" maskUnits="userSpaceOnUse" x="0" y="0" width="72" height="54">
<rect x="0.5" y="0.5" width="71" height="53" fill="#D9D9D9" stroke="black"/>
</mask>
<g mask="url(#mask0_301_29674)">
<g clip-path="url(#clip1_301_29674)">
<path d="M-4.5 0H76.5V54H-4.5V0Z" fill="white"/>
<path d="M-4.5 6H76.5V12H-4.5V6ZM-4.5 18H76.5V24H-4.5V18ZM-4.5 30H76.5V36H-4.5V30ZM-4.5 42H76.5V48H-4.5V42Z" fill="#0038A8"/>
<path d="M-4.5 0.000335693H36V30.0003H-4.5V0.000335693Z" fill="white"/>
<path d="M11.0511 3.76675L13.4416 14.8286L17.1822 13.279L11.0511 3.76675Z" fill="#FFE15A"/>
<path d="M11.0511 3.76675L15.3118 14.0538L13.4416 14.8286L11.0511 3.76675Z" fill="#FFBE27"/>
<path d="M20.3486 26.2112L17.958 15.1494L14.2174 16.699L20.3486 26.2112Z" fill="#FFE15A"/>
<path d="M20.3462 26.2112L16.0854 15.9242L17.9556 15.1494L20.3462 26.2112Z" fill="#FFBE27"/>
<path d="M26.9205 10.3408L15.8589 12.7313L17.4082 16.4718L26.9205 10.3408Z" fill="#FFE15A"/>
<path d="M26.9205 10.3408L16.6335 14.6015L15.8589 12.7313L26.9205 10.3408Z" fill="#FFBE27"/>
<path d="M4.47853 19.6374L15.5402 17.2469L13.9907 13.5063L4.47853 19.6374Z" fill="#FFE15A"/>
<path d="M4.47853 19.6368L14.7654 15.3761L15.5402 17.2463L4.47853 19.6368Z" fill="#FFBE27"/>
<path d="M20.3486 3.76675L14.2174 13.279L17.958 14.8286L20.3486 3.76675Z" fill="#FFE15A"/>
<path d="M20.3486 3.76675L16.0877 14.0538L14.2174 13.279L20.3486 3.76675Z" fill="#FFBE27"/>
<path d="M11.0511 26.2112L17.1822 16.699L13.4416 15.1494L11.0511 26.2112Z" fill="#FFE15A"/>
<path d="M11.0511 26.2111L15.3118 15.9241L17.1822 16.6988L11.0511 26.2111Z" fill="#FFBE27"/>
<path d="M26.9205 19.6374L17.4082 13.5063L15.8589 17.2469L26.9205 19.6374Z" fill="#FFE15A"/>
<path d="M26.9228 19.6374L16.6357 15.3767L17.4105 13.5063L26.9228 19.6374Z" fill="#FFBE27"/>
<path d="M4.47853 10.3408L13.9907 16.4718L15.5402 12.7313L4.47853 10.3408Z" fill="#FFE15A"/>
<path d="M4.47853 10.3408L14.7654 14.6015L13.9907 16.4718L4.47853 10.3408Z" fill="#FFBE27"/>
<path d="M15.698 2.84241L13.6735 13.9767H17.7223L15.698 2.84241Z" fill="#FFE15A"/>
<path d="M15.698 2.84241V13.9767H13.6735L15.698 2.84241Z" fill="#FFBE27"/>
<path d="M15.698 27.1352L17.7223 16.0009H13.6735L15.698 27.1352Z" fill="#FFE15A"/>
<path d="M15.7002 27.1352V16.0009H17.7245L15.7002 27.1352Z" fill="#FFBE27"/>
<path d="M27.8448 14.9894L16.7104 12.9649V17.0137L27.8448 14.9894Z" fill="#FFE15A"/>
<path d="M27.8448 14.9894H16.7104V12.9649L27.8448 14.9894Z" fill="#FFBE27"/>
<path d="M3.55263 14.9894L14.687 17.0137V12.9649L3.55263 14.9894Z" fill="#FFE15A"/>
<path d="M3.55263 14.9892H14.687V17.0135L3.55263 14.9892Z" fill="#FFBE27"/>
<path d="M24.2894 6.39973L14.9846 12.8415L17.8476 15.7045L24.2894 6.39973Z" fill="#FFE15A"/>
<path d="M24.2894 6.39973L16.4161 14.273L14.9846 12.8415L24.2894 6.39973Z" fill="#FFBE27"/>
<path d="M7.11064 23.5784L16.4152 17.1366L13.5522 14.2736L7.11064 23.5784Z" fill="#FFE15A"/>
<path d="M7.11064 23.578L14.9837 15.7047L16.4152 17.1362L7.11064 23.578Z" fill="#FFBE27"/>
<path d="M24.2894 23.5784L17.8476 14.2736L14.9846 17.1366L24.2894 23.5784Z" fill="#FFE15A"/>
<path d="M24.289 23.5784L16.4158 15.7051L17.8473 14.2736L24.289 23.5784Z" fill="#FFBE27"/>
<path d="M7.11064 6.39973L13.5522 15.7045L16.4152 12.8415L7.11064 6.39973Z" fill="#FFE15A"/>
<path d="M7.11064 6.39973L14.9837 14.273L13.5522 15.7045L7.11064 6.39973Z" fill="#FFBE27"/>
<path d="M15.6986 19.0386C17.9346 19.0386 19.7473 17.2259 19.7473 14.9899C19.7473 12.7539 17.9346 10.9413 15.6986 10.9413C13.4626 10.9413 11.65 12.7539 11.65 14.9899C11.65 17.2259 13.4626 19.0386 15.6986 19.0386Z" fill="#FFE15A"/>
</g>
</g>
</g>
<defs>
<clipPath id="clip0_301_29674">
<rect width="72" height="54" fill="white"/>
</clipPath>
<clipPath id="clip1_301_29674">
<rect width="81" height="54" fill="white" transform="translate(-4.5)"/>
</clipPath>
</defs>
</svg>
