<svg width="72" height="54" viewBox="0 0 72 54" fill="none" xmlns="http://www.w3.org/2000/svg">
<g clip-path="url(#clip0_301_29425)">
<mask id="mask0_301_29425" style="mask-type:alpha" maskUnits="userSpaceOnUse" x="0" y="0" width="72" height="54">
<rect x="0.5" y="0.5" width="71" height="53" fill="#D9D9D9" stroke="black"/>
</mask>
<g mask="url(#mask0_301_29425)">
<g clip-path="url(#clip1_301_29425)">
<path d="M-4.5 0H76.5V54H-4.5V0Z" fill="white"/>
<path d="M-4.5 0H76.5V4.15263H-4.5V0ZM-4.5 8.30526H76.5V12.4579H-4.5V8.30526ZM-4.5 16.6105H76.5V20.7632H-4.5V16.6105ZM-4.5 24.9158H76.5V29.0684H-4.5V24.9158ZM-4.5 33.2368H76.5V37.3895H-4.5V33.2368ZM-4.5 41.5421H76.5V45.6947H-4.5V41.5421ZM-4.5 49.8474H76.5V54H-4.5V49.8474Z" fill="#D80027"/>
<path d="M-4.5 0H36V29.0684H-4.5V0Z" fill="#1D41A2"/>
<path d="M-1.41068 1.57895L-1.86722 2.89727H-3.23685L-2.12662 3.72384L-2.54166 5.05263L-1.41068 4.22606L-0.310832 5.05263L-0.736245 3.72384L0.394732 2.89727H-0.995644L-1.41068 1.57895Z" fill="white"/>
<path d="M3.48406 1.57895L3.02751 2.89727H1.65789L2.76812 3.72384L2.35308 5.05263L3.48406 4.22606L4.58391 5.05263L4.15849 3.72384L5.28947 2.89727H3.89909L3.48406 1.57895Z" fill="white"/>
<path d="M7.92225 2.89727L8.37879 1.57895L8.79383 2.89727H10.1842L9.05323 3.72384L9.47864 5.05263L8.37879 4.22606L7.24781 5.05263L7.66285 3.72384L6.55263 2.89727H7.92225Z" fill="white"/>
<path d="M13.2735 1.57895L12.817 2.89727H11.4474L12.5576 3.72384L12.1426 5.05263L13.2735 4.22606L14.3734 5.05263L13.948 3.72384L15.0789 2.89727H13.6886L13.2735 1.57895Z" fill="white"/>
<path d="M17.7117 2.89727L18.1683 1.57895L18.5833 2.89727H19.9737L18.8427 3.72384L19.2681 5.05263L18.1683 4.22606L17.0373 5.05263L17.4523 3.72384L16.3421 2.89727H17.7117Z" fill="white"/>
<path d="M23.063 1.57895L22.6065 2.89727H21.2368L22.3471 3.72384L21.932 5.05263L23.063 4.22606L24.1629 5.05263L23.7374 3.72384L24.8684 2.89727H23.478L23.063 1.57895Z" fill="white"/>
<path d="M27.5012 2.89727L27.9577 1.57895L28.3728 2.89727H29.7632L28.6322 3.72384L29.0576 5.05263L27.9577 4.22606L26.8268 5.05263L27.2418 3.72384L26.1316 2.89727H27.5012Z" fill="white"/>
<path d="M32.8525 1.57895L32.3959 2.89727H31.0263L32.1365 3.72384L31.7215 5.05263L32.8525 4.22606L33.9523 5.05263L33.5269 3.72384L34.6579 2.89727H33.2675L32.8525 1.57895Z" fill="white"/>
<path d="M0.580146 7.31833L1.03669 6L1.45172 7.31833H2.8421L1.71112 8.1449L2.13654 9.47369L1.03669 8.64712L-0.0942901 9.47369L0.320747 8.1449L-0.789478 7.31833H0.580146Z" fill="white"/>
<path d="M5.93142 6L5.47488 7.31833H4.10526L5.21548 8.1449L4.80045 9.47369L5.93142 8.64712L7.03127 9.47369L6.60586 8.1449L7.73684 7.31833H6.34646L5.93142 6Z" fill="white"/>
<path d="M10.3696 7.31833L10.8262 6L11.2412 7.31833H12.6316L11.5006 8.1449L11.926 9.47369L10.8262 8.64712L9.69518 9.47369L10.1102 8.1449L9 7.31833H10.3696Z" fill="white"/>
<path d="M15.7209 6L15.2644 7.31833H13.8947L15.005 8.1449L14.5899 9.47369L15.7209 8.64712L16.8207 9.47369L16.3953 8.1449L17.5263 7.31833H16.1359L15.7209 6Z" fill="white"/>
<path d="M20.1591 7.31833L20.6156 6L21.0307 7.31833H22.421L21.2901 8.1449L21.7155 9.47369L20.6156 8.64712L19.4847 9.47369L19.8997 8.1449L18.7895 7.31833H20.1591Z" fill="white"/>
<path d="M25.5104 6L25.0538 7.31833H23.6842L24.7944 8.1449L24.3794 9.47369L25.5104 8.64712L26.6102 9.47369L26.1848 8.1449L27.3158 7.31833H25.9254L25.5104 6Z" fill="white"/>
<path d="M29.9486 7.31833L30.4051 6L30.8201 7.31833H32.2105L31.0795 8.1449L31.505 9.47369L30.4051 8.64712L29.2741 9.47369L29.6892 8.1449L28.5789 7.31833H29.9486Z" fill="white"/>
<path d="M-1.41068 10.4211L-1.86722 11.7394H-3.23685L-2.12662 12.5659L-2.54166 13.8947L-1.41068 13.0682L-0.310832 13.8947L-0.736245 12.5659L0.394732 11.7394H-0.995644L-1.41068 10.4211Z" fill="white"/>
<path d="M3.02751 11.7394L3.48406 10.4211L3.89909 11.7394H5.28947L4.15849 12.5659L4.58391 13.8947L3.48406 13.0682L2.35308 13.8947L2.76812 12.5659L1.65789 11.7394H3.02751Z" fill="white"/>
<path d="M8.37879 10.4211L7.92225 11.7394H6.55263L7.66285 12.5659L7.24781 13.8947L8.37879 13.0682L9.47864 13.8947L9.05323 12.5659L10.1842 11.7394H8.79383L8.37879 10.4211Z" fill="white"/>
<path d="M12.817 11.7394L13.2735 10.4211L13.6886 11.7394H15.0789L13.948 12.5659L14.3734 13.8947L13.2735 13.0682L12.1426 13.8947L12.5576 12.5659L11.4474 11.7394H12.817Z" fill="white"/>
<path d="M18.1683 10.4211L17.7117 11.7394H16.3421L17.4523 12.5659L17.0373 13.8947L18.1683 13.0682L19.2681 13.8947L18.8427 12.5659L19.9737 11.7394H18.5833L18.1683 10.4211Z" fill="white"/>
<path d="M22.6065 11.7394L23.063 10.4211L23.478 11.7394H24.8684L23.7374 12.5659L24.1629 13.8947L23.063 13.0682L21.932 13.8947L22.3471 12.5659L21.2368 11.7394H22.6065Z" fill="white"/>
<path d="M27.9577 10.4211L27.5012 11.7394H26.1316L27.2418 12.5659L26.8268 13.8947L27.9577 13.0682L29.0576 13.8947L28.6322 12.5659L29.7632 11.7394H28.3728L27.9577 10.4211Z" fill="white"/>
<path d="M32.3959 11.7394L32.8525 10.4211L33.2675 11.7394H34.6579L33.5269 12.5659L33.9523 13.8947L32.8525 13.0682L31.7215 13.8947L32.1365 12.5659L31.0263 11.7394H32.3959Z" fill="white"/>
<path d="M1.03669 14.8421L0.580146 16.1604H-0.789478L0.320747 16.987L-0.0942901 18.3158L1.03669 17.4892L2.13654 18.3158L1.71112 16.987L2.8421 16.1604H1.45172L1.03669 14.8421Z" fill="white"/>
<path d="M5.47488 16.1604L5.93142 14.8421L6.34646 16.1604H7.73684L6.60586 16.987L7.03127 18.3158L5.93142 17.4892L4.80045 18.3158L5.21548 16.987L4.10526 16.1604H5.47488Z" fill="white"/>
<path d="M10.8262 14.8421L10.3696 16.1604H9L10.1102 16.987L9.69518 18.3158L10.8262 17.4892L11.926 18.3158L11.5006 16.987L12.6316 16.1604H11.2412L10.8262 14.8421Z" fill="white"/>
<path d="M15.2644 16.1604L15.7209 14.8421L16.1359 16.1604H17.5263L16.3953 16.987L16.8207 18.3158L15.7209 17.4892L14.5899 18.3158L15.005 16.987L13.8947 16.1604H15.2644Z" fill="white"/>
<path d="M20.6156 14.8421L20.1591 16.1604H18.7895L19.8997 16.987L19.4847 18.3158L20.6156 17.4892L21.7155 18.3158L21.2901 16.987L22.421 16.1604H21.0307L20.6156 14.8421Z" fill="white"/>
<path d="M25.0538 16.1604L25.5104 14.8421L25.9254 16.1604H27.3158L26.1848 16.987L26.6102 18.3158L25.5104 17.4892L24.3794 18.3158L24.7944 16.987L23.6842 16.1604H25.0538Z" fill="white"/>
<path d="M30.4051 14.8421L29.9486 16.1604H28.5789L29.6892 16.987L29.2741 18.3158L30.4051 17.4892L31.505 18.3158L31.0795 16.987L32.2105 16.1604H30.8201L30.4051 14.8421Z" fill="white"/>
<path d="M-1.86722 20.5815L-1.41068 19.2632L-0.995644 20.5815H0.394732L-0.736245 21.4081L-0.310832 22.7368L-1.41068 21.9103L-2.54166 22.7368L-2.12662 21.4081L-3.23685 20.5815H-1.86722Z" fill="white"/>
<path d="M3.48406 19.2632L3.02751 20.5815H1.65789L2.76812 21.4081L2.35308 22.7368L3.48406 21.9103L4.58391 22.7368L4.15849 21.4081L5.28947 20.5815H3.89909L3.48406 19.2632Z" fill="white"/>
<path d="M7.92225 20.5815L8.37879 19.2632L8.79383 20.5815H10.1842L9.05323 21.4081L9.47864 22.7368L8.37879 21.9103L7.24781 22.7368L7.66285 21.4081L6.55263 20.5815H7.92225Z" fill="white"/>
<path d="M13.2735 19.2632L12.817 20.5815H11.4474L12.5576 21.4081L12.1426 22.7368L13.2735 21.9103L14.3734 22.7368L13.948 21.4081L15.0789 20.5815H13.6886L13.2735 19.2632Z" fill="white"/>
<path d="M17.7117 20.5815L18.1683 19.2632L18.5833 20.5815H19.9737L18.8427 21.4081L19.2681 22.7368L18.1683 21.9103L17.0373 22.7368L17.4523 21.4081L16.3421 20.5815H17.7117Z" fill="white"/>
<path d="M23.063 19.2632L22.6065 20.5815H21.2368L22.3471 21.4081L21.932 22.7368L23.063 21.9103L24.1629 22.7368L23.7374 21.4081L24.8684 20.5815H23.478L23.063 19.2632Z" fill="white"/>
<path d="M27.5012 20.5815L27.9577 19.2632L28.3728 20.5815H29.7632L28.6322 21.4081L29.0576 22.7368L27.9577 21.9103L26.8268 22.7368L27.2418 21.4081L26.1316 20.5815H27.5012Z" fill="white"/>
<path d="M32.8525 19.2632L32.3959 20.5815H31.0263L32.1365 21.4081L31.7215 22.7368L32.8525 21.9103L33.9523 22.7368L33.5269 21.4081L34.6579 20.5815H33.2675L32.8525 19.2632Z" fill="white"/>
<path d="M0.580146 25.0025L1.03669 23.6842L1.45172 25.0025H2.8421L1.71112 25.8291L2.13654 27.1579L1.03669 26.3313L-0.0942901 27.1579L0.320747 25.8291L-0.789478 25.0025H0.580146Z" fill="white"/>
<path d="M5.93142 23.6842L5.47488 25.0025H4.10526L5.21548 25.8291L4.80045 27.1579L5.93142 26.3313L7.03127 27.1579L6.60586 25.8291L7.73684 25.0025H6.34646L5.93142 23.6842Z" fill="white"/>
<path d="M10.3696 25.0025L10.8262 23.6842L11.2412 25.0025H12.6316L11.5006 25.8291L11.926 27.1579L10.8262 26.3313L9.69518 27.1579L10.1102 25.8291L9 25.0025H10.3696Z" fill="white"/>
<path d="M15.7209 23.6842L15.2644 25.0025H13.8947L15.005 25.8291L14.5899 27.1579L15.7209 26.3313L16.8207 27.1579L16.3953 25.8291L17.5263 25.0025H16.1359L15.7209 23.6842Z" fill="white"/>
<path d="M20.1591 25.0025L20.6156 23.6842L21.0307 25.0025H22.421L21.2901 25.8291L21.7155 27.1579L20.6156 26.3313L19.4847 27.1579L19.8997 25.8291L18.7895 25.0025H20.1591Z" fill="white"/>
<path d="M25.5104 23.6842L25.0538 25.0025H23.6842L24.7944 25.8291L24.3794 27.1579L25.5104 26.3313L26.6102 27.1579L26.1848 25.8291L27.3158 25.0025H25.9254L25.5104 23.6842Z" fill="white"/>
<path d="M29.9486 25.0025L30.4051 23.6842L30.8201 25.0025H32.2105L31.0795 25.8291L31.505 27.1579L30.4051 26.3313L29.2741 27.1579L29.6892 25.8291L28.5789 25.0025H29.9486Z" fill="white"/>
</g>
</g>
</g>
<defs>
<clipPath id="clip0_301_29425">
<rect width="72" height="54" fill="white"/>
</clipPath>
<clipPath id="clip1_301_29425">
<rect width="81" height="54" fill="white" transform="translate(-4.5)"/>
</clipPath>
</defs>
</svg>
