<svg width="72" height="54" viewBox="0 0 72 54" fill="none" xmlns="http://www.w3.org/2000/svg">
<g clip-path="url(#clip0_301_29426)">
<mask id="mask0_301_29426" style="mask-type:alpha" maskUnits="userSpaceOnUse" x="0" y="0" width="72" height="54">
<rect x="0.5" y="0.5" width="71" height="53" fill="#D9D9D9" stroke="black"/>
</mask>
<g mask="url(#mask0_301_29426)">
<g clip-path="url(#clip1_301_29426)">
<path d="M-4.5 0.0012207H76.5V54.0001H-4.5V0.0012207Z" fill="#00C449"/>
<path d="M76.5 0.000183105V26.3711L-4.5 27.0278V0.000183105H76.5Z" fill="white"/>
<path d="M54.7917 17.2077C54.7917 17.2077 55.6484 19.5575 55.7218 19.6799L55.8197 19.484L56.4071 16.4244L57.9246 13.5851L57.4841 13.6341L54.0327 15.2984C54.0327 15.2984 51.9766 17.5504 51.9522 17.6238C51.9278 17.6972 54.7917 17.2077 54.7917 17.2077Z" fill="#FF4B55"/>
<path d="M56.0055 39.6783C55.8913 39.6618 54.1941 39.7435 54.1941 39.7435L53.6394 37.8833L53.3213 34.3668L53.9209 34.2077L54.6675 34.5627L54.9368 33.1552C54.9368 33.1552 54.2882 32.4454 54.1657 32.3964C54.0433 32.3474 52.5748 32.017 52.5748 32.017L50.6043 29.4103L52.9541 28.1008L54.7899 25.5796L55.2305 23.3032L54.8634 21.4184L54.0284 20.0206C54.0161 19.9808 54.0065 19.9499 54.0065 19.9499C54.0006 19.9424 53.98 19.9284 53.9669 19.9175L53.8108 19.656L53.8083 19.8085C53.4462 19.5823 52.7051 19.1889 52.5134 19.0931C52.2687 18.9706 50.9713 18.7503 50.7021 18.9462C50.4328 19.1421 49.1845 19.7295 48.9642 20.1456C48.744 20.5617 48.5971 22.0548 48.5971 22.0548C48.5971 22.0548 48.9642 22.8871 49.4294 23.0828C49.8945 23.2787 50.8 23.4989 50.9469 23.4499C51.0737 23.4077 52.5105 22.9831 52.9025 22.8045L53.0764 23.1562L53.003 24.1598L52.1953 24.7228L50.7022 25.3102C50.7022 25.3102 48.4258 24.6738 48.328 24.6982C48.2301 24.7226 45.4152 23.8659 45.4152 23.8659L42.7717 23.254L43.6528 22.8134L46.0516 22.6421C46.0516 22.6421 46.5167 19.9252 46.5902 19.8762C46.6636 19.8272 48.2301 18.5789 48.2301 18.5789L49.5274 18.2608L48.7441 14.9399L49.9191 11.3172L46.8511 12.1984L41.9884 13.4059L38.8881 13.2101L36.1466 14.0912L34.3842 15.6904L33.3723 17.0611L33.0134 19.2478L32.7848 22.1526L31.9362 23.7518L30.9748 24.5054C30.867 24.2209 30.3617 23.1318 30.3617 23.1318L31.5855 22.8381L31.2674 22.0304L30.4107 21.394L30.68 20.4149L31.6591 20.9534L31.9284 21.1493L32.0997 20.1457L31.0227 18.6282L31.194 17.8694L32.4912 18.5548L32.3444 16.7924L31.194 16.0826L31.2674 15.1034L32.5239 15.4787L32.3934 14.5486L31.0227 13.553L32.3607 11.3991L30.7288 11.4808L30.5983 10.779L30.1741 10.6157C30.1741 10.6157 27.9058 11.5785 27.7426 11.5458C27.5795 11.5132 25.7683 11.2685 25.556 11.3175C25.3438 11.3665 24.5931 11.5622 24.5931 11.5622L24.3809 12.3945L22.9939 12.1662L20.9378 11.9949L20.3177 12.7538L21.2968 13.1455C21.2968 13.1455 21.0685 14.8752 21.1337 15.0057C21.199 15.1361 21.7864 15.9848 21.7864 15.9848L20.4484 17.8124L21.8191 18.0082L23.712 17.7145L23.6466 18.1715L26.1597 17.9104L25.6047 18.2041L24.8869 20.358L22.7981 24.6008L22.0638 28.3702L20.8888 27.1464L20.1056 23.9154L18.9306 20.7333C18.9306 20.7333 18.6859 19.7542 18.5389 19.7297C18.392 19.7053 17.7556 19.5829 17.7556 19.5829L16.9479 20.2437L15.9199 20.0969L15.3325 20.9046L15.9934 21.9326C15.9934 21.9326 14.8918 22.3731 14.8918 22.4955C14.8918 22.618 14.9653 23.3278 15.0387 23.3522C15.1121 23.3767 16.7765 23.3278 16.7765 23.3278L17.78 25.1146L16.9968 27.1707L17.3885 27.954L18.0739 28.0518L18.7103 27.3176L20.9132 33.902C20.9132 33.902 20.742 34.7587 20.6195 34.8321C20.4971 34.9055 19.9097 35.5664 20.0566 35.5664C20.2034 35.5664 21.1091 35.6888 21.207 35.6398C21.3048 35.5908 22.5776 34.6118 22.5776 34.6118C22.5776 34.6118 24.5847 33.0697 24.7071 33.1921C24.8296 33.3146 26.7388 34.4894 26.7388 34.4894L25.8577 37.5246L23.7772 40.5598L22.4799 39.7765L21.5498 38.4547L20.8644 38.675L20.6197 39.0911L20.7175 39.9722C20.7175 39.9722 20.0077 40.5352 20.0077 40.6577C20.0077 40.7801 20.0811 41.6612 20.0811 41.6612C20.0811 41.6612 20.5463 41.8815 20.5707 42.0039C20.5951 42.1263 20.84 43.0075 20.84 43.0075L21.3295 43.1787L22.2596 42.6158H23.8017L24.7563 42.7626L26.788 42.1262L29.7497 42.273L29.4805 41.7101C29.4805 41.7101 28.2811 41.0981 27.8649 40.9758C27.4488 40.8534 27.0327 40.7555 27.0327 40.7555L26.8614 39.8988L29.7742 36.4475L30.8511 36.2272L31.2183 37.1329C31.2183 37.1329 32.4258 36.8392 32.4258 36.7412C32.4258 36.6433 32.4258 35.5988 32.4258 35.5009C32.4258 35.4031 32.1647 34.5872 32.1647 34.5872C32.1647 34.5872 32.1612 34.5572 32.156 34.5124L33.0785 34.3587L36.2769 32.8249L37.4028 34.1792L38.8062 34.8482L37.0601 37.9813L35.5589 38.9931L34.4819 38.5036L32.9805 37.3939L32.3931 37.753L32.5237 38.8627L31.6425 38.7974L31.2508 39.5807L31.9035 40.5271L31.675 41.2778C31.675 41.2778 31.8382 41.9632 32.0014 41.9632C32.1645 41.9632 33.1436 41.6041 33.1436 41.6041L36.0157 41.3758L38.1045 40.6904L40.2912 40.8537C40.2912 40.8537 40.7154 39.385 40.6176 39.385C40.5197 39.385 40.487 39.3523 40.2259 39.3523C39.9648 39.3523 39.0509 39.385 39.0509 39.385L39.0181 39.0581L39.7361 37.7526L42.5101 35.4354L43.3261 35.5986L43.6198 36.0228L44.4358 35.4028L44.4031 34.3584L43.6852 33.6078L42.9671 32.7591L43.1957 31.4863L44.4358 32.0737C44.4358 32.0737 46.394 33.4444 46.557 33.5098C46.7203 33.5751 50.5061 34.5541 50.5061 34.5541L51.2893 36.4143L50.8976 39.3516L49.6901 38.9926L48.5478 37.5239C48.5478 37.5239 48.2214 37.3606 48.0583 37.3933C47.8951 37.426 47.5036 38.0787 47.5036 38.0787L47.8953 38.9926L47.373 39.1557L46.8834 39.4821L46.7856 40.1675L47.2424 40.5917C47.2424 40.5917 47.2424 41.3749 47.2424 41.4728C47.2424 41.5707 47.5036 41.9298 47.6016 41.9624C47.6994 41.9949 48.4501 42.0928 48.6295 42.0766C48.809 42.0602 50.1471 41.5055 50.1471 41.5055C50.1471 41.5055 52.66 41.5545 52.7254 41.5382C52.7909 41.5218 54.9611 41.0487 54.9611 41.0487L56.1849 41.2445C56.1849 41.2445 57.0009 40.6244 56.9682 40.5427C56.9356 40.4615 56.1196 39.6945 56.0055 39.6783ZM51.3139 22.0056C50.6531 22.079 50.3103 22.2748 50.2613 21.9077C50.2124 21.5406 50.2124 20.8062 50.2858 20.7817C50.3592 20.7573 51.118 20.3166 51.1425 20.39C51.1669 20.4635 51.9257 20.8306 51.9257 20.8306L52.3879 21.7646C52.1441 21.8942 51.7679 21.955 51.3139 22.0056Z" fill="#FF0000"/>
<path d="M17.9522 16.0084C17.9522 16.0084 18.2214 14.6132 18.2949 14.6132C18.3683 14.6132 19.3718 14.246 19.3718 14.246L16.3856 12.3124C16.3856 12.3124 16.8996 14.6866 16.9486 14.8825C16.9975 15.0782 17.9522 16.0084 17.9522 16.0084Z" fill="#FF4B55"/>
<path d="M25.5458 13.1374C25.5562 13.1398 25.6157 13.153 25.7067 13.171L25.6842 13.2688C25.6475 13.4264 25.7461 13.5847 25.9045 13.6207C25.9267 13.6261 25.9489 13.6283 25.9706 13.6283C26.1042 13.6283 26.2253 13.5364 26.2563 13.4004L26.2878 13.2636C26.4994 13.2898 26.7323 13.3101 26.9573 13.3101C27.1474 13.3101 27.3311 13.2964 27.489 13.2596C27.647 13.2228 27.7457 13.0653 27.709 12.9077C27.6722 12.7494 27.5158 12.6484 27.3568 12.6875C26.8921 12.7968 25.9861 12.6354 25.6769 12.565C25.5221 12.5283 25.3619 12.6269 25.3251 12.7853C25.2892 12.9438 25.3879 13.1015 25.5458 13.1374Z" fill="#464655"/>
<path d="M54.6258 17.8792L55.3659 20.1393C55.4058 20.2601 55.5186 20.3413 55.6451 20.3413C55.6493 20.3413 55.6535 20.3413 55.6581 20.3413C55.7897 20.3351 55.9013 20.2426 55.9312 20.1141C56.4728 17.7934 57.5565 14.1225 58.3227 13.5228C58.4294 13.4394 58.4649 13.295 58.4094 13.171C58.3544 13.0486 58.2233 12.9782 58.0886 13.0028C57.9318 13.0319 54.2163 13.7556 51.6312 17.6329C51.565 17.7323 51.5653 17.8616 51.632 17.9603C51.699 18.059 51.8182 18.1049 51.9354 18.0834L54.0879 17.6384C53.7865 18.3651 53.5943 19.0044 53.5277 19.2393C52.5475 18.6428 51.442 18.5366 50.6753 18.7352C49.8003 18.9646 49.0649 19.5224 48.657 20.2657C48.3445 20.8355 48.2619 21.4612 48.4303 21.9822C48.6258 22.5873 49.1474 23.34 50.026 23.6359C50.6081 23.8336 51.5486 23.8774 52.7886 23.11C52.7886 23.1159 52.7896 23.1214 52.7894 23.1271C52.781 23.6167 52.5298 24.0159 52.0418 24.315C51.0718 24.9093 49.3712 24.9491 48.2517 24.4015C46.7754 23.6809 44.5559 23.2706 43.316 23.0846C44.0848 22.8395 45.0143 22.7704 46.1313 23.0263C46.1465 23.0303 46.1612 23.0242 46.1764 23.0254C46.1838 23.0259 46.1896 23.0341 46.1971 23.0341C46.2053 23.0341 46.2116 23.0254 46.2198 23.0248C46.2873 23.0193 46.3527 22.9988 46.4023 22.9508C46.4031 22.95 46.4032 22.949 46.4038 22.9481C46.4041 22.9479 46.4047 22.948 46.4047 22.948C46.4061 22.9466 46.4056 22.9446 46.4066 22.9435C46.4541 22.8942 46.475 22.8309 46.4809 22.7646C46.4823 22.7488 46.4841 22.7366 46.483 22.7208C46.482 22.7075 46.4876 22.6949 46.4848 22.6817C46.4814 22.6648 46.1559 20.9973 47.052 19.8484C47.5906 19.1576 48.4714 18.7805 49.67 18.7263C49.6889 18.7253 49.7045 18.7147 49.7225 18.7102C49.7484 18.704 49.7743 18.7002 49.7977 18.6873C49.8191 18.6753 49.8341 18.6568 49.8519 18.6398C49.8668 18.6259 49.8852 18.6175 49.8973 18.6C49.8999 18.5964 49.9001 18.592 49.9023 18.588C49.9043 18.5848 49.9082 18.5834 49.9102 18.58C49.9155 18.5709 49.9144 18.5602 49.9186 18.5507C49.9318 18.5213 49.9411 18.4919 49.9442 18.4608C49.9457 18.4459 49.9457 18.4323 49.9447 18.4174C49.943 18.3843 49.9355 18.3531 49.9228 18.3225C49.9197 18.3148 49.9213 18.3061 49.9173 18.2987C49.8936 18.2521 47.5889 13.6433 51.3439 10.566C51.466 10.4657 51.4868 10.2869 51.3918 10.1613C51.2962 10.0367 51.1191 10.0076 50.989 10.0986C47.2814 12.7015 42.1573 12.9823 40.1263 12.9823C36.504 12.9823 34.2154 14.3463 33.1293 17.1512C33.0166 17.4428 32.9365 17.7883 32.8696 18.1584C32.9058 17.6394 32.8109 17.1845 32.5767 16.804C32.2424 16.2615 31.7311 16.0344 31.5013 15.9555C31.5014 15.8224 31.5003 15.6905 31.4965 15.5612C31.8932 15.5002 32.3641 15.8082 32.5194 15.9389C32.5737 15.9848 32.6416 16.0092 32.7098 16.0092C32.7549 16.0092 32.8005 15.9986 32.842 15.9772C32.9475 15.9236 33.0111 15.8127 33.0027 15.695C32.9066 14.3291 31.98 13.6653 31.3443 13.4407C31.9048 12.9954 32.5021 12.2666 32.8682 11.078C32.9033 10.9631 32.8655 10.8386 32.7721 10.7636C32.6789 10.6878 32.5488 10.6765 32.4447 10.7346C32.4348 10.7402 31.8368 11.0639 30.938 11.3308L31.0201 10.2634C31.0281 10.1556 30.9766 10.0514 30.8848 9.99343C30.7934 9.93461 30.6764 9.93222 30.5827 9.98585C30.5675 9.99427 29.0636 10.8383 27.5298 11.2839C26.3721 10.9929 24.8653 10.7663 24.2941 11.3613C24.1563 11.5042 24.0282 11.7369 24.06 12.0971C23.0745 11.8914 20.8118 11.5548 19.4384 12.4429C19.3301 12.5124 19.2803 12.6448 19.3152 12.7688C19.3503 12.8927 19.4621 12.9799 19.591 12.983C20.0269 12.9937 20.7008 13.0939 20.982 13.2798C20.858 13.6141 20.6531 14.3224 20.8321 15.0054C20.2359 15.1781 19.6105 15.2048 18.8498 14.7933L19.5129 14.6306C19.6318 14.6015 19.7201 14.5014 19.7347 14.3795C19.7488 14.2579 19.6862 14.1402 19.5775 14.0843C19.5606 14.0751 17.8885 13.2054 16.4979 11.7436C16.419 11.6618 16.2994 11.6318 16.1896 11.6686C16.0809 11.7061 16.0041 11.8033 15.9931 11.9173C15.9811 12.0351 15.7319 14.8139 17.8422 16.4617C17.895 16.5023 17.9589 16.5236 18.0232 16.5236C18.0633 16.5236 18.1035 16.5152 18.1417 16.4984C18.2404 16.4549 18.3076 16.3606 18.316 16.2528L18.3979 15.2031C19.4507 15.8335 20.3224 15.7732 21.0702 15.5459C21.164 15.6889 21.2832 15.825 21.4335 15.9499C21.4577 15.9699 21.4908 15.9917 21.5244 16.0137C21.0438 17.1387 20.0895 17.4288 20.0487 17.44C19.9297 17.4744 19.8445 17.5793 19.836 17.7024C19.8271 17.8255 19.896 17.9409 20.0088 17.9915C20.0798 18.0228 21.617 18.6876 23.3399 18.074L23.3128 18.2706C23.3013 18.3531 23.3259 18.4372 23.3805 18.5008C23.4348 18.5651 23.514 18.6026 23.5977 18.6042C23.605 18.6042 23.6245 18.605 23.655 18.605C23.8528 18.605 24.509 18.59 25.253 18.4191C25.1405 19.4701 24.5002 20.7226 23.819 22.0441C22.8969 23.8343 21.8692 25.8533 21.8856 27.8922C21.5338 27.4367 21.0957 26.7266 20.8791 25.7839C20.8041 25.4564 20.7544 25.1627 20.7094 24.8943C20.5996 24.2448 20.5047 23.6834 20.1208 23.1556C19.6867 22.5591 19.0729 21.2272 19.0996 20.4999C19.1249 19.8276 18.6843 19.4321 18.2367 19.338C18.2044 19.3314 18.174 19.3397 18.1419 19.3359C18.0359 19.1224 17.749 18.7134 17.0894 18.6664C16.9306 18.645 16.7869 18.7766 16.7753 18.9387C16.7638 19.1002 16.8855 19.2409 17.0473 19.2522C17.2774 19.2685 17.42 19.3564 17.5076 19.444C17.2921 19.5548 17.1178 19.7395 16.9963 19.9761C16.6031 19.7495 16.2058 19.6928 15.9018 19.7623C15.823 19.7801 15.7636 19.8227 15.6956 19.8548C15.4966 19.7511 14.9668 19.5535 14.3282 19.9595C14.1914 20.046 14.1506 20.228 14.238 20.365C14.2937 20.453 14.389 20.5012 14.4862 20.5012C14.5398 20.5012 14.5944 20.4866 14.6434 20.4553C14.8714 20.3105 15.0662 20.2916 15.2091 20.3098C15.1044 20.5039 15.045 20.7175 15.0551 20.9166C15.0754 21.3121 15.304 21.6189 15.6574 21.7489C15.2359 21.8292 14.8787 22.0249 14.6879 22.2897C14.6571 22.3327 14.6507 22.3815 14.6286 22.4269C14.3601 22.4547 13.9472 22.6352 13.6862 23.1871C13.6167 23.3332 13.6793 23.5085 13.8258 23.578C13.8666 23.5971 13.9092 23.6063 13.9513 23.6063C14.0615 23.6063 14.1669 23.5444 14.2172 23.4381C14.3336 23.1924 14.4703 23.0951 14.5725 23.0506C14.8515 23.9708 15.7586 23.7613 16.3057 23.6331L16.5249 23.5834C16.8316 23.5222 17.3724 24.4179 17.5177 24.9992C17.6187 25.4031 17.4459 25.8973 16.9011 26.7616C16.5704 27.2878 16.6655 27.6688 16.804 27.8958C16.8068 27.9005 16.8113 27.903 16.8141 27.9073C16.7262 27.9337 16.618 27.9527 16.4717 27.9333C16.3136 27.9013 16.1627 28.0236 16.1409 28.1843C16.119 28.3449 16.2316 28.4933 16.3922 28.5148C16.4672 28.5255 16.5379 28.5301 16.6049 28.5301C16.9465 28.5301 17.1741 28.4135 17.3108 28.318C17.5019 28.3997 17.6984 28.4304 17.8437 28.4192C18.2486 28.3857 18.5231 28.0307 18.7084 27.59C19.2488 30.5695 20.4906 33.3361 20.7064 33.8028C20.6629 34.8585 19.5234 35.1062 19.4742 35.1171C19.3475 35.143 19.2528 35.2486 19.2408 35.3779C19.2289 35.5064 19.302 35.6274 19.4214 35.6763C19.9171 35.8788 20.3508 35.9601 20.7275 35.9601C21.8894 35.9601 22.5036 35.1937 22.6971 34.8985C23.5552 34.5996 24.5611 33.8998 24.9538 33.6136C25.6086 34.1042 26.1529 34.3762 26.3347 34.4613C26.0184 37.5758 24.1923 39.6796 23.6581 40.2314C23.2963 40.0242 22.4973 39.5124 22.2335 38.9027C21.9839 38.3265 21.521 38.1642 21.1435 38.1979C21.0167 38.0342 20.7321 37.7287 20.3331 37.6848C20.137 37.6641 19.8393 37.7001 19.5368 38.0029C19.4219 38.1177 19.4219 38.3035 19.5368 38.4182C19.6511 38.533 19.8369 38.5337 19.9521 38.419C20.118 38.2531 20.2309 38.263 20.2677 38.2682C20.3808 38.2803 20.4902 38.3622 20.5765 38.4464C20.3624 38.6289 20.2298 38.8843 20.2512 39.1631C20.2664 39.359 20.3398 39.5432 20.4433 39.7144C20.2293 39.8258 19.9716 40.0084 19.8018 40.2974C19.7958 40.3078 19.7888 40.3242 19.7825 40.3357C19.4318 40.358 18.8005 40.6055 18.7023 41.4226C18.6832 41.5841 18.7979 41.7301 18.9589 41.7492C18.9711 41.7507 18.9826 41.7516 18.9946 41.7516C19.1411 41.7516 19.2681 41.6422 19.286 41.493C19.3211 41.2004 19.4628 41.0596 19.5957 40.9892C19.5924 41.1097 19.6023 41.2351 19.6456 41.3661C19.7471 41.6744 19.9866 41.9244 20.3443 42.1189C20.3066 42.2393 20.2819 42.3676 20.2786 42.5065C20.0898 42.6018 19.8112 42.7794 19.6686 43.0818C19.5619 43.3076 19.5553 43.5599 19.6491 43.8123C19.693 43.9308 19.8051 44.0035 19.9245 44.0035C19.9587 44.0035 19.9933 43.9974 20.027 43.9853C20.1794 43.9287 20.2564 43.7595 20.1999 43.6075C20.1486 43.4706 20.175 43.3857 20.1996 43.3336C20.243 43.241 20.3293 43.1633 20.4173 43.1029C20.5263 43.2985 20.6908 43.4474 20.911 43.5202C21.0115 43.553 21.1159 43.5692 21.2208 43.5692C21.5703 43.5692 21.9246 43.3924 22.1518 43.0851C22.4237 42.7164 22.9557 42.9275 22.9902 42.9421C24.1024 43.3461 25.6051 43.0415 26.5146 42.5306C27.019 42.2468 28.7964 42.3999 29.7987 42.5642C29.877 42.5749 29.9604 42.5558 30.0251 42.5076C30.0894 42.4579 30.1303 42.3845 30.1384 42.3035C30.2398 41.2893 28.9275 41.02 27.8732 40.8035C27.5859 40.7447 27.3126 40.6887 27.0547 40.5786C26.9518 39.9836 28.4981 37.8173 29.9714 36.7341C30.3325 36.4688 30.6231 36.3624 30.7687 36.4404C30.9767 36.5544 31.0429 37.0853 31.0218 37.408C31.0213 37.4166 31.0262 37.4239 31.0263 37.4323C31.0266 37.4643 31.0326 37.4952 31.0439 37.5262C31.0486 37.5394 31.0523 37.5517 31.0587 37.5639C31.0628 37.5717 31.0632 37.5803 31.068 37.5877C31.0849 37.6136 31.1076 37.6325 31.1303 37.6511C31.1348 37.6547 31.1364 37.6607 31.1412 37.6643C31.1423 37.6651 31.1437 37.6648 31.1437 37.6648C31.1817 37.6919 31.2236 37.7079 31.2678 37.7152C31.2792 37.717 31.2898 37.7154 31.3012 37.7158C31.3341 37.7175 31.3658 37.7141 31.3981 37.7043C31.4057 37.7022 31.4137 37.7044 31.4211 37.7016C31.445 37.6923 31.4708 37.6791 31.4951 37.6692C31.6518 37.5889 31.9173 37.6784 32.103 37.7736C32.0685 37.8807 32.0475 37.9925 32.0575 38.1138C32.0697 38.2653 32.1169 38.4159 32.1903 38.5605C31.8993 38.5277 31.6271 38.5605 31.4299 38.712C31.3596 38.7659 31.3041 38.8339 31.2481 38.901C30.8347 38.9419 30.3176 39.2024 30.1947 39.8181C30.163 39.9771 30.2658 40.1316 30.425 40.1639C30.4445 40.1678 30.464 40.1693 30.4831 40.1693C30.62 40.1693 30.7427 40.073 30.7708 39.9329C30.8003 39.7859 30.8755 39.6969 30.9584 39.6299C30.9558 39.7372 30.9673 39.8435 30.9991 39.9436C31.0565 40.1252 31.2118 40.3962 31.6066 40.5477C31.571 40.6081 31.5404 40.6724 31.5133 40.7381C31.2193 40.8326 30.7765 41.1375 30.7765 41.7846C30.7765 41.9467 30.9081 42.0783 31.0703 42.0783C31.2324 42.0783 31.364 41.9467 31.364 41.7846C31.364 41.6703 31.3923 41.5873 31.4297 41.5187C31.4391 41.5611 31.4459 41.6046 31.4611 41.6445C31.5322 41.8304 31.746 42.1791 32.3449 42.1791C32.5423 42.1791 32.7808 42.1416 33.07 42.0475C33.771 41.8204 34.2679 41.7965 34.7483 41.7729C35.3228 41.7454 35.8655 41.7186 36.6278 41.3652C37.7261 40.855 39.0867 41.028 39.7995 41.177C40.1857 41.2566 40.5636 41.0667 40.7192 40.7127C40.7727 40.5919 40.8077 40.4862 40.8446 40.3788C41.1769 40.4187 41.2457 40.7416 41.2547 40.8128C41.2711 40.9627 41.3982 41.0745 41.5461 41.0745C41.5561 41.0745 41.5665 41.0736 41.5766 41.0729C41.738 41.0561 41.8554 40.9115 41.8386 40.75C41.8068 40.4431 41.5794 39.8925 40.9708 39.7967C40.9785 39.5884 40.9379 39.4168 40.8359 39.2905C40.7241 39.1527 40.502 39.0083 40.0666 39.0977C39.6161 39.1909 39.4089 39.2094 39.3154 39.201C39.3294 39.1437 39.3628 39.042 39.4403 38.8683C39.7027 38.2778 41.4449 36.7204 42.5856 35.788C42.8607 35.7261 43.2095 35.7222 43.29 35.814C43.3183 35.8453 43.3183 35.9533 43.254 36.1238C43.2081 36.2447 43.2467 36.3809 43.3485 36.4597C43.4499 36.5386 43.5914 36.5422 43.697 36.4688C43.7425 36.4368 44.8081 35.68 44.7867 34.7585C44.7756 34.2927 44.5041 33.888 43.9793 33.556C43.5345 33.2754 43.279 32.9501 43.2195 32.5906C43.1572 32.2147 43.3175 31.8809 43.4246 31.7032C43.8454 31.905 44.2677 32.1657 44.6882 32.5133C47.1685 34.5643 49.2794 34.8909 50.4195 34.8855C50.6588 35.414 51.361 37.2168 50.7615 39.0686C50.4426 39.0121 49.8161 38.8085 49.3862 38.0919C48.9683 37.3958 48.4668 37.2214 48.1192 37.1984C47.5788 37.1563 47.0054 37.4638 46.5549 38.0268C46.4586 38.1476 46.4719 38.322 46.5851 38.426C46.6986 38.5308 46.8741 38.5302 46.9855 38.4245C47.0604 38.3533 47.2 38.267 47.2601 38.3136L47.321 38.4833C47.3536 38.5774 47.3869 38.6723 47.4264 38.764C47.1928 38.7984 46.9679 38.894 46.7924 39.0929C46.6767 39.224 46.6039 39.3754 46.5512 39.5312C46.0132 39.6274 45.7201 40.0355 45.7077 40.0544C45.6182 40.1881 45.6547 40.3679 45.7876 40.4583C45.8376 40.4927 45.8952 40.5095 45.9517 40.5095C46.0455 40.5095 46.1376 40.4651 46.1949 40.3825C46.2005 40.3749 46.309 40.2277 46.5032 40.1453C46.5275 40.256 46.5672 40.3629 46.6275 40.4604C46.7288 40.6238 46.8727 40.7332 47.036 40.7914C47.014 40.8764 46.9952 40.969 46.9829 41.0687C46.9768 41.0708 46.9703 41.0698 46.964 41.0722C46.2606 41.3683 46.4041 42.2424 46.578 42.6632C46.6251 42.7765 46.734 42.8444 46.8491 42.8444C46.8866 42.8444 46.9244 42.8368 46.9609 42.8222C47.1108 42.7603 47.1823 42.5889 47.1211 42.439C47.119 42.4333 46.9539 42.0016 47.06 41.7558C47.0628 41.7624 47.0635 41.7694 47.0663 41.7759C47.1879 42.0505 47.4224 42.2463 47.7442 42.3428C47.9025 42.3902 48.054 42.4102 48.1989 42.4102C48.6796 42.4102 49.0876 42.1875 49.4312 41.9995C49.6986 41.8534 49.9513 41.7196 50.1505 41.7333C50.2956 41.7471 50.4615 41.7732 50.6435 41.8013C51.3304 41.9084 52.2719 42.0537 53.2062 41.7531C53.3802 41.6974 53.5377 41.6429 53.682 41.5932C54.4413 41.3331 54.7249 41.2359 55.1889 41.5C55.7508 41.8214 56.4751 41.6054 56.8484 41.2118C56.9653 41.0884 57.0327 40.9508 57.0689 40.8114C57.2606 40.8877 57.4159 40.9702 57.4407 41.0161C57.386 41.1691 57.4656 41.3366 57.6186 41.3916C57.6512 41.4031 57.6844 41.4085 57.7173 41.4085C57.8379 41.4085 57.9509 41.3335 57.9939 41.2135C58.049 41.0597 58.0356 40.9014 57.9561 40.756C57.7619 40.4025 57.1936 40.2127 56.909 40.1373C56.439 39.4987 55.7224 39.2997 54.5385 39.487C54.4914 39.4939 54.4546 39.4855 54.4142 39.4519C53.9819 39.1025 53.8869 37.2865 53.8302 36.2025C53.7847 35.3351 53.7536 34.8318 53.6206 34.59C53.6885 34.5343 54.0604 34.5273 54.2921 34.6963C54.4038 34.7789 54.4148 34.8531 54.3881 34.9372C54.3835 34.9494 54.3792 34.9609 54.375 34.9723C54.3178 35.1223 54.3919 35.2913 54.5414 35.3501C54.6909 35.4074 54.8604 35.3371 54.9212 35.188C54.93 35.1673 54.9376 35.1458 54.9446 35.1252C55.0494 34.8276 55.4784 33.4798 54.973 32.6262C54.7458 32.2429 54.3759 32.0142 53.8731 31.9462C52.5919 31.7735 51.6154 30.9549 50.9589 29.5282C51.9536 29.1788 54.8821 27.8513 55.4297 24.1876C55.7935 21.7521 54.9206 20.3882 54.124 19.673C54.086 19.6387 54.0447 19.6128 54.0058 19.5805C54.0288 19.5506 54.0582 19.526 54.0686 19.4873C54.0721 19.4742 54.2734 18.7333 54.6258 17.8792ZM52.5519 17.3556C54.2259 15.1771 56.2789 14.2073 57.3892 13.8156C56.661 15.1274 55.9671 17.5812 55.6055 18.9825L54.9943 17.1161C54.9919 17.1088 54.9844 17.1057 54.9817 17.0987C55.1608 16.7452 55.3623 16.4029 55.5844 16.114C55.6831 15.9855 55.659 15.8012 55.5305 15.7025C55.4016 15.6031 55.2177 15.6275 55.1186 15.7561C54.8413 16.1166 54.597 16.5441 54.3861 16.9761L52.5519 17.3556ZM17.7772 15.6086C16.8724 14.6501 16.6366 13.4063 16.5827 12.6507C17.3569 13.3681 18.1377 13.9053 18.6644 14.2325L18.1963 14.3475C18.1068 14.2758 18.0191 14.2095 17.9256 14.1256C17.8058 14.0177 17.6204 14.0284 17.511 14.1477C17.4023 14.2686 17.4123 14.4545 17.5332 14.563C17.6381 14.6572 17.7377 14.7297 17.8391 14.8104L17.7772 15.6086ZM39.9333 25.2978C39.3843 23.8329 37.7275 20.3258 33.6687 17.3916C33.6719 17.383 33.674 17.3718 33.6773 17.3634C33.7293 17.2289 33.7973 17.113 33.8556 16.9858C40.0009 18.5563 43.7412 21.1111 45.2354 22.3005C42.1827 22.0754 40.5679 24.1781 39.9333 25.2978ZM46.5859 19.4898C45.9371 20.3237 45.8238 21.3395 45.8366 22.0253C44.4891 20.8972 40.7014 18.1514 34.1137 16.4478C34.199 16.3 34.301 16.1714 34.3964 16.0351C34.4176 16.04 34.4381 16.0476 34.4605 16.049C42.5655 15.7006 47.0875 17.4411 48.7436 18.2613C47.8144 18.4497 47.0822 18.8517 46.5859 19.4898ZM40.1266 13.5693C41.918 13.5693 46.0539 13.3545 49.6211 11.5866C48.09 13.8929 48.6403 16.4817 49.073 17.7607C47.4302 16.9193 42.9814 15.1716 34.867 15.4514C36.0376 14.1977 37.7682 13.5693 40.1266 13.5693ZM33.2374 19.8279C33.3105 19.1639 33.3835 18.5324 33.4988 18.0005C37.3996 20.8921 38.9706 24.3873 39.4353 25.6547C38.4772 25.4399 37.6094 25.5095 36.8614 25.8952C36.2493 26.2112 35.8222 26.6756 35.5295 27.1009C35.3991 25.6228 34.911 22.9853 33.1287 20.9086C33.123 20.902 33.115 20.8991 33.1088 20.893C33.1565 20.5359 33.1988 20.1779 33.2374 19.8279ZM32.8663 28.7951C31.5014 28.4769 30.928 27.1015 30.9016 27.0366C30.8657 26.9479 30.7889 26.8813 30.6954 26.8598C30.6732 26.8552 30.651 26.8523 30.6288 26.8523C30.5572 26.8523 30.4875 26.8791 30.4327 26.9281C29.4521 27.81 28.2524 28.0425 27.6533 28.1037C28.1267 26.6167 29.4581 25.8442 31.2491 24.8046L31.3317 24.7564C31.7781 24.4973 32.1002 24.1039 32.3521 23.6411C32.3518 24.3803 32.3914 25.2037 32.5271 25.8969C32.5547 26.037 32.6774 26.134 32.8151 26.134C32.8339 26.134 32.8529 26.1325 32.8721 26.1285C33.0312 26.0972 33.1348 25.9426 33.1039 25.7836C32.81 24.2846 32.9961 22.0298 33.023 21.7261C34.7313 24.0321 34.9575 26.9423 34.9831 27.8913C33.9811 27.7179 33.4226 26.9392 33.4167 26.9312C33.3619 26.8516 33.2721 26.8041 33.176 26.8041H33.1749C33.0793 26.8041 32.9897 26.85 32.9348 26.9281C32.5007 27.5429 32.6702 28.3009 32.8663 28.7951ZM31.826 20.7587C31.5984 20.4787 31.2924 20.1706 30.9891 20.0352C31.0576 19.7616 31.1219 19.4704 31.1803 19.1645C31.4947 19.4227 31.9703 19.9544 31.826 20.7587ZM30.5029 21.8087C30.5909 21.8216 31.1261 21.9251 31.3485 22.6123C31.0995 22.5694 30.8063 22.592 30.5105 22.7513C30.4632 22.4759 30.4539 22.1616 30.5029 21.8087ZM31.5518 23.315C31.6367 23.3804 31.7495 23.3884 31.8462 23.3466C31.6758 23.6629 31.4617 23.9245 31.1982 24.121C31.0542 23.9757 30.8424 23.7157 30.6828 23.3391C31.118 23.0221 31.5083 23.2835 31.5518 23.315ZM32.5642 18.9849C32.6667 18.9585 32.746 18.8772 32.7727 18.7746C32.7299 19.0941 32.6907 19.423 32.6532 19.7636C32.5302 20.8804 32.396 22.0899 32.0154 23.0081C31.9074 21.7737 31.1018 21.3194 30.6301 21.2374C30.6552 21.1522 30.678 21.0682 30.71 20.9794C30.7517 20.8634 30.7928 20.7386 30.8331 20.6069C31.1016 20.7762 31.4725 21.2346 31.6804 21.5537C31.7352 21.6378 31.8275 21.6875 31.9267 21.6875C31.9335 21.6875 31.9404 21.6875 31.9473 21.6867C32.054 21.6791 32.1481 21.614 32.1929 21.5177C32.8958 20.0056 31.9494 18.9274 31.2908 18.5206C31.3074 18.4129 31.3239 18.3054 31.339 18.196C31.7208 18.3755 32.1283 18.745 32.2751 18.9017C32.3314 18.962 32.4095 18.9949 32.4896 18.9949C32.5145 18.9949 32.5393 18.9918 32.5642 18.9849ZM32.0766 17.1116C32.2441 17.384 32.3146 17.719 32.2878 18.1121C32.0492 17.9141 31.7343 17.7002 31.4117 17.5862C31.4464 17.2523 31.4725 16.9172 31.4875 16.5864C31.6658 16.6754 31.9062 16.835 32.0766 17.1116ZM32.2887 15.1159C32.0475 15.0106 31.7575 14.9391 31.4597 14.9717C31.4298 14.6449 31.3821 14.3409 31.3155 14.0657C31.6244 14.2109 32.068 14.5143 32.2887 15.1159ZM30.3934 10.7499L30.3368 11.4853C29.8811 11.5868 29.3799 11.663 28.8486 11.6754C28.769 11.6479 28.6581 11.6106 28.5291 11.5691C29.2853 11.2894 29.9644 10.9681 30.3934 10.7499ZM21.8099 15.4976C21.7495 15.4471 21.6963 15.3935 21.65 15.3377C21.7078 15.3148 21.7651 15.2918 21.8213 15.2698C22.229 15.1061 22.6137 14.9516 22.9839 14.931C23.8159 14.8798 24.0586 15.2086 24.113 15.3096C24.1684 15.413 24.1596 15.504 24.1267 15.549C23.9883 15.7373 23.7663 15.8503 23.4669 15.8871C22.7829 15.965 21.9686 15.63 21.8099 15.4976ZM23.8736 17.3611C23.7849 17.2968 23.6679 17.2868 23.571 17.3374C22.5633 17.8407 21.5604 17.7772 20.9236 17.6502C21.3059 17.3896 21.7543 16.9526 22.0541 16.2625C22.3975 16.387 22.8241 16.4874 23.2462 16.4874C23.344 16.4874 23.4417 16.4814 23.5376 16.4697C23.9973 16.414 24.3644 16.2158 24.5997 15.8976C24.7767 15.6567 24.7883 15.324 24.6296 15.0303C24.5065 14.8024 24.0968 14.2769 22.9519 14.3448C22.4849 14.3701 22.0367 14.5498 21.603 14.7242C21.5335 14.7517 21.4637 14.7799 21.3946 14.8068C21.2371 14.1115 21.5889 13.345 21.5938 13.335C21.6374 13.2418 21.6295 13.1324 21.5725 13.0466C21.4092 12.8011 21.0841 12.6482 20.7422 12.5524C22.3256 12.2212 24.3584 12.7681 24.3832 12.7751C24.4919 12.8034 24.6059 12.772 24.68 12.6879C24.7543 12.6053 24.7753 12.4874 24.7343 12.3835C24.6161 12.0859 24.6109 11.8787 24.7182 11.7669C25.1749 11.2911 27.3248 11.7614 28.7042 12.2465C28.737 12.258 28.7737 12.2549 28.8062 12.2633C30.1655 12.242 31.3534 11.8533 32.0568 11.5626C31.2629 13.2867 29.9124 13.5292 29.849 13.54C29.6896 13.5652 29.5805 13.7143 29.6049 13.8742C29.6294 14.0349 29.7797 14.1473 29.9401 14.1205C29.9711 14.1156 30.2581 14.0656 30.6489 13.8776C31.2306 15.4868 30.775 19.0641 30.1573 20.7799C29.466 22.7006 30.2328 23.9204 30.7023 24.4439C28.8471 25.5233 27.3968 26.4403 26.9908 28.3244C26.9902 28.326 26.9888 28.3273 26.9883 28.3289C26.9784 28.3595 26.8792 28.6898 26.7646 29.2786C26.0456 28.8008 24.7058 26.8396 25.4271 24.5409C25.6236 23.9136 25.8547 23.3001 26.0781 22.7067C26.7419 20.9444 27.3672 19.2785 26.9016 17.7183C27.0833 17.588 27.2535 17.4418 27.4006 17.2704C27.9128 16.6739 28.0916 15.9111 27.9326 15.0032C27.905 14.8426 27.7531 14.7339 27.5925 14.7646C27.4332 14.7922 27.3259 14.9443 27.3543 15.1042C27.4831 15.8409 27.3527 16.4237 26.9554 16.8873C26.1874 17.7838 24.6258 17.9689 23.9432 18.0064L23.9938 17.6392C24.0082 17.5317 23.9619 17.4244 23.8736 17.3611ZM26.5104 30.754C26.0045 31.3724 24.9778 32.1949 24.5791 32.5057C24.211 32.1547 23.8423 31.738 23.5174 31.2499C25.0203 30.9951 25.9224 30.0621 26.2606 29.6297C26.3732 29.7255 26.4804 29.8024 26.5751 29.8529C26.6024 29.8677 26.6319 29.8692 26.6609 29.8743C26.6214 30.1259 26.5839 30.411 26.5484 30.723C26.5359 30.7336 26.5212 30.7408 26.5104 30.754ZM22.9356 25.4004C23.1722 25.467 23.7857 25.6237 24.3518 25.6237C24.4554 25.6237 24.5482 25.6046 24.6455 25.5925C24.6246 25.954 24.6424 26.3022 24.6931 26.6334C24.2247 26.9383 23.1333 26.964 22.5439 26.9387C22.6227 26.4245 22.7579 25.9105 22.9356 25.4004ZM23.6709 23.6475C23.8873 23.6993 24.3118 23.7855 24.7404 23.7855C24.8516 23.7855 24.9622 23.7789 25.0699 23.7648C25.0008 23.964 24.9302 24.1616 24.8662 24.3652C24.7988 24.5802 24.7522 24.7911 24.7147 24.9999C24.7126 25.0002 24.7103 24.9996 24.7082 25C24.2723 25.1077 23.5241 24.9521 23.1421 24.8481C23.3043 24.4429 23.4812 24.0415 23.6709 23.6475ZM24.3421 22.3123C24.418 22.1649 24.4929 22.0189 24.5673 21.8733C24.8229 21.9348 25.327 22.0503 25.6799 22.0943C25.6295 22.229 25.5798 22.3628 25.5281 22.5006C25.4501 22.7076 25.3717 22.9209 25.2933 23.1329C25.2569 23.1298 25.2193 23.1328 25.1824 23.1446C24.8343 23.2521 24.2904 23.1787 23.9382 23.1054C24.0729 22.837 24.2086 22.5716 24.3421 22.3123ZM25.2739 20.3956C25.4853 20.4756 25.8238 20.5822 26.1655 20.5822C26.1762 20.5822 26.186 20.5776 26.1968 20.5774C26.1084 20.8846 26.0021 21.2013 25.8871 21.5241C25.7236 21.5223 25.2438 21.427 24.8388 21.333C24.9962 21.0152 25.1418 20.7028 25.2739 20.3956ZM25.6798 19.273C25.8459 19.2847 25.9997 19.2924 26.1296 19.2924C26.2578 19.2924 26.3598 19.284 26.4526 19.2726C26.4322 19.5007 26.3996 19.7322 26.3493 19.9688C26.1264 20.0348 25.762 19.9493 25.4922 19.8495C25.5641 19.6545 25.6268 19.4623 25.6798 19.273ZM22.9209 27.5346C23.4834 27.5346 24.2703 27.4704 24.8138 27.218C24.89 27.496 24.9861 27.758 25.0957 28.0017C24.0866 28.7028 22.9592 28.8641 22.5603 28.8973C22.5165 28.6544 22.4848 28.4031 22.4696 28.1412C22.4578 27.9363 22.4657 27.7303 22.4776 27.5242C22.5919 27.5294 22.7423 27.5346 22.9209 27.5346ZM25.3689 28.5254C25.5206 28.783 25.682 29.0135 25.8442 29.2066C25.5944 29.5376 24.7139 30.5497 23.1967 30.7141C22.9944 30.337 22.8238 29.924 22.6967 29.4758C23.2085 29.4257 24.3258 29.2276 25.3689 28.5254ZM26.3708 18.033C26.4233 18.2456 26.4535 18.4618 26.4646 18.6812C26.39 18.7051 26.1113 18.7074 25.8105 18.6916C25.8346 18.5408 25.8484 18.3927 25.8546 18.2467C26.0287 18.1868 26.2019 18.115 26.3708 18.033ZM22.4153 34.3713C22.3392 34.3957 22.2757 34.4493 22.2401 34.5205C22.2159 34.5687 21.7185 35.5356 20.4058 35.3467C20.8701 35.0408 21.2954 34.526 21.2954 33.7388C21.2954 33.6953 21.2858 33.6523 21.267 33.6133C21.2479 33.5727 19.3371 29.4972 19.075 25.8517C19.0639 25.6986 18.937 25.5801 18.7836 25.5793H18.782C18.6294 25.5793 18.5021 25.6962 18.4894 25.8486C18.4133 26.7656 18.1097 27.806 17.7949 27.8319C17.6791 27.8442 17.408 27.757 17.3062 27.5895C17.2304 27.4648 17.2618 27.2911 17.3987 27.0739C17.933 26.2248 18.2547 25.5236 18.0879 24.8557C17.9483 24.2966 17.2955 22.8264 16.404 23.0068L16.1715 23.0596C15.4138 23.2393 15.2188 23.201 15.1247 22.8584C15.1013 22.7728 15.114 22.7032 15.1653 22.632C15.2939 22.4531 15.6227 22.3192 15.9842 22.2984C16.6623 22.2616 16.9327 22.5508 16.9399 22.5592C17.0295 22.6679 17.1821 22.697 17.3052 22.632C17.4283 22.5661 17.4884 22.4224 17.4481 22.2886C17.4366 22.2511 17.159 21.3684 15.9785 21.2246C15.7134 21.1926 15.6495 21.0221 15.6423 20.8859C15.6308 20.6601 15.7736 20.3925 16.0324 20.3336C16.4967 20.2302 17.363 20.6242 17.7384 22.1258C17.7778 22.2842 17.9408 22.3753 18.0945 22.3401C18.252 22.3002 18.3476 22.1411 18.3083 21.9836C18.1161 21.2151 17.8047 20.6882 17.4565 20.3331C17.4626 20.3223 17.4717 20.3142 17.4765 20.3023C17.6173 19.9442 17.9072 19.87 18.1168 19.9122C18.3169 19.9544 18.5265 20.1249 18.5134 20.4775C18.4771 21.4505 19.2462 22.9504 19.6461 23.5005C19.949 23.9166 20.0252 24.3671 20.1302 24.9912C20.1773 25.2696 20.2289 25.574 20.307 25.9146C20.6964 27.6096 21.7201 28.6365 21.9608 28.8598C22.2787 30.8985 23.4271 32.3222 24.4801 33.2282C24.0266 33.5498 23.1251 34.1499 22.4153 34.3713ZM25.0251 32.903C25.3642 32.6361 25.9617 32.148 26.4625 31.6598C26.4204 32.2319 26.3895 32.8603 26.3867 33.5741C26.3864 33.6575 26.3794 33.7371 26.3768 33.8192C26.0866 33.6635 25.5835 33.3642 25.0251 32.903ZM43.1684 30.9454L43.68 29.4303C44.1802 29.6079 44.6517 29.8112 45.0948 30.0336L44.1178 31.3976C43.8072 31.2158 43.4907 31.0651 43.1684 30.9454ZM42.6067 30.7715C42.3323 30.7011 42.0546 30.6493 41.7734 30.622L41.9635 28.9647C42.0319 28.9776 42.1018 28.9847 42.1696 28.9992C42.4977 29.0699 42.8126 29.1559 43.1208 29.2488L42.6067 30.7715ZM41.185 30.5972C40.8951 30.5998 40.6023 30.626 40.3066 30.6731L40.1451 28.8171C40.5603 28.8115 40.9746 28.829 41.3824 28.8749L41.185 30.5972ZM39.5577 28.8414L39.7272 30.7912C39.4241 30.8681 39.118 30.9717 38.8102 31.0943L38.2919 28.9794C38.7075 28.9155 39.1305 28.8679 39.5577 28.8414ZM38.6538 34.4842C38.4183 34.4012 38.1974 34.2886 37.9887 34.1638L39.0387 32.1707C39.0632 32.1988 39.0899 32.2228 39.1104 32.2571C39.2149 32.433 39.2305 32.6648 39.157 32.9463C39.0594 33.3206 38.8844 33.8718 38.6538 34.4842ZM37.3522 32.5308C37.7159 32.2884 38.1156 32.056 38.5419 31.8539L37.4992 33.833C37.098 33.5224 36.787 33.1983 36.6111 32.996C36.8559 32.85 37.1033 32.6966 37.3522 32.5308ZM37.7114 29.0782L38.2644 31.3345C37.9811 31.471 37.6959 31.6267 37.4095 31.8013L36.5589 29.3336C36.9263 29.2397 37.3138 29.1539 37.7114 29.0782ZM35.9905 29.4873L36.8871 32.088C36.8912 32.0997 36.9026 32.1049 36.9079 32.1155C36.5497 32.3499 36.1955 32.5595 35.8473 32.7524L34.9789 29.8041C35.2883 29.6995 35.6258 29.5921 35.9905 29.4873ZM34.4236 29.9994L35.3164 33.0304C35.3169 33.0325 35.3193 33.0335 35.3199 33.0354C34.9299 33.2351 34.556 33.4115 34.212 33.5606L33.2408 30.5291C33.2531 30.508 33.2667 30.4808 33.2788 30.4611C33.44 30.3885 33.8467 30.2118 34.4236 29.9994ZM32.867 31.2859L33.6681 33.7864C33.0567 34.029 32.5791 34.1836 32.3414 34.2546C32.1886 33.2824 32.5079 32.1321 32.867 31.2859ZM32.6939 36.6592C32.8929 36.1811 32.834 35.592 32.5142 34.8608C32.5085 34.8478 32.5027 34.8349 32.4974 34.821C32.9903 34.6769 34.4322 34.2065 36.0909 33.2907C36.3873 33.6495 37.2641 34.6083 38.4395 35.0292C37.772 36.6617 36.7756 38.4916 35.7718 38.6539C34.9304 38.787 34.4748 38.2852 34.035 37.7964C33.6514 37.3711 33.2158 36.8891 32.5976 37.215C32.5495 37.2404 32.5132 37.273 32.4713 37.302C32.4234 37.2741 32.3574 37.2397 32.2795 37.204C32.4481 37.0568 32.5999 36.8856 32.6939 36.6592ZM42.639 32.6785C42.7249 33.2132 43.0704 33.6753 43.666 34.0523C44.0136 34.2719 44.193 34.5135 44.1995 34.7706C44.2063 35.0452 44.0271 35.3312 43.8239 35.563C43.796 35.5057 43.762 35.4582 43.727 35.42C43.3523 35.0039 42.5373 35.1913 42.3774 35.2333C42.3368 35.2433 42.2991 35.2632 42.2665 35.289C41.9655 35.5338 39.312 37.71 38.9035 38.6286C38.7504 38.9729 38.6186 39.33 38.8251 39.5864C39.0405 39.8541 39.4524 39.8244 40.1867 39.6721C40.2497 39.659 40.2952 39.6552 40.326 39.6552C40.3611 39.6552 40.3783 39.6552 40.3783 39.6591C40.4032 39.7013 40.4197 39.9375 40.1818 40.4744C40.1385 40.5716 40.0292 40.6228 39.9194 40.6006C39.1357 40.4385 37.6326 40.2517 36.3804 40.8316C35.7221 41.1368 35.2575 41.159 34.7198 41.185C34.2248 41.2087 33.6642 41.2362 32.8887 41.4878C32.7101 41.5451 32.1176 41.7142 32.0094 41.4328C31.9189 41.1962 32.0951 40.7823 32.2821 40.6609C33.4382 40.7058 33.9093 40.7062 33.9093 40.7062C34.0715 40.7062 34.203 40.5747 34.203 40.4125C34.203 40.2503 34.0715 40.1188 33.9093 40.1188C33.9044 40.1188 33.4171 40.1188 32.2077 40.0698C31.999 40.0614 31.6367 40.011 31.5588 39.7646C31.5007 39.5818 31.6032 39.3178 31.7875 39.1772C31.9474 39.0532 32.4863 39.1894 33.0129 39.4165C33.1801 39.522 33.3541 39.6069 33.5227 39.6628C33.6656 39.714 33.8237 39.6414 33.8845 39.5022C33.9457 39.3629 33.8907 39.2009 33.7574 39.1275C33.653 39.0693 33.4824 38.9798 33.2767 38.8881C32.9348 38.6563 32.664 38.3244 32.643 38.0649C32.6354 37.9717 32.6541 37.8493 32.8712 37.7353C33.0598 37.6366 33.1949 37.7437 33.5982 38.1905C34.0667 38.7099 34.7065 39.4151 35.8655 39.2339C38.122 38.8683 39.7103 33.1521 39.7252 33.0945C39.8395 32.6562 39.8028 32.2738 39.6154 31.9579C39.5072 31.7752 39.3679 31.6566 39.2349 31.5659C40.3429 31.1672 41.592 31.0309 42.8744 31.4751C42.728 31.7443 42.5588 32.1813 42.639 32.6785ZM44.6128 31.7153L45.617 30.3134C45.9829 30.5188 46.3265 30.7345 46.6492 30.9574L45.361 32.2887C45.2609 32.2107 45.1637 32.1436 45.0623 32.0597C44.9141 31.9371 44.7643 31.8223 44.6128 31.7153ZM47.1305 33.4336L48.4207 32.4057C48.6692 32.6458 48.8958 32.8804 49.096 33.1018L48.0528 33.8433C47.7597 33.7337 47.4521 33.598 47.1305 33.4336ZM46.5698 33.1296C46.3293 32.9867 46.0826 32.8268 45.8303 32.6485L47.1311 31.3043C47.4367 31.5356 47.7234 31.7696 47.9849 32.002L46.5698 33.1296ZM48.7518 34.0672L49.4813 33.5486C49.7205 33.8368 49.914 34.0927 50.0535 34.2896C49.6907 34.2681 49.2481 34.2001 48.7518 34.0672ZM54.8486 24.0999C54.3295 27.5749 51.5449 28.7268 50.7158 28.9955C50.0188 27.4276 48.8633 26.1086 48.0942 25.71C47.9512 25.6366 47.7734 25.6923 47.6984 25.8355C47.6238 25.9801 47.6801 26.1569 47.8242 26.2319C48.4101 26.5355 49.5964 27.7709 50.2815 29.459C51.0209 31.2802 52.203 32.3129 53.7945 32.5286C54.1146 32.5716 54.3346 32.7014 54.4676 32.9249C54.6626 33.2539 54.6527 33.7481 54.5811 34.1824C54.2064 33.9445 53.5963 33.8681 53.2639 34.1228C53.0567 34.2811 52.9973 34.5329 53.1049 34.7958C53.1776 34.974 53.2112 35.6135 53.2437 36.2324C53.3375 38.0231 53.4564 39.4313 54.0447 39.9078C54.2144 40.0455 54.4191 40.1021 54.6306 40.0661C55.7916 39.8825 56.2155 40.1289 56.4919 40.5564C56.5088 40.5824 56.5599 40.6611 56.4224 40.8074C56.2137 41.0277 55.7756 41.1569 55.4808 40.9902C54.7858 40.5923 54.2982 40.76 53.4917 41.0377C53.3506 41.0858 53.1961 41.1386 53.0258 41.1945C52.2249 41.4531 51.3989 41.3245 50.7342 41.2205C50.5392 41.1906 50.3616 41.1632 50.2068 41.1486C49.8282 41.1127 49.4832 41.3009 49.1494 41.4837C48.7452 41.7048 48.3634 41.9167 47.9136 41.7798C47.7049 41.7171 47.637 41.6123 47.6038 41.5382C47.5051 41.3173 47.5781 40.9971 47.6484 40.7934C47.9003 40.749 48.1267 40.7573 48.3761 40.7833C48.7356 40.8192 49.1447 40.8622 49.6604 40.6724C49.8127 40.6166 49.8904 40.4475 49.8344 40.2953C49.7781 40.1429 49.6102 40.0674 49.4568 40.1216C49.0694 40.263 48.7749 40.2349 48.4365 40.199C48.1279 40.1676 47.7797 40.1324 47.3613 40.2433C47.2974 40.2602 47.2011 40.2701 47.1273 40.1508C47.0301 39.9948 47.0343 39.7063 47.2333 39.4815C47.3863 39.3079 47.6827 39.3133 47.9564 39.3713C48.1098 39.457 48.3049 39.5273 48.5569 39.5755C48.7007 39.6059 48.8433 39.5197 48.8905 39.3812C48.9375 39.2419 48.8749 39.0897 48.7436 39.0238C48.7215 39.0132 48.4905 38.8999 48.1825 38.822C48.0203 38.7042 47.9625 38.5381 47.8757 38.2894L47.8103 38.1066C47.7713 38.0025 47.7213 37.9238 47.6665 37.8642C47.8076 37.803 47.9456 37.7755 48.08 37.7839C48.3821 37.8045 48.6521 38.0096 48.8823 38.3943C49.6446 39.664 50.9087 39.6787 50.9622 39.6787C51.0843 39.6787 51.1937 39.6028 51.2368 39.4888C52.1867 36.9784 50.9167 34.5513 50.8621 34.4489C50.8611 34.4474 50.8595 34.4464 50.8587 34.4447C50.8579 34.4433 50.8583 34.4418 50.8574 34.4404C50.7447 34.2453 48.0337 29.6627 42.2939 28.4258C38.1591 27.5316 33.1627 29.8647 32.952 29.9648C32.9023 29.9877 32.8606 30.0245 32.8307 30.0703C32.2364 30.9889 31.2453 33.4267 31.9758 35.0966C32.2247 35.6657 32.2841 36.1154 32.1519 36.4344C32.0631 36.6479 31.8902 36.8192 31.5962 36.9776C31.5569 36.6104 31.4302 36.1324 31.0523 35.9243C30.6828 35.7224 30.2023 35.8348 29.6235 36.2602C28.2531 37.2676 26.2979 39.6472 26.4762 40.6776C26.5198 40.9307 26.6785 41.1105 26.9226 41.184C27.1586 41.2543 27.4492 41.3147 27.7551 41.3774C28.3602 41.5021 29.0738 41.6483 29.3904 41.9105C28.536 41.8011 26.8807 41.6497 26.2263 42.0168C25.4546 42.4513 24.1278 42.7282 23.2042 42.3939C22.8684 42.2539 22.1165 42.1429 21.6793 42.7351C21.5163 42.9562 21.2605 43.0166 21.0953 42.9608C20.9034 42.8981 20.8631 42.6984 20.8631 42.5424C20.8631 41.861 21.519 41.8082 21.7198 41.8082C21.8819 41.8082 22.0135 41.6766 22.0135 41.5145C22.0135 41.3523 21.8819 41.2208 21.7198 41.2208C21.27 41.2208 20.8997 41.3673 20.6458 41.6167C20.4109 41.494 20.2592 41.3489 20.2042 41.1816C20.129 40.9529 20.2371 40.7158 20.3087 40.5949C20.4447 40.3638 20.6855 40.2411 20.8329 40.1815C21.1663 40.4948 21.5544 40.719 21.7491 40.8043C21.896 40.8678 22.0699 40.8013 22.1361 40.6529C22.2011 40.5045 22.133 40.3308 21.9846 40.2659C21.5913 40.0938 20.8719 39.563 20.838 39.1178C20.8255 38.9548 20.9757 38.8308 21.131 38.7919C21.243 38.7636 21.5252 38.7414 21.6951 39.1338C22.1245 40.1275 23.5212 40.8265 23.5806 40.8556C23.622 40.8762 23.6662 40.8863 23.7106 40.8863C23.7822 40.8863 23.8525 40.8604 23.908 40.8105C24.0322 40.6972 26.9577 37.9956 26.9746 33.5759C26.9847 30.9042 27.3562 29.2376 27.4942 28.7074C28.0134 28.6825 29.3406 28.5227 30.5324 27.6087C30.8773 28.2199 31.7529 29.4062 33.3642 29.4468C33.3666 29.4468 33.3691 29.4468 33.3715 29.4468C33.4769 29.4468 33.5746 29.3895 33.627 29.2975C33.6806 29.2028 33.6775 29.0864 33.6194 28.9954C33.6137 28.9863 33.1624 28.2642 33.2653 27.6416C33.6356 27.9989 34.3097 28.4821 35.2706 28.5166H35.2707H35.2709C35.2742 28.5166 35.2778 28.5166 35.2813 28.5166C35.3321 28.5166 35.3777 28.5001 35.4197 28.4768C35.4388 28.4661 35.4556 28.458 35.4716 28.4429C35.5093 28.4104 35.5366 28.3687 35.5541 28.3205C35.5556 28.316 35.5602 28.3139 35.5616 28.3091C35.5656 28.2961 35.972 27.0165 37.1321 26.4175C37.873 26.0342 38.7663 26.0104 39.7909 26.348C39.8162 26.3561 39.8416 26.3558 39.8669 26.3571C39.8726 26.3574 39.877 26.3626 39.8827 26.3626C39.8872 26.3626 39.8919 26.361 39.8963 26.3607C39.9039 26.3605 39.9111 26.3588 39.9187 26.3578C39.9317 26.3562 39.9446 26.3562 39.9577 26.3527C39.9667 26.3503 39.9731 26.344 39.9818 26.3408C40.0012 26.3336 40.0188 26.3249 40.0362 26.314C40.0515 26.3044 40.0657 26.2945 40.0787 26.2824C40.0926 26.2699 40.1041 26.2557 40.1155 26.2406C40.1269 26.2253 40.1367 26.21 40.145 26.1927C40.1489 26.1848 40.1554 26.1791 40.1585 26.1705C40.1975 26.0637 40.8051 24.4773 42.32 23.5412C42.3255 23.5422 42.3297 23.5455 42.3353 23.5459C42.3717 23.5499 45.9912 23.9506 47.9945 24.9288C48.6053 25.2272 49.3507 25.3749 50.0885 25.3749C50.9215 25.3749 51.7442 25.1866 52.3495 24.8158C53.0104 24.4112 53.3659 23.83 53.3775 23.1368C53.4017 21.7156 52.5269 20.6218 51.6917 20.315C51.1677 20.1231 50.6631 20.2385 50.3443 20.6278C49.9472 21.1113 49.9707 21.7377 50.4 22.1178C50.8456 22.5126 51.6686 22.5753 52.4921 21.847C52.5884 22.034 52.6654 22.2405 52.7174 22.4611C51.7885 23.1031 50.922 23.3171 50.2146 23.0786C49.5425 22.8521 49.1418 22.27 48.9905 21.8011C48.8715 21.4331 48.9384 20.9757 49.1732 20.5474C49.5037 19.9445 50.1058 19.491 50.8247 19.3038C51.5744 19.1072 52.804 19.2762 53.7326 20.1099C54.4209 20.7291 55.174 21.923 54.8486 24.0999ZM52.1592 21.3554C51.5822 21.8985 51.0509 21.9108 50.7888 21.6783C50.596 21.5077 50.5995 21.2415 50.7976 21.0013C50.915 20.8584 51.0603 20.8101 51.2015 20.8101C51.3033 20.8101 51.4031 20.8353 51.4888 20.8666C51.7213 20.9523 51.9549 21.1222 52.1592 21.3554Z" fill="#464655"/>
</g>
</g>
</g>
<defs>
<clipPath id="clip0_301_29426">
<rect width="72" height="54" fill="white"/>
</clipPath>
<clipPath id="clip1_301_29426">
<rect width="81" height="54" fill="white" transform="translate(-4.5)"/>
</clipPath>
</defs>
</svg>
